<svg xmlns="http://www.w3.org/2000/svg" xmlns:xlink="http://www.w3.org/1999/xlink" viewBox="0 0 584.14 600"><defs><style>.cls-1,.cls-2{opacity:0.49;}.cls-1{fill:url(#linear-gradient);}.cls-2{fill:url(#linear-gradient-2);}.cls-3{fill:url(#linear-gradient-3);}.cls-4,.cls-56{fill:none;stroke-linecap:round;stroke-linejoin:round;}.cls-4{stroke:#124;}.cls-5{fill:url(#linear-gradient-4);}.cls-6{fill:url(#linear-gradient-5);}.cls-7{fill:url(#linear-gradient-6);}.cls-8{fill:url(#linear-gradient-7);}.cls-9{fill:url(#linear-gradient-8);}.cls-10{fill:url(#linear-gradient-9);}.cls-11{fill:#ffd46a;}.cls-12{fill:url(#linear-gradient-10);}.cls-13{fill:url(#linear-gradient-11);}.cls-14{fill:url(#linear-gradient-12);}.cls-15{fill:url(#linear-gradient-13);}.cls-16{fill:url(#linear-gradient-14);}.cls-17{fill:url(#linear-gradient-15);}.cls-18{fill:url(#linear-gradient-16);}.cls-19{fill:url(#linear-gradient-17);}.cls-20{fill:url(#linear-gradient-18);}.cls-21{fill:url(#linear-gradient-19);}.cls-22{fill:url(#linear-gradient-20);}.cls-23{fill:url(#linear-gradient-21);}.cls-24{fill:url(#linear-gradient-22);}.cls-25{fill:url(#linear-gradient-23);}.cls-26{fill:url(#linear-gradient-24);}.cls-27{fill:url(#linear-gradient-25);}.cls-28{fill:url(#linear-gradient-26);}.cls-29{fill:url(#linear-gradient-27);}.cls-30{fill:url(#linear-gradient-28);}.cls-31{fill:url(#linear-gradient-29);}.cls-32{fill:url(#linear-gradient-30);}.cls-33{fill:url(#linear-gradient-31);}.cls-34{fill:url(#linear-gradient-32);}.cls-35{fill:url(#linear-gradient-33);}.cls-36{fill:url(#linear-gradient-34);}.cls-37{fill:url(#linear-gradient-35);}.cls-38{fill:url(#linear-gradient-36);}.cls-39{fill:url(#linear-gradient-37);}.cls-40{fill:#fff;}.cls-41{fill:url(#linear-gradient-38);}.cls-42{fill:url(#linear-gradient-39);}.cls-43{fill:url(#linear-gradient-40);}.cls-44{fill:url(#linear-gradient-41);}.cls-45{fill:url(#linear-gradient-42);}.cls-46{fill:url(#linear-gradient-43);}.cls-47{fill:url(#linear-gradient-44);}.cls-48{fill:url(#linear-gradient-45);}.cls-49{fill:url(#linear-gradient-46);}.cls-50{fill:url(#linear-gradient-47);}.cls-51{fill:url(#linear-gradient-48);}.cls-52{fill:url(#linear-gradient-49);}.cls-53{fill:url(#linear-gradient-50);}.cls-54{fill:url(#linear-gradient-51);}.cls-55{fill:url(#linear-gradient-52);}.cls-56{stroke:#eb6057;}.cls-57{fill:url(#linear-gradient-53);}.cls-58{fill:url(#linear-gradient-54);}.cls-59{fill:#223762;}.cls-60{fill:url(#linear-gradient-55);}.cls-61{fill:#d6e3fa;}.cls-62{fill:url(#linear-gradient-56);}.cls-63{fill:url(#linear-gradient-57);}.cls-64{fill:url(#linear-gradient-58);}.cls-65{fill:url(#linear-gradient-59);}.cls-66{fill:url(#linear-gradient-60);}.cls-67{fill:url(#linear-gradient-61);}.cls-68{fill:url(#linear-gradient-62);}.cls-69{fill:url(#linear-gradient-63);}.cls-70{fill:url(#linear-gradient-64);}.cls-71{fill:url(#linear-gradient-65);}.cls-72{fill:url(#linear-gradient-66);}.cls-73{fill:url(#linear-gradient-67);}.cls-74{fill:url(#linear-gradient-68);}.cls-75{fill:url(#linear-gradient-69);}.cls-76{fill:url(#linear-gradient-70);}.cls-77{fill:url(#linear-gradient-71);}.cls-78{fill:url(#linear-gradient-72);}.cls-79{fill:url(#linear-gradient-73);}</style><linearGradient id="linear-gradient" x1="-4352.74" y1="49.26" x2="-5195.48" y2="294.04" gradientTransform="matrix(-0.81, -0.13, -0.11, 1.09, -3409.61, -430.69)" gradientUnits="userSpaceOnUse"><stop offset="0" stop-color="#eaf1fc"/><stop offset="1" stop-color="#c0d4f4"/></linearGradient><linearGradient id="linear-gradient-2" x1="-4319.58" y1="311.11" x2="-5199.09" y2="566.57" gradientTransform="matrix(-0.81, 0, 0, 1, -3548.89, 0)" xlink:href="#linear-gradient"/><linearGradient id="linear-gradient-3" x1="-403.74" y1="-10.28" x2="-336.08" y2="-10.28" gradientTransform="matrix(1.15, 0.16, -0.1, 1, 534.01, 459.2)" gradientUnits="userSpaceOnUse"><stop offset="0" stop-color="#223762"/><stop offset="1" stop-color="#041b48"/></linearGradient><linearGradient id="linear-gradient-4" x1="116.94" y1="416.55" x2="60.38" y2="532.84" gradientTransform="matrix(1, -0.04, -0.04, 1.27, 50.92, -372.56)" xlink:href="#linear-gradient-3"/><linearGradient id="linear-gradient-5" x1="36.16" y1="275.82" x2="72.66" y2="275.82" gradientUnits="userSpaceOnUse"><stop offset="0" stop-color="#3769a5"/><stop offset="1" stop-color="#08448b"/></linearGradient><linearGradient id="linear-gradient-6" x1="106.68" y1="162.95" x2="40.07" y2="465.3" gradientUnits="userSpaceOnUse"><stop offset="0" stop-color="#4c93f4"/><stop offset="1" stop-color="#0b63da"/></linearGradient><linearGradient id="linear-gradient-7" x1="246.51" y1="644.15" x2="169.87" y2="776.3" gradientTransform="translate(-162.67 -372.2) rotate(-7.69)" xlink:href="#linear-gradient-5"/><linearGradient id="linear-gradient-8" x1="184.74" y1="491.4" x2="40.96" y2="555.54" gradientUnits="userSpaceOnUse"><stop offset="0" stop-color="#ff9f5b"/><stop offset="1" stop-color="#e5670e"/></linearGradient><linearGradient id="linear-gradient-9" x1="174.28" y1="536" x2="151.03" y2="536" xlink:href="#linear-gradient-8"/><linearGradient id="linear-gradient-10" x1="92.38" y1="245.08" x2="86.39" y2="260.94" xlink:href="#linear-gradient-6"/><linearGradient id="linear-gradient-11" x1="-566.54" y1="-1913.68" x2="-572.53" y2="-1897.82" gradientTransform="translate(-1779.19 884.03) rotate(90)" xlink:href="#linear-gradient-6"/><linearGradient id="linear-gradient-12" x1="-532.8" y1="-1900.93" x2="-538.79" y2="-1885.07" gradientTransform="translate(-1751.17 896.78) rotate(90)" xlink:href="#linear-gradient-6"/><linearGradient id="linear-gradient-13" x1="-16.1" y1="-994.82" x2="-22.1" y2="-978.96" gradientTransform="translate(-837.92 404.42) rotate(90)" xlink:href="#linear-gradient-6"/><linearGradient id="linear-gradient-14" x1="4.45" y1="281.71" x2="43.83" y2="432.36" xlink:href="#linear-gradient-5"/><linearGradient id="linear-gradient-15" x1="22.09" y1="277.1" x2="61.47" y2="427.75" xlink:href="#linear-gradient-6"/><linearGradient id="linear-gradient-16" x1="16.55" y1="255.91" x2="72.99" y2="471.85" xlink:href="#linear-gradient-6"/><linearGradient id="linear-gradient-17" x1="-294.78" y1="1455.51" x2="-299.4" y2="1467.74" gradientTransform="translate(348.74 -1104.71)" xlink:href="#linear-gradient-6"/><linearGradient id="linear-gradient-18" x1="-276.63" y1="1466.78" x2="-281.25" y2="1479.01" gradientTransform="translate(351.68 -1112.59)" xlink:href="#linear-gradient-6"/><linearGradient id="linear-gradient-19" x1="3.82" y1="-782.58" x2="-0.8" y2="-770.35" gradientTransform="translate(-694.24 399.41) rotate(90)" xlink:href="#linear-gradient-6"/><linearGradient id="linear-gradient-20" x1="9.69" y1="-772.79" x2="5.07" y2="-760.55" gradientTransform="translate(-682.72 404.83) rotate(90)" xlink:href="#linear-gradient-6"/><linearGradient id="linear-gradient-21" x1="29.85" y1="-772.75" x2="25.23" y2="-760.52" gradientTransform="translate(-660.56 407.25) rotate(90)" xlink:href="#linear-gradient-6"/><linearGradient id="linear-gradient-22" x1="128.64" y1="258.35" x2="124.02" y2="270.58" gradientTransform="translate(382.37 326.7) rotate(90)" xlink:href="#linear-gradient-6"/><linearGradient id="linear-gradient-23" x1="233.53" y1="358.34" x2="231.43" y2="350.9" gradientUnits="userSpaceOnUse"><stop offset="0" stop-color="#f8a695"/><stop offset="1" stop-color="#e56045"/></linearGradient><linearGradient id="linear-gradient-24" x1="216.27" y1="391.45" x2="249.06" y2="504.17" gradientTransform="matrix(1, 0, 0, 1, 0, 0)" xlink:href="#linear-gradient-3"/><linearGradient id="linear-gradient-25" x1="252.47" y1="396.2" x2="279.81" y2="490.16" xlink:href="#linear-gradient-6"/><linearGradient id="linear-gradient-26" x1="233.56" y1="371.17" x2="231.52" y2="363.93" gradientTransform="matrix(1, 0, 0, 1, 0, 0)" xlink:href="#linear-gradient-3"/><linearGradient id="linear-gradient-27" x1="242.9" y1="358.31" x2="219.61" y2="361.18" xlink:href="#linear-gradient-23"/><linearGradient id="linear-gradient-28" x1="207.85" y1="222.87" x2="257.96" y2="395.09" xlink:href="#linear-gradient-5"/><linearGradient id="linear-gradient-29" x1="-3272.93" y1="560.56" x2="-3299.46" y2="586.69" gradientTransform="matrix(-1, 0, 0, 1, -3142.81, 0)" xlink:href="#linear-gradient-3"/><linearGradient id="linear-gradient-30" x1="-3331.64" y1="463.45" x2="-3263.22" y2="402.92" gradientTransform="matrix(-1, 0, 0, 1, -3142.81, 0)" xlink:href="#linear-gradient-5"/><linearGradient id="linear-gradient-31" x1="-3371.82" y1="423.76" x2="-3304.79" y2="423.76" gradientTransform="matrix(-1, 0, 0, 1, -3142.81, 0)" xlink:href="#linear-gradient-3"/><linearGradient id="linear-gradient-32" x1="-3314.79" y1="576.79" x2="-3347.31" y2="576.19" gradientTransform="matrix(-1, 0, 0, 1, -3142.81, 0)" xlink:href="#linear-gradient-3"/><linearGradient id="linear-gradient-33" x1="-3339.67" y1="473.54" x2="-3235.53" y2="381.4" gradientTransform="matrix(-1, 0, 0, 1, -3142.81, 0)" xlink:href="#linear-gradient-6"/><linearGradient id="linear-gradient-34" x1="-3237.86" y1="502.3" x2="-3327.29" y2="429.22" gradientTransform="matrix(-1, 0, 0, 1, -3142.81, 0)" xlink:href="#linear-gradient-5"/><linearGradient id="linear-gradient-35" x1="-3338.08" y1="231.78" x2="-3304.87" y2="345.91" gradientTransform="matrix(-1, 0, 0, 1, -3142.81, 0)" xlink:href="#linear-gradient-6"/><linearGradient id="linear-gradient-36" x1="-3272.02" y1="231.46" x2="-3300.55" y2="229.06" gradientTransform="matrix(-1, 0, 0, 1, -3142.81, 0)" xlink:href="#linear-gradient-6"/><linearGradient id="linear-gradient-37" x1="-3340.75" y1="174.89" x2="-3319.82" y2="156.37" gradientTransform="matrix(-1, 0, 0, 1, -3142.81, 0)" gradientUnits="userSpaceOnUse"><stop offset="0" stop-color="#a7bde5"/><stop offset="1" stop-color="#2f66cb"/></linearGradient><linearGradient id="linear-gradient-38" x1="997.93" y1="1314.48" x2="616.34" y2="855.16" gradientTransform="matrix(1, 0, 0, 1, 0, 0)" xlink:href="#linear-gradient-3"/><linearGradient id="linear-gradient-39" x1="848.05" y1="1047.2" x2="603.94" y2="753.36" gradientTransform="matrix(1, 0, 0, 1, 0, 0)" xlink:href="#linear-gradient-3"/><linearGradient id="linear-gradient-40" x1="2985.9" y1="3530.63" x2="1376.44" y2="1593.32" xlink:href="#linear-gradient-5"/><linearGradient id="linear-gradient-41" x1="2648.58" y1="3118.52" x2="1257.61" y2="1444.2" gradientTransform="matrix(1, 0, 0, 1, 0, 0)" xlink:href="#linear-gradient-3"/><linearGradient id="linear-gradient-42" x1="3215.85" y1="3826.4" x2="1467.78" y2="1722.23" gradientTransform="matrix(1.01, -0.02, 0.02, 1.01, 17.59, -30.87)" xlink:href="#linear-gradient-6"/><linearGradient id="linear-gradient-43" x1="2381.46" y1="2751.55" x2="1190.55" y2="1318.06" xlink:href="#linear-gradient-5"/><linearGradient id="linear-gradient-44" x1="324.58" y1="44.19" x2="362.03" y2="64.69" gradientTransform="translate(-7.21 114.7) rotate(4.58)" xlink:href="#linear-gradient-23"/><linearGradient id="linear-gradient-45" x1="309.28" y1="119.05" x2="338.27" y2="122.69" gradientTransform="translate(-2.68 62.56) rotate(2.56)" xlink:href="#linear-gradient-23"/><linearGradient id="linear-gradient-46" x1="318.09" y1="130.91" x2="327.72" y2="131.83" gradientTransform="translate(-2.68 62.56) rotate(2.56)" gradientUnits="userSpaceOnUse"><stop offset="0" stop-color="#ffc063"/><stop offset="0.95" stop-color="#e44d0b"/></linearGradient><linearGradient id="linear-gradient-47" x1="507.99" y1="70.44" x2="383.38" y2="330.2" gradientTransform="translate(-2.68 62.56) rotate(2.56)" gradientUnits="userSpaceOnUse"><stop offset="0" stop-color="#ffc063"/><stop offset="1" stop-color="#e58f0f"/></linearGradient><linearGradient id="linear-gradient-48" x1="343.57" y1="187.16" x2="387.32" y2="194.95" xlink:href="#linear-gradient-46"/><linearGradient id="linear-gradient-49" x1="433.58" y1="290.03" x2="433.58" y2="275.71" gradientTransform="matrix(1, -0.05, 0.05, 1, -7.4, -94.8)" xlink:href="#linear-gradient-23"/><linearGradient id="linear-gradient-50" x1="430.44" y1="310.66" x2="427.88" y2="316.79" gradientTransform="translate(-25.41 -183.97) rotate(-4.37)" xlink:href="#linear-gradient-3"/><linearGradient id="linear-gradient-51" x1="428.62" y1="267.12" x2="446.37" y2="203.78" gradientTransform="matrix(1, -0.05, 0.05, 1, -7.4, -94.8)" xlink:href="#linear-gradient-23"/><linearGradient id="linear-gradient-52" x1="446.35" y1="308.15" x2="452.61" y2="371.33" gradientTransform="translate(-25.41 -183.97) rotate(-4.37)" xlink:href="#linear-gradient-3"/><linearGradient id="linear-gradient-53" x1="452.15" y1="154.34" x2="428.99" y2="133.91" gradientTransform="translate(4.23 -31.42) rotate(-1.38)" xlink:href="#linear-gradient-3"/><linearGradient id="linear-gradient-54" x1="345.84" y1="460.57" x2="349" y2="459.92" gradientTransform="translate(-11.81 -187.1) rotate(-7.76)" xlink:href="#linear-gradient-23"/><linearGradient id="linear-gradient-55" x1="314.92" y1="171.63" x2="337.79" y2="90.02" gradientTransform="matrix(1, 0.04, 0.24, 1.01, 18.75, 63.52)" xlink:href="#linear-gradient-6"/><linearGradient id="linear-gradient-56" x1="355.9" y1="156.93" x2="354.66" y2="159.48" gradientTransform="matrix(1, 0.04, 0.1, 1.01, 8.03, 63.04)" xlink:href="#linear-gradient-6"/><linearGradient id="linear-gradient-57" x1="357.21" y1="157.58" x2="355.97" y2="160.12" gradientTransform="matrix(1, 0.04, 0.1, 1.01, 8.03, 63.04)" xlink:href="#linear-gradient-6"/><linearGradient id="linear-gradient-58" x1="402.86" y1="143.57" x2="417.8" y2="147.05" gradientTransform="translate(-2.68 62.56) rotate(2.56)" xlink:href="#linear-gradient-23"/><linearGradient id="linear-gradient-59" x1="438.22" y1="116.17" x2="497.47" y2="172.52" xlink:href="#linear-gradient-46"/><linearGradient id="linear-gradient-60" x1="510.36" y1="71.57" x2="385.74" y2="331.34" xlink:href="#linear-gradient-47"/><linearGradient id="linear-gradient-61" x1="224.62" y1="108.87" x2="219.13" y2="104.98" gradientTransform="matrix(1, 0, 0, 1, 0, 0)" xlink:href="#linear-gradient-3"/><linearGradient id="linear-gradient-62" x1="-3302.29" y1="115.08" x2="-3302.29" y2="100.11" gradientTransform="matrix(-1, -0.05, -0.05, 1, -3102.7, -94.8)" xlink:href="#linear-gradient-23"/><linearGradient id="linear-gradient-63" x1="-3307.48" y1="91.13" x2="-3288.93" y2="24.94" gradientTransform="matrix(-1, -0.05, -0.05, 1, -3102.7, -94.8)" xlink:href="#linear-gradient-23"/><linearGradient id="linear-gradient-64" x1="199.45" y1="62.59" x2="193.72" y2="76.34" gradientTransform="matrix(1, 0, 0, 1, 0, 0)" xlink:href="#linear-gradient-3"/><linearGradient id="linear-gradient-65" x1="199.81" y1="134.59" x2="199.19" y2="136.09" gradientTransform="matrix(1, 0, 0, 1, 0, 0)" xlink:href="#linear-gradient-3"/><linearGradient id="linear-gradient-66" x1="-4558.14" y1="134.59" x2="-4558.76" y2="136.09" gradientTransform="matrix(-0.57, 0, 0, 1, -2390.22, 0)" xlink:href="#linear-gradient-3"/><linearGradient id="linear-gradient-67" x1="252.39" y1="233.76" x2="228.39" y2="231.74" gradientTransform="matrix(1, 0, 0, 1, 0, 0)" xlink:href="#linear-gradient-3"/><linearGradient id="linear-gradient-68" x1="238.95" y1="229.04" x2="225.14" y2="227.88" xlink:href="#linear-gradient-6"/><linearGradient id="linear-gradient-69" x1="78.77" y1="349.44" x2="101.16" y2="333.66" xlink:href="#linear-gradient-5"/><linearGradient id="linear-gradient-70" x1="-4070.09" y1="225.6" x2="-4073.9" y2="208.78" gradientTransform="matrix(-1, 0, 0, 1, -3774.43, 0)" xlink:href="#linear-gradient-6"/><linearGradient id="linear-gradient-71" x1="-4042.49" y1="239.06" x2="-4009.79" y2="223.9" gradientTransform="matrix(-1, 0, 0, 1, -3774.43, 0)" xlink:href="#linear-gradient-23"/><linearGradient id="linear-gradient-72" x1="180.75" y1="190.84" x2="213.96" y2="304.98" xlink:href="#linear-gradient-6"/><linearGradient id="linear-gradient-73" x1="-6484.8" y1="594.5" x2="-6004.2" y2="594.5" gradientTransform="matrix(-1, 0, 0, 1, -5992.49, 0)" xlink:href="#linear-gradient-3"/></defs><title>Asset 4</title><g id="Layer_2" data-name="Layer 2"><g id="Layer_1-2" data-name="Layer 1"><g id="_4" data-name="4"><path class="cls-1" d="M451,129.37C325.16,130.17,248.48,26.2,188.63,6.2c-89.91-30-208.51,47.7-132,262.73S172.72,538.67,310.47,557c110.23,14.68,207.3-69.46,246-136.61C616.94,315.36,576.79,128.58,451,129.37Z"/><path class="cls-2" d="M566.06,465c.19-11.07-12.77-16.49-20-8.41-17,19.1-52.55,52.3-82.25,69.35-41.67,23.92,10.18,68.9,46.52,62.44S565.52,484,566,465.54Q566.05,465.26,566.06,465Z"/><path class="cls-3" d="M73.47,380.35c-10.54,39.95-5.72,79.23,10.3,107.91,28.08-17.05,51.64-48.85,62.18-88.79s5.72-79.23-10.3-107.91C107.57,308.61,84,340.4,73.47,380.35Z"/><path class="cls-4" d="M115.4,378.75A483,483,0,0,0,99,435.48c-7.61,33.48-5.7,73.3-5.7,73.3"/><path class="cls-4" d="M71,367.25s4.57,38.41,10.21,68S90.68,504,90.68,504"/><path class="cls-4" d="M61.84,431.73S71,456.75,77.7,473s13,32.89,13,32.89"/><path class="cls-5" d="M98.8,228.26c-4.78,35-.63,67.29,9.69,89.11,15.81-18.25,28.47-48.24,33.25-83.24s.63-67.29-9.69-89.11C116.25,163.27,103.59,193.26,98.8,228.26Z"/><path class="cls-6" d="M67.86,282.87c1.44-32,3.58-89.89,4.8-123.6-22.24,27.53-36.5,69.7-36.5,117,0,46.8,13.94,88.53,35.73,116.07C69.48,360.05,66.55,312,67.86,282.87Z"/><path class="cls-7" d="M111.05,276.31c0-48-14.66-90.76-37.44-118.25-.32.39-.63.81-.95,1.21-1.22,33.71-3.36,91.56-4.8,123.6-1.31,29.17,1.62,77.19,4,109.51.57.72,1.13,1.48,1.71,2.18C96.39,367.07,111.05,324.34,111.05,276.31Z"/><path class="cls-8" d="M111.3,309.11c-8.63,28.8-7.52,57,1.2,77.63,18.6-12.39,35.07-35.37,43.7-64.17s7.52-57-1.2-77.63C136.4,257.33,119.93,280.32,111.3,309.11Z"/><polygon class="cls-9" points="132.11 589.42 49.67 589.42 37.43 482.58 144.35 482.58 132.11 589.42"/><polygon class="cls-10" points="37.43 482.58 49.67 589.42 81.21 589.42 72.08 482.58 37.43 482.58"/><rect class="cls-11" x="33.26" y="479.52" width="115.27" height="26.33"/><ellipse class="cls-12" cx="75.25" cy="290.44" rx="4.25" ry="7.57"/><ellipse class="cls-13" cx="85.05" cy="298.81" rx="7.57" ry="4.25" transform="translate(-186.38 147.66) rotate(-45)"/><ellipse class="cls-14" cx="83.67" cy="339.01" rx="10.39" ry="5.83" transform="translate(-215.21 158.46) rotate(-45)"/><ellipse class="cls-15" cx="81.28" cy="359.75" rx="10.39" ry="5.83" transform="translate(-279.15 281.56) rotate(-65.03)"/><path class="cls-16" d="M11.56,382.1c13.15,33.19,35,58.7,58.26,71.45C37.59,417.14,5,290.13,5,290.13-3.17,315.37-1.6,348.91,11.56,382.1Z"/><path class="cls-17" d="M63.3,361.59c-13.15-33.19-35-58.7-58.26-71.45,0,0,32.54,127,64.77,163.42C78,428.31,76.46,394.77,63.3,361.59Z"/><path class="cls-18" d="M63.3,361.59c-13.15-33.19-35-58.7-58.26-71.45,0,0,32.54,127,64.77,163.42C78,428.31,76.46,394.77,63.3,361.59Z"/><ellipse class="cls-19" cx="40.74" cy="385.79" rx="3.27" ry="5.84" transform="translate(-145.9 45.7) rotate(-22.73)"/><ellipse class="cls-20" cx="61.84" cy="389.17" rx="3.27" ry="5.84" transform="translate(-145.57 54.12) rotate(-22.73)"/><ellipse class="cls-21" cx="50.21" cy="388.82" rx="5.84" ry="3.27" transform="translate(-328.64 287.93) rotate(-67.73)"/><ellipse class="cls-22" cx="51.93" cy="400.11" rx="5.84" ry="3.27" transform="translate(-338.02 296.53) rotate(-67.73)"/><ellipse class="cls-23" cx="61.21" cy="417.83" rx="8.01" ry="4.49" transform="translate(-348.65 316.13) rotate(-67.73)"/><ellipse class="cls-24" cx="65.69" cy="433.3" rx="8.01" ry="4.49" transform="translate(-369.85 481.99) rotate(-87.76)"/><path class="cls-25" d="M237.14,342.32s4.2,6.11,4.84,9.16.13,5.09-1.4,8.14-2.29,7.51-6.36,7.38-10.05-5.09-10.05-5.09l6-14.41Z"/><polygon class="cls-26" points="258.66 374.65 190.72 374.65 190.72 466.19 260.19 466.19 258.66 374.65"/><path class="cls-27" d="M267.41,376.61v84.27s.43,5.89-7.22,5.27A12.2,12.2,0,0,1,250,458.71V380s-1.19-2.48,4.7-4.65S267.41,376.61,267.41,376.61Z"/><path class="cls-28" d="M243.88,375.92s.39-6.13-1.64-10.82-8-6.49-12.48-6l-8.81,1v3.69s9.83-1.27,13,.13,4.2,4.45,5.09,6.87,0,7.63,0,7.63Z"/><path class="cls-29" d="M227.47,353s1.15-.57,5-.29,6.24,1.48,7.16,4-.29,7.65-2.29,8.74-8.21,2.82-10.4,0-3.53-10.07-2.1-10.93S227.47,353,227.47,353Z"/><path class="cls-30" d="M224.86,180.88l-2.35,84.58L239,342.68a10.83,10.83,0,0,1-8.09,7.17l-6.67,1.64-28.79-70.6Z"/><path class="cls-31" d="M149.43,556.32l-6.48,6.28s6.78,12.57,8.08,13.86,10.57,2.29,12.37,3.89,3.89,8.61,3.89,8.61H145.64l-33.31-22.67,17.35-23.74Z"/><path class="cls-32" d="M229,359.83v93.54a13.73,13.73,0,0,1-2.81,8.32l-74.73,98.15a27.73,27.73,0,0,1-17.55-6.38l-8.51-6.92,65.71-100-10.8-99.47Z"/><path class="cls-33" d="M167.16,500c-2.42-.91-3.37-5.72-5.17-9.09l29.13-44.34-10.31-94.92,1.21-4.11,47,12.32v13.46C224.33,375,216.54,378,214.53,380c-2.93,2.93,0,65.16,0,70.48S171.39,501.56,167.16,500Z"/><path class="cls-34" d="M186.86,564.76l-1.11,4.65s19.47,8.51,24,10,6.66,4.12,6.94,6.25a10.29,10.29,0,0,1,0,3.32h-54.6l.83-25Z"/><path class="cls-35" d="M207.75,358.76S206.28,438,203.62,459.3,188.06,566,188.06,566s-13.7,1.86-20.08,1.33l-6.38-.53L157.34,454s-17-44.68-19.68-73.94,0-31.38,0-31.38Z"/><path class="cls-36" d="M137.66,380c-2.66-29.26,0-31.38,0-31.38l70.09,10.11s-.14,7.64-.42,18.81c-4.54,1.12-12.73,2.52-26.31,3-23.94.8-30.59-2.39-33.51-2.26s-.33,19.08,1,26.8,10.64,32.32,12.77,35.51,22.84,10.31,26,14.56-16.69,6.18-17.75,11,1.36,32,2.56,46.61-10.52,54-10.52,54L157.34,454S140.32,409.3,137.66,380Z"/><path class="cls-37" d="M172.56,165s-14.54.55-23.89,5.81-20.79,22.89-22,50.94,5.84,83.27,5.84,83.27l-5.11,53.4s25.27,17.31,54.48,16.14,49.15-9.93,49.15-9.93S229.92,197,225.94,184.1s-8.4-14.9-12.87-16.22-7.1-2-7.1-2Z"/><path class="cls-38" d="M172.56,165s-6.1,10.24-6.3,12.84,13.69,4.59,14.93,10-2.63,14,0,22.94S213,287.22,213,287.22L205,216l-13.83-34.31Z"/><polygon class="cls-39" points="205.97 165.91 209.69 178.18 197.21 172.36 184.71 179.28 172.56 165.03 181.19 164.06 205.97 165.91"/><path class="cls-40" d="M184.71,179.28s21.09,48.47,22,64c.25,4.44,6.28,44,6.28,44l-3.26-109-12.49-5.82Z"/><path class="cls-41" d="M415.7,562.72V589H352.89s-.45-7.9,2.56-10,35.7-12.18,35.7-12.18l4.22-6.33Z"/><path class="cls-42" d="M455.58,561.25v8.88s-17.75,7.58-20.35,11a13.29,13.29,0,0,0-2.38,7.79h27.06l20.57-10-5.41-22.3Z"/><path class="cls-43" d="M400.24,325.12,390.18,458.32V563.09s12,4.46,17.21,3.57l5.16-.89,4.64-1.34,1-97.2,43.18-132.33Z"/><path class="cls-44" d="M421.46,426.05c0,8.14-3.31,27.23-9.93,31s-11.58,8.47-9.16,14c2,4.58,3.5,5,4.77,14.93s-8.33,32.15-8.33,43.61c0,7.19,2.51,24.81,4.37,36.94a14.66,14.66,0,0,0,4.21.09l5.16-.89,4.64-1.34,1-97.2,43.18-132.33-15.58-2.49-23.3,8.64S421.46,417.91,421.46,426.05Z"/><path class="cls-45" d="M486.92,328.18s2.54,21.93.8,37-21.38,104.52-21.38,104.52l11.73,89.19s-10.24,5.26-17,5l-6.76-.27S433.79,478,432.57,467.5s-13.08-141.65-13.08-141.65Z"/><path class="cls-46" d="M478.17,558.9l-11.73-89.19s19.64-89.44,21.38-104.52c0-.39.09-.79.13-1.19-4.12,4-9.52,8.72-14,11.15-8.4,4.58-1.78,13.49,0,19.6s-7.5,60.06-12.53,66.17-15,5.09-12.66,14.76,12.1,7.89,12.66,13.74-4,32.32-1.47,42.25c1.54,6,7.59,19.9,12.1,29.88A63.56,63.56,0,0,0,478.17,558.9Z"/><path class="cls-47" d="M337.23,203.22s1.12-11.55-2.88-16.93-9.25-7.09-10.5-8.37-14.73-14.65-17.57-15.71c-1.07-.4-5-1.3-3,4.58s12.65,11.23,12.13,13-5.9,3.29-7.85,8.71-2.78,10.94,3.06,12.57,18,10.94,18,10.94Z"/><path class="cls-48" d="M328.74,207.74s-5.92-4.17-5.92-6.52,2.33-13.71,2.33-13.71-3.32,9.49-10,13.9c-.53.35-1,.65-1.53.93,6,2.92,14.17,9.15,14.84,9.66l.19-2.47Z"/><path class="cls-49" d="M405.6,177.55,376.52,232,339,194.63s-9.93,6.76-11.59,12.94l-1.65,6.18s43.41,42.78,49.47,46.48,40.67-20.73,40.67-20.73Z"/><path class="cls-50" d="M457.34,169.59s27.88,9.89,34.6,16.83-4,74.72-3.94,88,1.86,61,1.86,61-43.45,8.52-66.09,1.7c-23-6.91-28.06-8.9-28.06-8.9s-.76-85.33-.39-100.6,4.88-43.59,10.28-50,21.86-7.24,21.86-7.24Z"/><path class="cls-51" d="M417.72,244.33s17.94,21.13,31.56,31.06,14.24,26.78,10,36.37S417.78,320,407.4,323a53.13,53.13,0,0,0-11.61,5.16c.72.27,6.61,2.44,28,8.87,22.65,6.82,66.09-1.7,66.09-1.7s-1.84-47.7-1.86-61c0-4.24,1.08-14.07,2.35-25.7Z"/><path class="cls-40" d="M427.34,169.81l-6.54,1.28s-.63,4.69,4.78,9.42,12.35,4,19.62.46,12.13-11.38,12.13-11.38l-4.65-1.06Z"/><path class="cls-52" d="M423.28,152.3l4.18,18s2.77,3.36,10.37,3.27,14.86-5,14.86-5l-.22-18.44Z"/><path class="cls-53" d="M411.68,87.12s-1.06,25.91-1.15,35,11.15,11.1,11.15,11.1l16-17.54-7.89-26.86Z"/><path class="cls-54" d="M412.5,118c.78,10.18,1.8,22.48,6.33,33.14s25.79,12.5,32.67,3.78,9-22.45,9-22.45,7.32.34,9.08-5.17,1.13-13.66-2.31-15.18-6.61,2.3-6.61,2.3,1-10.57-6.68-17-36.24-3.51-37.8-2.11S411.73,107.82,412.5,118Z"/><path class="cls-55" d="M456.19,127.9s2.41-13.16,1.28-19-4.5-9.73-11.32-11.94-26.21.54-30.58-.62-6.92-3.18-5.61-11.81,13.41-21,31-19.61,26.13,9.1,32,14.28,2.67,19.77,1.39,32-5.13,28.9-8.61,34.79-11.46,4.77-11.46,4.77l6.07-19.38s3,1.23,6.23-2.82,4.45-11.1,2.43-14.45-7.43-2.41-9.05,2S456.19,127.9,456.19,127.9Z"/><path class="cls-56" d="M422.13,121.47s-2,13.07-1.49,16.3,8.83.66,8.83.66"/><path class="cls-57" d="M455.31,85.29c-9.24-3.33-36.68,5.55-40.7,1.81-1.24-1.16-2.26-3.93-3.07-7.2a15.42,15.42,0,0,0-1.6,4.65c-1.3,8.63,1.24,10.66,5.61,11.81s23.75-1.59,30.58.62,10.19,6,11.32,11.94-1.28,19-1.28,19S464.55,88.62,455.31,85.29Z"/><path class="cls-56" d="M461.51,119.76s2.43-1.73,3.31.49.84,4.35-1.95,5.79a2,2,0,0,1-2.57-.77"/><path class="cls-58" d="M416.09,223.12s-3.52-6.26-7-9-10.48-2.27-10.48-2.27l2.84,9.5Z"/><path class="cls-59" d="M408.29,251.77l-6.39-67.14a4,4,0,0,0-3.69-3.54L350.93,179a2.93,2.93,0,0,0-2,.64h0l-2.61,1.77,1.7,2.19,6.26,65.8a4,4,0,0,0,3.69,3.54l45.46,2,1,1.35,2.55-1.74.1-.07.1-.07h0A2.91,2.91,0,0,0,408.29,251.77Z"/><path class="cls-60" d="M402.44,256.92l-47.28-2.12a4,4,0,0,1-3.69-3.54l-6.39-67.14a2.86,2.86,0,0,1,3-3.24L395.41,183a4,4,0,0,1,3.69,3.54l6.39,67.14A2.86,2.86,0,0,1,402.44,256.92Z"/><path class="cls-61" d="M374,205.5a7,7,0,0,1-.41-2.07,4.9,4.9,0,0,0-2.35.23c-2.84,1-4.17,4.5-3,7.74s4.49,5,7.33,4a5.51,5.51,0,0,0,3.38-5.67A6.42,6.42,0,0,1,374,205.5Z"/><polygon class="cls-62" points="384.77 245.26 367.59 244.49 367.27 241.08 384.44 241.85 384.77 245.26"/><polygon class="cls-63" points="387.22 247.95 365.63 246.98 365.45 245.08 387.04 246.04 387.22 247.95"/><path class="cls-64" d="M421,226.87s-10.84-8.47-15.51-10.81-18.07-2.37-20.77-.93-2.49,9.76-1.56,12.68,11.26,7.66,17.43,9.5l18.6,5.52Z"/><path class="cls-65" d="M463.29,208.3s-3.06,20.54-6.2,22.44-20.71.38-20.71.38l25.81,25.74s17.9-.42,18.53-.85,2.35-28.63,2.35-28.63Z"/><path class="cls-66" d="M466.48,190.52s6-8.46,15.32-7.63c1.76.16,3.3.36,4.63.6a10,10,0,0,1,8.24,9.25c1,17.08,3.28,61.35,1.07,70.78q-.13.55-.29,1.09C492.06,276.14,478.34,281,468,274.81l-52.27-31.66s-3.26-10.86.69-15.35l3.95-4.49s41.6,20.6,45.52,21.29-7.13-28.42-4.92-39.1S466.48,190.52,466.48,190.52Z"/><path class="cls-67" d="M221.81,84.28s.6-1.1.7,12.77-7,28-7,28L211.43,85.4Z"/><path class="cls-68" d="M207.3,147l-4.37,18.82s-2.9,3.52-10.84,3.41-15.53-5.27-15.53-5.27l.23-19.28Z"/><path class="cls-69" d="M218.56,111.14c-.81,10.64-1.88,23.49-6.61,34.64s-27,13.06-34.15,3.95-9.45-23.46-9.45-23.46-7.65.35-9.49-5.41-1.18-14.27,2.42-15.87,6-.48,6-.48-.09-8.17,7.92-14.91,37.87-3.66,39.5-2.2S219.37,100.5,218.56,111.14Z"/><path class="cls-56" d="M208.5,114.76s2.08,13.66,1.55,17-9.23.69-9.23.69"/><path class="cls-56" d="M173.31,110.21s-2.54-1.8-3.46.51-.88,4.55,2,6.06a2.1,2.1,0,0,0,2.68-.8"/><path class="cls-70" d="M175.51,146.39s-8.33,1.29-10.92-1.13-9.58-27-10.57-37.92S157.64,80.51,160.4,76c6.18-10.07,23.54-12.77,37.1-8.78s28.92-5,28.92-5,1.41,7.82,0,14.56C224.63,85.4,221.64,89,217.65,90s-29.32-3.19-34.31.8-4.12,28.54-4.12,28.54-1.67-14.18-7.05-14-6.52,3.58-6.19,5.78c.54,3.63,4.35,12.74,7.37,12.37C179.73,122.72,175.51,146.39,175.51,146.39Z"/><path class="cls-71" d="M206.68,136.2s-6.32-2.13-9,.6-5.36,4.19-7.17,3.39l-1.81-.8s.07.8,3.72,2.66,10,1.86,12.63.33S206.68,136.2,206.68,136.2Z"/><path class="cls-72" d="M207.41,136.2s3.61-2.13,5.16.6,3.06,4.19,4.09,3.39l1-.8s0,.8-2.13,2.66-5.69,1.86-7.21.33S207.41,136.2,207.41,136.2Z"/><path class="cls-73" d="M197.2,180.19l.39,31.18h0c4.57,12.4,8.7,25.18,9.08,31.85.25,4.44,6.28,44,6.28,44l-2.84-76.57L199.58,179.8l2.26-5.28-4.64-2.16-6.48,3.59Z"/><path class="cls-74" d="M206,165.91S216,172,216.83,177.2s-3.12,7.55-3.12,9.5,6.12,4.17,7.16,10.8-7.9,89.71-7.9,89.71Z"/><path class="cls-40" d="M129,191.47"/><path class="cls-75" d="M159.9,352.95c-14.89-6.11-20.42-26.34-17.56-34.55s10.69-8.59,10.12-16.22-15.08-24.43-12.6-27.1,13.36,18.7,28.14,14.7,37-21.15,37-21.15l-37.06,5.12-33.11-86.31c-4.26,8.61-7.5,20.14-8.09,34.36-1.17,28,5.84,83.27,5.84,83.27l-5.11,53.4s25.27,17.31,54.48,16.14,49.15-9.93,49.15-9.93-.06-9.07-.21-23.15a86.69,86.69,0,0,0-8,5.55C217.35,351.67,174.79,359.06,159.9,352.95Z"/><path class="cls-76" d="M252.41,268.61s7.47-53.53,21.82-63.52,18.39,8.27,18.39,8.27h40.21s-4-18.27-18.39-8.27-21.82,63.52-21.82,63.52Z"/><path class="cls-40" d="M321,202.2h2.56c7,1.11,9.24,11.15,9.24,11.15H292.62s-2.23-10-9.24-11.15Z"/><path class="cls-40" d="M283.38,202.2h-2.56A8.6,8.6,0,0,1,283.38,202.2Z"/><path class="cls-40" d="M323.58,202.2H321A8.6,8.6,0,0,1,323.58,202.2Z"/><path class="cls-77" d="M241.55,229.79s7.65-6.55,14.67-6.62l7-.07-1.3,4s-1,1.77,4.75,2.4,8.56-3.09,12.13-1.19,3.73,5.87-1.51,11.42-12.53,8.49-21.89,7.85a18.59,18.59,0,0,1-13.88-7.93Z"/><path class="cls-78" d="M156.89,180.64a13.11,13.11,0,0,0-20,1.12c-2.12,2.8-6.15,12.29-5.87,19.35.32,8.08,23.29,76.6,30.11,82.2s88.77-36.42,88.77-36.42-2-12-5.09-15.29l-3.05-3.26L178,249.76S164.4,191,158.55,182.7A20,20,0,0,0,156.89,180.64Z"/><polygon class="cls-79" points="11.71 600 492.31 600 459.32 589 42.13 589 11.71 600"/></g></g></g></svg>