<svg xmlns="http://www.w3.org/2000/svg" xmlns:xlink="http://www.w3.org/1999/xlink" viewBox="0 0 595.36 600"><defs><style>.cls-1,.cls-2,.cls-3{opacity:0.49;}.cls-1{fill:url(#linear-gradient);}.cls-2{fill:url(#linear-gradient-2);}.cls-3{fill:url(#linear-gradient-3);}.cls-4{fill:url(#linear-gradient-4);}.cls-5{fill:url(#linear-gradient-5);}.cls-6{fill:url(#linear-gradient-6);}.cls-7{fill:url(#linear-gradient-7);}.cls-8{fill:none;stroke:#124;stroke-linecap:round;stroke-linejoin:round;}.cls-9{fill:url(#linear-gradient-8);}.cls-10{fill:url(#linear-gradient-9);}.cls-11{fill:url(#linear-gradient-10);}.cls-12{fill:url(#linear-gradient-11);}.cls-13{fill:url(#linear-gradient-12);}.cls-14{fill:url(#linear-gradient-13);}.cls-15{fill:#ffd46a;}.cls-16{fill:url(#linear-gradient-14);}.cls-17{fill:url(#linear-gradient-15);}.cls-18{fill:url(#linear-gradient-16);}.cls-19{fill:url(#linear-gradient-17);}.cls-20{fill:url(#linear-gradient-18);}.cls-21{fill:url(#linear-gradient-19);}.cls-22{fill:url(#linear-gradient-20);}.cls-23{fill:url(#linear-gradient-21);}.cls-24{fill:url(#linear-gradient-22);}.cls-25{fill:url(#linear-gradient-23);}.cls-26{fill:url(#linear-gradient-24);}.cls-27{fill:url(#linear-gradient-25);}.cls-28{fill:url(#linear-gradient-26);}.cls-29{fill:url(#linear-gradient-27);}.cls-30{fill:url(#linear-gradient-28);}.cls-31{fill:url(#linear-gradient-29);}.cls-32{fill:url(#linear-gradient-30);}.cls-33{fill:url(#linear-gradient-31);}.cls-34{fill:url(#linear-gradient-32);}.cls-35{fill:url(#linear-gradient-33);}.cls-36{fill:url(#linear-gradient-34);}.cls-37{fill:url(#linear-gradient-35);}.cls-38{fill:url(#linear-gradient-36);}.cls-39{fill:url(#linear-gradient-37);}.cls-40{fill:url(#linear-gradient-38);}.cls-41{fill:url(#linear-gradient-39);}.cls-42{fill:url(#linear-gradient-40);}.cls-43{fill:url(#linear-gradient-41);}.cls-44{fill:url(#linear-gradient-42);}.cls-45{fill:url(#linear-gradient-43);}.cls-46{fill:url(#linear-gradient-44);}.cls-47{fill:url(#linear-gradient-45);}.cls-48{fill:url(#linear-gradient-46);}.cls-49{fill:url(#linear-gradient-47);}.cls-50{fill:url(#linear-gradient-48);}.cls-51{fill:url(#linear-gradient-49);}.cls-52{fill:url(#linear-gradient-50);}.cls-53{fill:url(#linear-gradient-51);}.cls-54{fill:url(#linear-gradient-52);}.cls-55{fill:url(#linear-gradient-53);}.cls-56{fill:url(#linear-gradient-54);}.cls-57{fill:url(#linear-gradient-55);}.cls-58{fill:url(#linear-gradient-56);}.cls-59{fill:url(#linear-gradient-57);}.cls-60{fill:url(#linear-gradient-58);}.cls-61{fill:url(#linear-gradient-59);}.cls-62{fill:url(#linear-gradient-60);}.cls-63{fill:url(#linear-gradient-61);}.cls-64{fill:url(#linear-gradient-62);}.cls-65{fill:url(#linear-gradient-63);}.cls-66{fill:url(#linear-gradient-64);}.cls-67{fill:url(#linear-gradient-65);}.cls-68{fill:url(#linear-gradient-66);}.cls-69{fill:url(#linear-gradient-67);}.cls-70{fill:url(#linear-gradient-68);}.cls-71{fill:url(#linear-gradient-69);}.cls-72{fill:url(#linear-gradient-70);}.cls-73{fill:url(#linear-gradient-71);}.cls-74{fill:url(#linear-gradient-72);}.cls-75{fill:url(#linear-gradient-73);}.cls-76{fill:url(#linear-gradient-74);}.cls-77{fill:url(#linear-gradient-75);}.cls-78{fill:url(#linear-gradient-76);}.cls-79{fill:url(#linear-gradient-77);}.cls-80{opacity:0.31;fill:url(#linear-gradient-78);}.cls-81{fill:url(#linear-gradient-79);}.cls-82{fill:url(#linear-gradient-80);}.cls-83{fill:url(#linear-gradient-81);}.cls-84{fill:url(#linear-gradient-82);}.cls-85{fill:url(#linear-gradient-83);}.cls-86{fill:url(#linear-gradient-84);}.cls-87{fill:url(#linear-gradient-85);}.cls-88{fill:url(#linear-gradient-86);}.cls-89{fill:url(#linear-gradient-87);}.cls-90{fill:url(#linear-gradient-88);}.cls-91{fill:url(#linear-gradient-89);}.cls-92{fill:url(#linear-gradient-90);}.cls-93{fill:url(#linear-gradient-91);}.cls-94{fill:url(#linear-gradient-92);}.cls-95{fill:url(#linear-gradient-93);}.cls-96{fill:url(#linear-gradient-94);}.cls-97{fill:url(#linear-gradient-95);}.cls-98{fill:url(#linear-gradient-96);}</style><linearGradient id="linear-gradient" x1="-3178.6" y1="-514.72" x2="-3112.7" y2="-576.63" gradientTransform="matrix(-0.13, -0.97, 1.09, -0.14, -658.24, -3633.06)" gradientUnits="userSpaceOnUse"><stop offset="0" stop-color="#eaf1fc"/><stop offset="1" stop-color="#c0d4f4"/></linearGradient><linearGradient id="linear-gradient-2" x1="-3021.69" y1="-236.04" x2="-2955.79" y2="-297.95" gradientTransform="translate(-377.91 -3582.91) rotate(-90) scale(0.97 1)" xlink:href="#linear-gradient"/><linearGradient id="linear-gradient-3" x1="-2918.05" y1="-3573.67" x2="-2852.15" y2="-3635.58" gradientTransform="matrix(-0.94, 0.25, -0.26, -0.97, -3911.73, -1594.77)" xlink:href="#linear-gradient"/><linearGradient id="linear-gradient-4" x1="391.1" y1="281.63" x2="399.04" y2="276.82" gradientUnits="userSpaceOnUse"><stop offset="0" stop-color="#f8a695"/><stop offset="1" stop-color="#e56045"/></linearGradient><linearGradient id="linear-gradient-5" x1="1359.42" y1="1306.82" x2="811.83" y2="647.68" gradientUnits="userSpaceOnUse"><stop offset="0" stop-color="#ffc063"/><stop offset="0.95" stop-color="#e44d0b"/></linearGradient><linearGradient id="linear-gradient-6" x1="453.82" y1="539.82" x2="394.65" y2="539.82" gradientUnits="userSpaceOnUse"><stop offset="0" stop-color="#4c93f4"/><stop offset="1" stop-color="#0b63da"/></linearGradient><linearGradient id="linear-gradient-7" x1="-235.86" y1="-26.87" x2="-171.94" y2="-26.87" gradientTransform="matrix(1.15, 0.16, -0.1, 1, 381.12, 456.39)" gradientUnits="userSpaceOnUse"><stop offset="0" stop-color="#223762"/><stop offset="1" stop-color="#041b48"/></linearGradient><linearGradient id="linear-gradient-8" x1="201.13" y1="101.93" x2="147.69" y2="211.8" gradientTransform="matrix(1, -0.04, -0.04, 1.27, -6.51, 47.64)" xlink:href="#linear-gradient-7"/><linearGradient id="linear-gradient-9" x1="79.79" y1="289.23" x2="114.28" y2="289.23" gradientUnits="userSpaceOnUse"><stop offset="0" stop-color="#3769a5"/><stop offset="1" stop-color="#08448b"/></linearGradient><linearGradient id="linear-gradient-10" x1="146.42" y1="182.58" x2="83.49" y2="468.25" xlink:href="#linear-gradient-6"/><linearGradient id="linear-gradient-11" x1="64.49" y1="649.06" x2="-7.92" y2="773.92" gradientTransform="translate(48.92 -385.68) rotate(-7.69)" xlink:href="#linear-gradient-9"/><linearGradient id="linear-gradient-12" x1="220.17" y1="492.92" x2="84.33" y2="553.52" gradientUnits="userSpaceOnUse"><stop offset="0" stop-color="#ff9f5b"/><stop offset="1" stop-color="#e5670e"/></linearGradient><linearGradient id="linear-gradient-13" x1="210.29" y1="535.05" x2="188.32" y2="535.05" xlink:href="#linear-gradient-12"/><linearGradient id="linear-gradient-14" x1="132.91" y1="260.19" x2="127.25" y2="275.17" xlink:href="#linear-gradient-6"/><linearGradient id="linear-gradient-15" x1="588.8" y1="-2390.11" x2="583.14" y2="-2375.12" gradientTransform="translate(-2217.41 -260.2) rotate(90)" xlink:href="#linear-gradient-6"/><linearGradient id="linear-gradient-16" x1="620.68" y1="-2378.06" x2="615.02" y2="-2363.08" gradientTransform="translate(-2190.94 -248.16) rotate(90)" xlink:href="#linear-gradient-6"/><linearGradient id="linear-gradient-17" x1="690.86" y1="-1145.4" x2="685.2" y2="-1130.41" gradientTransform="translate(-951.53 -295.34) rotate(90)" xlink:href="#linear-gradient-6"/><linearGradient id="linear-gradient-18" x1="49.82" y1="294.79" x2="87.03" y2="437.13" xlink:href="#linear-gradient-9"/><linearGradient id="linear-gradient-19" x1="66.49" y1="290.43" x2="103.7" y2="432.77" xlink:href="#linear-gradient-6"/><linearGradient id="linear-gradient-20" x1="61.26" y1="270.42" x2="114.59" y2="474.44" xlink:href="#linear-gradient-6"/><linearGradient id="linear-gradient-21" x1="-868.37" y1="1356.1" x2="-872.74" y2="1367.66" gradientTransform="translate(964.98 -996.02)" xlink:href="#linear-gradient-6"/><linearGradient id="linear-gradient-22" x1="-851.23" y1="1366.75" x2="-855.59" y2="1378.31" gradientTransform="translate(967.76 -1003.48)" xlink:href="#linear-gradient-6"/><linearGradient id="linear-gradient-23" x1="644.59" y1="-905.81" x2="640.22" y2="-894.25" gradientTransform="translate(-776.71 -234.98) rotate(90)" xlink:href="#linear-gradient-6"/><linearGradient id="linear-gradient-24" x1="650.13" y1="-896.55" x2="645.77" y2="-885" gradientTransform="translate(-765.83 -229.86) rotate(90)" xlink:href="#linear-gradient-6"/><linearGradient id="linear-gradient-25" x1="669.18" y1="-896.52" x2="664.82" y2="-884.96" gradientTransform="translate(-744.89 -227.58) rotate(90)" xlink:href="#linear-gradient-6"/><linearGradient id="linear-gradient-26" x1="231.4" y1="263.65" x2="227.03" y2="275.21" gradientTransform="translate(426.45 227.45) rotate(90)" xlink:href="#linear-gradient-6"/><linearGradient id="linear-gradient-27" x1="453.82" y1="338.73" x2="394.65" y2="338.73" xlink:href="#linear-gradient-6"/><linearGradient id="linear-gradient-28" x1="240.52" y1="338.73" x2="183.85" y2="338.73" gradientTransform="matrix(1, 0, 0, 1, 0, 0)" xlink:href="#linear-gradient-7"/><linearGradient id="linear-gradient-29" x1="453.82" y1="416.92" x2="394.65" y2="416.92" xlink:href="#linear-gradient-6"/><linearGradient id="linear-gradient-30" x1="240.52" y1="416.92" x2="183.85" y2="416.92" gradientTransform="matrix(1, 0, 0, 1, 0, 0)" xlink:href="#linear-gradient-7"/><linearGradient id="linear-gradient-31" x1="240.52" y1="478.37" x2="183.85" y2="478.37" gradientTransform="matrix(1, 0, 0, 1, 0, 0)" xlink:href="#linear-gradient-7"/><linearGradient id="linear-gradient-32" x1="240.52" y1="539.82" x2="183.85" y2="539.82" gradientTransform="matrix(1, 0, 0, 1, 0, 0)" xlink:href="#linear-gradient-7"/><linearGradient id="linear-gradient-33" x1="373.49" y1="423.04" x2="358.02" y2="462.22" gradientTransform="matrix(1, 0, 0, 1, 0, 0)" xlink:href="#linear-gradient-7"/><linearGradient id="linear-gradient-34" x1="453.82" y1="478.37" x2="394.65" y2="478.37" xlink:href="#linear-gradient-6"/><linearGradient id="linear-gradient-35" x1="373.49" y1="484.49" x2="358.02" y2="523.67" gradientTransform="matrix(1, 0, 0, 1, 0, 0)" xlink:href="#linear-gradient-7"/><linearGradient id="linear-gradient-36" x1="373.49" y1="545.94" x2="358.02" y2="585.12" gradientTransform="matrix(1, 0, 0, 1, 0, 0)" xlink:href="#linear-gradient-7"/><linearGradient id="linear-gradient-37" x1="422.48" y1="294.17" x2="285.08" y2="355.09" xlink:href="#linear-gradient-5"/><linearGradient id="linear-gradient-38" x1="413.36" y1="314.03" x2="381.18" y2="328.3" gradientTransform="matrix(1, 0, 0, 1, 0, 0)" xlink:href="#linear-gradient-7"/><linearGradient id="linear-gradient-39" x1="103.29" y1="361.15" x2="129.83" y2="361.42" gradientTransform="matrix(1, 0, 0, 1, 0, 0)" xlink:href="#linear-gradient-7"/><linearGradient id="linear-gradient-40" x1="280.07" y1="578.04" x2="258.29" y2="578.04" gradientTransform="matrix(1, 0, 0, 1, 0, 0)" xlink:href="#linear-gradient-7"/><linearGradient id="linear-gradient-41" x1="283.81" y1="578.04" x2="262.03" y2="578.04" gradientTransform="matrix(1, 0, 0, 1, 0, 0)" xlink:href="#linear-gradient-7"/><linearGradient id="linear-gradient-42" x1="203.96" y1="578.04" x2="182.18" y2="578.04" gradientTransform="matrix(1, 0, 0, 1, 0, 0)" xlink:href="#linear-gradient-7"/><linearGradient id="linear-gradient-43" x1="207.7" y1="578.04" x2="185.92" y2="578.04" gradientTransform="matrix(1, 0, 0, 1, 0, 0)" xlink:href="#linear-gradient-7"/><linearGradient id="linear-gradient-44" x1="434.9" y1="578.04" x2="413.13" y2="578.04" gradientTransform="matrix(1, 0, 0, 1, 0, 0)" xlink:href="#linear-gradient-7"/><linearGradient id="linear-gradient-45" x1="438.65" y1="578.04" x2="416.87" y2="578.04" gradientTransform="matrix(1, 0, 0, 1, 0, 0)" xlink:href="#linear-gradient-7"/><linearGradient id="linear-gradient-46" x1="358.79" y1="578.04" x2="337.01" y2="578.04" gradientTransform="matrix(1, 0, 0, 1, 0, 0)" xlink:href="#linear-gradient-7"/><linearGradient id="linear-gradient-47" x1="362.54" y1="578.04" x2="340.76" y2="578.04" gradientTransform="matrix(1, 0, 0, 1, 0, 0)" xlink:href="#linear-gradient-7"/><linearGradient id="linear-gradient-48" x1="195.74" y1="287.81" x2="183.7" y2="287.81" gradientTransform="matrix(1, 0, 0, 1, 0, 0)" xlink:href="#linear-gradient-7"/><linearGradient id="linear-gradient-49" x1="406.72" y1="302.04" x2="380.26" y2="299.3" xlink:href="#linear-gradient-5"/><linearGradient id="linear-gradient-50" x1="-478.74" y1="910.37" x2="-629.77" y2="910.37" gradientTransform="translate(794.21 -648.28)" xlink:href="#linear-gradient-7"/><linearGradient id="linear-gradient-51" x1="-339.98" y1="978.64" x2="-491" y2="978.64" gradientTransform="translate(810.09 -716.55)" xlink:href="#linear-gradient-5"/><linearGradient id="linear-gradient-52" x1="538.72" y1="265.19" x2="134.81" y2="265.19" xlink:href="#linear-gradient-5"/><linearGradient id="linear-gradient-53" x1="502.09" y1="242.93" x2="227.67" y2="242.93" xlink:href="#linear-gradient-9"/><linearGradient id="linear-gradient-54" x1="265.37" y1="365.52" x2="129.84" y2="365.52" xlink:href="#linear-gradient-9"/><linearGradient id="linear-gradient-55" x1="290.44" y1="374.33" x2="216.5" y2="374.33" xlink:href="#linear-gradient-9"/><linearGradient id="linear-gradient-56" x1="328.78" y1="377.39" x2="119.31" y2="377.39" gradientTransform="matrix(1, 0, 0, 1, 0, 0)" xlink:href="#linear-gradient-7"/><linearGradient id="linear-gradient-57" x1="103.5" y1="428.63" x2="129.99" y2="428.9" gradientTransform="matrix(1, 0, 0, 1, 0, 0)" xlink:href="#linear-gradient-7"/><linearGradient id="linear-gradient-58" x1="265.37" y1="426.97" x2="129.84" y2="426.97" xlink:href="#linear-gradient-9"/><linearGradient id="linear-gradient-59" x1="290.44" y1="435.78" x2="216.5" y2="435.78" xlink:href="#linear-gradient-9"/><linearGradient id="linear-gradient-60" x1="328.78" y1="438.84" x2="119.31" y2="438.84" gradientTransform="matrix(1, 0, 0, 1, 0, 0)" xlink:href="#linear-gradient-7"/><linearGradient id="linear-gradient-61" x1="103.5" y1="490.08" x2="129.99" y2="490.35" gradientTransform="matrix(1, 0, 0, 1, 0, 0)" xlink:href="#linear-gradient-7"/><linearGradient id="linear-gradient-62" x1="265.37" y1="488.42" x2="129.84" y2="488.42" xlink:href="#linear-gradient-9"/><linearGradient id="linear-gradient-63" x1="290.44" y1="497.23" x2="216.5" y2="497.23" xlink:href="#linear-gradient-9"/><linearGradient id="linear-gradient-64" x1="328.78" y1="500.29" x2="119.31" y2="500.29" gradientTransform="matrix(1, 0, 0, 1, 0, 0)" xlink:href="#linear-gradient-7"/><linearGradient id="linear-gradient-65" x1="377.12" y1="304.3" x2="324.34" y2="304.3" gradientTransform="matrix(1, 0, 0, 1, 0, 0)" xlink:href="#linear-gradient-7"/><linearGradient id="linear-gradient-66" x1="384.9" y1="306.41" x2="366.85" y2="306.41" gradientTransform="matrix(1, 0, 0, 1, 0, 0)" xlink:href="#linear-gradient-7"/><linearGradient id="linear-gradient-67" x1="397" y1="306.41" x2="378.96" y2="306.41" gradientTransform="matrix(1, 0, 0, 1, 0, 0)" xlink:href="#linear-gradient-7"/><linearGradient id="linear-gradient-68" x1="384.9" y1="315.77" x2="366.85" y2="315.77" gradientTransform="matrix(1, 0, 0, 1, 0, 0)" xlink:href="#linear-gradient-7"/><linearGradient id="linear-gradient-69" x1="397" y1="315.77" x2="378.96" y2="315.77" gradientTransform="matrix(1, 0, 0, 1, 0, 0)" xlink:href="#linear-gradient-7"/><linearGradient id="linear-gradient-70" x1="359.44" y1="311.79" x2="327.28" y2="311.79" gradientTransform="matrix(1, 0, 0, 1, 0, 0)" xlink:href="#linear-gradient-7"/><linearGradient id="linear-gradient-71" x1="367.71" y1="319.28" x2="325.91" y2="319.28" gradientTransform="matrix(1, 0, 0, 1, 0, 0)" xlink:href="#linear-gradient-7"/><linearGradient id="linear-gradient-72" x1="372.04" y1="326.77" x2="325.19" y2="326.77" gradientTransform="matrix(1, 0, 0, 1, 0, 0)" xlink:href="#linear-gradient-7"/><linearGradient id="linear-gradient-73" x1="359.44" y1="334.26" x2="327.28" y2="334.26" gradientTransform="matrix(1, 0, 0, 1, 0, 0)" xlink:href="#linear-gradient-7"/><linearGradient id="linear-gradient-74" x1="181.42" y1="334.29" x2="188.72" y2="361.17" xlink:href="#linear-gradient-5"/><linearGradient id="linear-gradient-75" x1="349.81" y1="287.15" x2="362.42" y2="279.52" xlink:href="#linear-gradient-6"/><linearGradient id="linear-gradient-76" x1="181.42" y1="457.02" x2="188.72" y2="483.89" xlink:href="#linear-gradient-5"/><linearGradient id="linear-gradient-77" x1="-2151.45" y1="592.79" x2="-1622.7" y2="592.79" gradientTransform="translate(2218.06)" xlink:href="#linear-gradient-7"/><linearGradient id="linear-gradient-78" x1="597.98" y1="191.34" x2="184.21" y2="191.34" gradientUnits="userSpaceOnUse"><stop offset="0" stop-color="#fff" stop-opacity="0"/><stop offset="0.95" stop-color="#e44d0b"/></linearGradient><linearGradient id="linear-gradient-79" x1="378.61" y1="243.6" x2="401.82" y2="253.14" xlink:href="#linear-gradient-4"/><linearGradient id="linear-gradient-80" x1="569.23" y1="552.91" x2="565.12" y2="581.93" gradientTransform="matrix(1, 0, 0, 1, 0, 0)" xlink:href="#linear-gradient-7"/><linearGradient id="linear-gradient-81" x1="503.07" y1="557.54" x2="499.46" y2="583.02" gradientTransform="matrix(1, 0, 0, 1, 0, 0)" xlink:href="#linear-gradient-7"/><linearGradient id="linear-gradient-82" x1="565.66" y1="355.05" x2="541.98" y2="522.24" xlink:href="#linear-gradient-9"/><linearGradient id="linear-gradient-83" x1="553.78" y1="350.23" x2="534.75" y2="484.56" gradientTransform="matrix(1, 0, 0, 1, 0, 0)" xlink:href="#linear-gradient-7"/><linearGradient id="linear-gradient-84" x1="534.4" y1="338.26" x2="508.41" y2="521.78" xlink:href="#linear-gradient-6"/><linearGradient id="linear-gradient-85" x1="535.79" y1="328.78" x2="531.08" y2="362.07" xlink:href="#linear-gradient-9"/><linearGradient id="linear-gradient-86" x1="583.04" y1="64.86" x2="564.69" y2="194.42" gradientTransform="matrix(1, 0.06, -0.06, 1.01, -68.73, 92.8)" xlink:href="#linear-gradient-5"/><linearGradient id="linear-gradient-87" x1="-2908.35" y1="391.86" x2="-2916.59" y2="382.84" gradientTransform="matrix(-0.8, 0.13, 0.17, 0.99, -1906.06, 149.55)" xlink:href="#linear-gradient-4"/><linearGradient id="linear-gradient-88" x1="-2943.59" y1="449.99" x2="-2951.06" y2="409.37" gradientTransform="matrix(-0.99, 0.1, 0.09, 0.94, -2457.72, 31.99)" xlink:href="#linear-gradient-4"/><linearGradient id="linear-gradient-89" x1="-2918.07" y1="365.6" x2="-2898.02" y2="429.25" gradientTransform="matrix(-0.99, 0.14, 0.14, 0.99, -2416.83, 174.41)" xlink:href="#linear-gradient-7"/><linearGradient id="linear-gradient-90" x1="-2886.49" y1="350.65" x2="-2914.86" y2="392.6" gradientTransform="matrix(-0.99, 0.14, 0.14, 0.99, -2416.83, 174.41)" xlink:href="#linear-gradient-7"/><linearGradient id="linear-gradient-91" x1="440.79" y1="239.8" x2="485.72" y2="275.89" xlink:href="#linear-gradient-5"/><linearGradient id="linear-gradient-92" x1="504.22" y1="239.7" x2="504.22" y2="239.7" xlink:href="#linear-gradient-5"/><linearGradient id="linear-gradient-93" x1="655.48" y1="309.35" x2="549.14" y2="313.34" xlink:href="#linear-gradient-5"/><linearGradient id="linear-gradient-94" x1="530.88" y1="392.43" x2="511.59" y2="528.68" xlink:href="#linear-gradient-9"/><linearGradient id="linear-gradient-95" x1="-297.61" y1="685.39" x2="-267.89" y2="736.33" gradientTransform="translate(185.78 -363.88) rotate(-12.41)" xlink:href="#linear-gradient-5"/><linearGradient id="linear-gradient-96" x1="-234.58" y1="704.91" x2="-235.75" y2="710.96" gradientTransform="translate(185.78 -363.88) rotate(-12.41)" xlink:href="#linear-gradient-6"/></defs><title>Asset 14</title><g id="Layer_2" data-name="Layer 2"><g id="Layer_1-2" data-name="Layer 1"><g id="_14" data-name="14"><path class="cls-1" d="M130.95,454.72c.78-126-101.2-202.81-120.82-262.75-29.47-90,46.79-208.83,257.72-132.23S532.44,176,550.44,314c14.4,110.4-68.13,207.62-134,246.35C313.38,620.95,130.17,580.73,130.95,454.72Z"/><path class="cls-2" d="M460.16,570c-10.86.2-16.18-12.79-8.25-20,18.74-17.06,51.31-52.63,68-82.37,23.47-41.74,67.58,10.19,61.25,46.59S478.85,569.45,460.7,570Z"/><path class="cls-3" d="M447.72,102.33c3,10.43-8.12,19-17.15,13.2-21.36-13.63-64.21-35.76-97.3-44.12-46.42-11.73-7.84-67.9,29-71.3s80.09,84.33,85.34,101.71Z"/><path class="cls-4" d="M416.62,274s-16-8.08-26-5.66-17,3.42-18,5.66,1.92,2.58,1.92,2.58h20.73s-.19,1.16-4.18,2c-5.92,1.2-6.07,1-7.74,1.87-2,1,.14,3.48,3.31,3.89S400,282,404.3,283.26s11.07,2.87,11.07,2.87Z"/><path class="cls-5" d="M533,203.63,485.73,269l-73.85,3.54a10,10,0,0,0-1.87,7.61,24.45,24.45,0,0,0,2.62,7.66s67.43,5.59,78.46,3.46,68.79-67.49,68.79-67.49Z"/><path class="cls-6" d="M260.29,509.09H440.51a0,0,0,0,1,0,0v53.63a7.83,7.83,0,0,1-7.83,7.83H260.29a0,0,0,0,1,0,0V509.09A0,0,0,0,1,260.29,509.09Z"/><path class="cls-7" d="M115,388c-10,37.74-5.41,74.86,9.73,102,26.53-16.11,48.8-46.15,58.75-83.9s5.41-74.86-9.73-102C147.26,320.2,125,350.25,115,388Z"/><path class="cls-8" d="M150.55,375.61s-4.14,32.84-11.34,64.47-5.38,69.25-5.38,69.25"/><path class="cls-8" d="M112.71,375.61s4.32,36.29,9.65,64.26,8.94,64.93,8.94,64.93"/><path class="cls-8" d="M104.05,436.54s8.66,23.64,15,39,12.26,31.07,12.26,31.07"/><path class="cls-9" d="M140.42,242.85c-4.52,33.07-.6,63.58,9.16,84.2,14.93-17.24,26.9-45.58,31.42-78.65s.6-63.58-9.16-84.2C156.91,181.44,144.94,209.78,140.42,242.85Z"/><path class="cls-10" d="M109.74,295.89c1.36-30.28,3.38-84.93,4.53-116.78-21,26-34.49,65.85-34.49,110.59,0,44.22,13.17,83.64,33.76,109.67C111.27,368.81,108.5,323.45,109.74,295.89Z"/><path class="cls-11" d="M150.55,289.69c0-45.38-13.85-85.75-35.38-111.73-.3.37-.59.77-.89,1.14-1.15,31.86-3.17,86.5-4.53,116.78-1.24,27.57,1.53,72.93,3.81,103.47.54.68,1.06,1.4,1.62,2.06C136.7,375.45,150.55,335.07,150.55,289.69Z"/><path class="cls-12" d="M146.29,320.68c-8.16,27.21-7.11,53.9,1.13,73.35,17.58-11.71,33.14-33.42,41.29-60.63s7.11-53.9-1.13-73.35C170,271.76,154.44,293.48,146.29,320.68Z"/><polygon class="cls-13" points="170.45 585.52 92.55 585.52 80.99 484.58 182.01 484.58 170.45 585.52"/><polygon class="cls-14" points="80.99 484.58 92.55 585.52 122.36 585.52 113.73 484.58 80.99 484.58"/><rect class="cls-15" x="77.04" y="481.69" width="108.91" height="24.88"/><ellipse class="cls-16" cx="116.72" cy="303.04" rx="4.01" ry="7.15"/><ellipse class="cls-17" cx="125.98" cy="310.95" rx="7.15" ry="4.01" transform="translate(-182.97 180.16) rotate(-45)"/><ellipse class="cls-18" cx="124.68" cy="348.93" rx="9.82" ry="5.5" transform="translate(-210.21 190.36) rotate(-45)"/><ellipse class="cls-19" cx="122.42" cy="368.53" rx="9.82" ry="5.5" transform="translate(-263.34 323.92) rotate(-65.03)"/><path class="cls-20" d="M56.54,389.64C69,421,89.6,445.1,111.59,457.15c-30.45-34.4-61.2-154.4-61.2-154.4C42.63,326.59,44.12,358.28,56.54,389.64Z"/><path class="cls-21" d="M105.44,370.26c-12.43-31.36-33.05-55.46-55-67.51,0,0,30.75,120,61.2,154.4C119.35,433.31,117.86,401.62,105.44,370.26Z"/><path class="cls-22" d="M105.44,370.26c-12.43-31.36-33.05-55.46-55-67.51,0,0,30.75,120,61.2,154.4C119.35,433.31,117.86,401.62,105.44,370.26Z"/><ellipse class="cls-23" cx="84.12" cy="393.13" rx="3.09" ry="5.52" transform="translate(-145.37 63.03) rotate(-22.73)"/><ellipse class="cls-24" cx="104.05" cy="396.33" rx="3.09" ry="5.52" transform="translate(-145.05 70.98) rotate(-22.73)"/><ellipse class="cls-25" cx="93.06" cy="396" rx="5.52" ry="3.09" transform="translate(-308.66 332.04) rotate(-67.73)"/><ellipse class="cls-26" cx="94.69" cy="406.66" rx="5.52" ry="3.09" transform="translate(-317.53 340.17) rotate(-67.73)"/><ellipse class="cls-27" cx="103.46" cy="423.41" rx="7.57" ry="4.25" transform="translate(-327.57 358.69) rotate(-67.73)"/><ellipse class="cls-28" cx="107.69" cy="438.02" rx="7.57" ry="4.25" transform="matrix(0.04, -1, 1, 0.04, -334.21, 528.5)"/><path class="cls-29" d="M243,291.27H433.11a7.4,7.4,0,0,1,7.4,7.4v87.53a0,0,0,0,1,0,0H243a0,0,0,0,1,0,0V291.27A0,0,0,0,1,243,291.27Z"/><path class="cls-30" d="M181.36,291.27H281.74a8.16,8.16,0,0,1,8.16,8.16v86.77a0,0,0,0,1,0,0H173.19a0,0,0,0,1,0,0V299.43A8.16,8.16,0,0,1,181.36,291.27Z"/><rect class="cls-31" x="289.91" y="386.19" width="150.6" height="61.45"/><rect class="cls-32" x="173.19" y="386.19" width="116.71" height="61.45"/><rect class="cls-33" x="173.19" y="447.64" width="116.71" height="61.45"/><path class="cls-34" d="M173.19,509.09H289.91a0,0,0,0,1,0,0v55a6.41,6.41,0,0,1-6.41,6.41H181a7.83,7.83,0,0,1-7.83-7.83V509.09A0,0,0,0,1,173.19,509.09Z"/><path class="cls-35" d="M387,431.13H343.43c-4.78,0-8.65,5.67-8.65,12.67v3.85h60.86V443.8C395.64,436.8,391.76,431.13,387,431.13Z"/><rect class="cls-36" x="289.91" y="447.64" width="150.6" height="61.45"/><path class="cls-37" d="M387,492.58H343.43c-4.78,0-8.65,5.67-8.65,12.67v3.85h60.86v-3.85C395.64,498.25,391.76,492.58,387,492.58Z"/><path class="cls-38" d="M387,554H343.43c-4.78,0-8.65,5.67-8.65,12.67v3.85h60.86V566.7C395.64,559.7,391.76,554,387,554Z"/><rect class="cls-39" x="326.78" y="298.95" width="74.41" height="42.31"/><rect class="cls-40" x="398.13" y="298.95" width="3.07" height="42.31"/><rect class="cls-41" x="191.64" y="338.73" width="77.89" height="47.46"/><ellipse class="cls-42" cx="267.65" cy="578.04" rx="6.26" ry="7.49"/><ellipse class="cls-43" cx="271.39" cy="578.04" rx="6.26" ry="7.49"/><ellipse class="cls-44" cx="191.54" cy="578.04" rx="6.26" ry="7.49"/><ellipse class="cls-45" cx="195.28" cy="578.04" rx="6.26" ry="7.49"/><ellipse class="cls-46" cx="422.49" cy="578.04" rx="6.26" ry="7.49"/><ellipse class="cls-47" cx="426.23" cy="578.04" rx="6.26" ry="7.49"/><ellipse class="cls-48" cx="346.37" cy="578.04" rx="6.26" ry="7.49"/><ellipse class="cls-49" cx="350.12" cy="578.04" rx="6.26" ry="7.49"/><rect class="cls-50" x="185.42" y="284.35" width="6.92" height="6.92"/><rect class="cls-51" x="192.34" y="284.35" width="154.38" height="6.92"/><rect class="cls-52" x="185.95" y="258.63" width="86.79" height="6.92" transform="translate(-92.14 128.15) rotate(-26.19)"/><rect class="cls-53" x="340.6" y="258.63" width="86.79" height="6.92" transform="translate(-76.26 196.42) rotate(-26.19)"/><polygon class="cls-54" points="269.81 246.04 424.46 246.04 346.58 284.35 192.34 284.35 269.81 246.04"/><polygon class="cls-55" points="266.76 239.83 421.4 239.83 424.46 246.04 269.81 246.04 266.76 239.83"/><rect class="cls-56" x="149.14" y="362.46" width="77.89" height="6.12"/><polygon class="cls-57" points="227.03 362.46 269.52 379.81 269.52 386.19 227.03 368.58 227.03 362.46"/><polygon class="cls-58" points="149.14 368.58 227.03 368.58 269.52 386.19 196.6 386.19 191.64 386.19 149.14 368.58"/><rect class="cls-59" x="191.64" y="412.24" width="77.89" height="35.41"/><rect class="cls-60" x="149.14" y="423.91" width="77.89" height="6.12"/><polygon class="cls-61" points="227.03 423.91 269.52 441.26 269.52 447.64 227.03 430.03 227.03 423.91"/><polygon class="cls-62" points="149.14 430.03 227.03 430.03 269.52 447.64 196.6 447.64 191.64 447.64 149.14 430.03"/><rect class="cls-63" x="191.64" y="473.69" width="77.89" height="35.41"/><rect class="cls-64" x="149.14" y="485.36" width="77.89" height="6.12"/><polygon class="cls-65" points="227.03 485.36 269.52 502.72 269.52 509.1 227.03 491.48 227.03 485.36"/><polygon class="cls-66" points="149.14 491.48 227.03 491.48 269.52 509.1 196.6 509.1 191.64 509.1 149.14 491.48"/><rect class="cls-67" x="331.86" y="302.43" width="30.33" height="3.74"/><rect class="cls-68" x="369.42" y="302.43" width="10.37" height="7.96"/><rect class="cls-69" x="381.53" y="302.43" width="10.37" height="7.96"/><rect class="cls-70" x="369.42" y="311.79" width="10.37" height="7.96"/><rect class="cls-71" x="381.53" y="311.79" width="10.37" height="7.96"/><rect class="cls-72" x="331.86" y="309.92" width="18.48" height="3.74"/><rect class="cls-73" x="331.86" y="317.41" width="24.02" height="3.74"/><rect class="cls-74" x="331.86" y="324.89" width="26.92" height="3.74"/><rect class="cls-75" x="331.86" y="332.38" width="18.48" height="3.74"/><path class="cls-76" d="M216.06,361.79c-14.18-1.18-19.74-9.93-21.05-13.85a23.21,23.21,0,0,1-1.32-6.68H149.14a23.21,23.21,0,0,0,1.32,6.68c1.32,3.92,6.87,12.67,21.05,13.85s49.13.79,49.13.79S230.24,363,216.06,361.79Z"/><path class="cls-77" d="M385.35,278.46c-12.44.53-17.32,4.44-18.47,6.19a6,6,0,0,0-1.15,3H326.63a6,6,0,0,1,1.15-3c1.15-1.75,6-5.66,18.47-6.19s43.11-.35,43.11-.35S397.79,277.93,385.35,278.46Z"/><path class="cls-78" d="M216.06,484.51c-14.18-1.18-19.74-9.93-21.05-13.85a23.21,23.21,0,0,1-1.32-6.68H149.14a23.21,23.21,0,0,0,1.32,6.68c1.32,3.92,6.87,12.67,21.05,13.85s49.13.79,49.13.79S230.24,485.69,216.06,484.51Z"/><polygon class="cls-79" points="595.36 600 66.61 600 92.55 585.59 561.89 585.59 595.36 600"/><polygon class="cls-80" points="192.34 284.35 192.34 291.26 581.13 291.26 581.13 91.42 192.34 284.35"/><path class="cls-81" d="M388.1,257.86a24.36,24.36,0,0,1-11-4.68c-4.87-3.93-7.63-13.35-7.63-13.35h-8.28s-.67-2.37,2.85-5.18S375,230.9,379.79,233s8.23,12.36,12.11,15l3.88,2.62Z"/><path class="cls-82" d="M561.16,558.86l4,6.24-8,8.49s-9,1.16-11.23,4.45a13.46,13.46,0,0,0-2,7.49h18l25.21-11.44-9.24-22.72Z"/><path class="cls-83" d="M500.5,559.36l-1.75,11.19S482.52,575,478.53,578a6.59,6.59,0,0,0-2.25,7.49h46.43L519,557.36Z"/><path class="cls-84" d="M580.88,341.26S592,361.4,569.44,397c-10,15.75-29,46.71-29,46.71L580.88,554s-12.41,7.94-17.19,8.26l-4.78.32L511,457.15l5-57.79Z"/><path class="cls-85" d="M580.88,341.26,516,399.36l-5,57.79,26.5,58.3c2.23-4.38,4.57-11.64,3.4-21.75-2-17.72-9.43-41.44-8.84-50s13.29-23.1,17.63-28.91c17.72-23.72,27.59-55,27.59-55l6.31-2.27C584,346.92,580.88,341.26,580.88,341.26Z"/><path class="cls-86" d="M496.5,345.42s-10.31,82.22-13.39,94.78,13.39,120.4,13.39,120.4,1,2.86,13,1.68,13-3.68,13-3.68V444.78s31.39-45.75,42.38-74.2-1.15-45.68-1.15-45.68Z"/><path class="cls-87" d="M566.24,329.92,495.9,350.3c-.32,2.5-.74,5.84-1.25,9.79a45.72,45.72,0,0,0,21.35,7.3c13.29.91,38.81-3.3,51.63-5.64C571.31,346.84,568.63,335.85,566.24,329.92Z"/><path class="cls-88" d="M516.28,183.67S500.55,191.8,493.55,198s-39.74,72.79-39.74,72.79L393.6,245.39a18.41,18.41,0,0,0-5.39,6.54c-2.26,4.44-2.09,6.92-2.09,6.92s48.86,31,63.2,33.8,18.24.26,24.65-6.72,29.74-46.23,29.74-46.23-6.15,12.07-.27,30c3.81,11.61-12.5,77.19-12.5,77.19s5.61,10.92,31.77,14.13S589,346.22,589,346.22s-11-116.1-18.35-139.25S516.28,183.67,516.28,183.67Z"/><path class="cls-89" d="M481.57,132.74s-1.19,11.34-1.07,14.33,5.23,1.07,5.23,1.07Z"/><path class="cls-90" d="M480.7,130.95c-3.79-10.51,7.63-28.62,9.85-29.94s38.77-1.08,47.26,6.82,5.32,19.2,5.32,19.2-4.67-1.52-.61.55,9.69,9.33,9.51,14.45c-.22,6.46-12.38,4.5-12.38,4.5s-5.21,14.58-15.47,23.17c-.16.13-.34.26-.51.39l1.68,6.26a24.36,24.36,0,0,1-15.87,5.91c-10.14-.09-10.69-2.17-10.69-2.17l-1.48-12.44c-5.57-2.12-8.61.17-11.11-7C484.6,156.06,484.67,142,480.7,130.95Z"/><path class="cls-91" d="M476.94,118.32c5,8.35,12.11,7,12.18,11.25,1.51,97.26,57.65,68,70.74,55.81,5.08-4.74,7-25.16-6.25-44.69-13.53-20-2.55-24.2-11.89-38.91s-19.5-17.67-34.26-17.07C482.62,85.73,471.92,110,476.94,118.32Z"/><path class="cls-92" d="M506,177.75c6.78,5.28,16.15,5.14,22,2.41s10.6-10,5.25-25.37-3.08-36.4-6.5-45.06-14-17.24-28.91-18.47a32.24,32.24,0,0,0-10.23,1,34.69,34.69,0,0,1,19.95-7.05c15.08-.62,25.45,2.38,35,17.45s-1.67,19.33,12.16,39.78c13.51,20,11.59,40.84,6.39,45.69-11.53,10.76-55.13,34-68.12-23.3A94.58,94.58,0,0,0,506,177.75Z"/><path class="cls-93" d="M481,250.06c-9.77,10-20.18,35.95-33.91,37.74a41.65,41.65,0,0,1-10.43-.29c5.43,2.61,10.1,4.52,13.18,5.13,14.34,2.83,18.24.26,24.65-6.72s29.74-46.23,29.74-46.23S490.76,240.08,481,250.06Z"/><path class="cls-94" d="M504.22,239.7"/><path class="cls-95" d="M530.84,337.68c-3.5-11.48-15-18.47-9.27-27.77s23.24-21.66,18.5-25.57-14.48.41-24-2.83c-8.53-2.92-12.27-11.47-12.93-13.15.13.44.24.88.39,1.33,3.81,11.61-12.5,77.19-12.5,77.19s5.61,10.92,31.77,14.13h.1C527.94,353.16,532.65,343.6,530.84,337.68Z"/><path class="cls-96" d="M522.75,427c-12.23,7.07-24.21,4.07-25.21,10.32s10,6.24,13.48,12.48-3.25,26-4.24,44.93c-.81,15.37,8.45,52.43,12,65.94,3.33-1,3.74-2,3.74-2V444.78s23.17-33.77,36.66-61.34C548,399.18,530.68,422.38,522.75,427Z"/><path class="cls-97" d="M82,381C65.19,376.42,48.8,369.9,48.8,369.9L0,380.64s43.09,17.12,61.08,15.43l4.12-.91,44.67-9.83C103,386,92.41,383.87,82,381Z"/><path class="cls-98" d="M134.36,365l-48.8,10.74A43.77,43.77,0,0,1,82,381c10.43,2.86,21,5,27.9,4.32l4.12-.91a8.37,8.37,0,0,0,.79-.36C127.77,377.16,134.36,365,134.36,365Z"/></g></g></g></svg>