<svg xmlns="http://www.w3.org/2000/svg" xmlns:xlink="http://www.w3.org/1999/xlink" viewBox="0 0 600 550.69"><defs><style>.cls-1,.cls-2{opacity:0.49;}.cls-1{fill:url(#linear-gradient);}.cls-2{fill:url(#linear-gradient-2);}.cls-3,.cls-36{fill:#4c93f4;}.cls-3{opacity:0.1;}.cls-4{fill:url(#linear-gradient-3);}.cls-5{fill:url(#linear-gradient-4);}.cls-6{fill:url(#linear-gradient-5);}.cls-7{fill:url(#linear-gradient-6);}.cls-8{fill:url(#linear-gradient-7);}.cls-9{fill:url(#linear-gradient-8);}.cls-10{fill:url(#linear-gradient-9);}.cls-11{fill:url(#linear-gradient-10);}.cls-12{fill:url(#linear-gradient-11);}.cls-13{fill:url(#linear-gradient-12);}.cls-14{fill:url(#linear-gradient-13);}.cls-15{fill:url(#linear-gradient-14);}.cls-16{fill:url(#linear-gradient-15);}.cls-17{fill:url(#linear-gradient-16);}.cls-18{fill:url(#linear-gradient-17);}.cls-19{fill:url(#linear-gradient-18);}.cls-20{fill:url(#linear-gradient-19);}.cls-21{fill:url(#linear-gradient-20);}.cls-22{fill:url(#linear-gradient-21);}.cls-23{fill:url(#linear-gradient-22);}.cls-24{fill:url(#linear-gradient-23);}.cls-25{fill:url(#linear-gradient-24);}.cls-26{fill:url(#linear-gradient-25);}.cls-27{fill:url(#linear-gradient-26);}.cls-28{fill:url(#linear-gradient-27);}.cls-29{fill:#fff;}.cls-30{fill:url(#linear-gradient-28);}.cls-31{fill:url(#linear-gradient-29);}.cls-32{fill:url(#linear-gradient-30);}.cls-33{fill:url(#linear-gradient-31);}.cls-34{fill:#223762;}.cls-35{fill:url(#linear-gradient-32);}.cls-37{fill:#101f30;}.cls-38{fill:url(#linear-gradient-33);}.cls-39{fill:url(#linear-gradient-34);}.cls-40,.cls-72,.cls-80{fill:none;stroke-linecap:round;stroke-linejoin:round;}.cls-40,.cls-80{stroke:#124;}.cls-41{fill:url(#linear-gradient-35);}.cls-42{fill:url(#linear-gradient-36);}.cls-43{fill:url(#linear-gradient-37);}.cls-44{fill:url(#linear-gradient-38);}.cls-45{fill:url(#linear-gradient-39);}.cls-46{fill:url(#linear-gradient-40);}.cls-47{fill:#0c47cf;}.cls-48{fill:url(#linear-gradient-41);}.cls-49{fill:url(#linear-gradient-42);}.cls-50{fill:#232d73;opacity:0.48;}.cls-51{fill:url(#linear-gradient-43);}.cls-52{fill:url(#linear-gradient-44);}.cls-53{fill:url(#linear-gradient-45);}.cls-54{fill:url(#linear-gradient-46);}.cls-55{fill:url(#linear-gradient-47);}.cls-56{fill:url(#linear-gradient-48);}.cls-57{fill:#2b6fd6;}.cls-58{fill:url(#linear-gradient-49);}.cls-59{fill:url(#linear-gradient-50);}.cls-60{fill:url(#linear-gradient-51);}.cls-61{fill:url(#linear-gradient-52);}.cls-62{fill:url(#linear-gradient-53);}.cls-63{fill:url(#linear-gradient-54);}.cls-64{fill:url(#linear-gradient-55);}.cls-65{fill:url(#linear-gradient-56);}.cls-66{fill:url(#linear-gradient-57);}.cls-67{fill:url(#linear-gradient-58);}.cls-68{fill:url(#linear-gradient-59);}.cls-69{fill:url(#linear-gradient-60);}.cls-70{fill:url(#linear-gradient-61);}.cls-71{fill:#afcafa;}.cls-72{stroke:#eb6057;}.cls-73{fill:url(#linear-gradient-62);}.cls-74{fill:url(#linear-gradient-63);}.cls-75{fill:url(#linear-gradient-64);}.cls-76{fill:#7aa2ff;}.cls-77{fill:url(#linear-gradient-65);}.cls-78{fill:url(#linear-gradient-66);}.cls-79{fill:url(#linear-gradient-67);}.cls-80{stroke-width:0.5px;stroke-dasharray:3;}</style><linearGradient id="linear-gradient" x1="600.38" y1="365.4" x2="504.18" y2="482.62" gradientUnits="userSpaceOnUse"><stop offset="0" stop-color="#eaf1fc"/><stop offset="1" stop-color="#b0caf4"/></linearGradient><linearGradient id="linear-gradient-2" x1="558.11" y1="270.15" x2="-167.31" y2="480.85" gradientTransform="matrix(1, -0.13, 0.14, 1.09, -56.28, -22.35)" xlink:href="#linear-gradient"/><linearGradient id="linear-gradient-3" x1="321.7" y1="538.43" x2="339.35" y2="544.56" gradientUnits="userSpaceOnUse"><stop offset="0" stop-color="#223762"/><stop offset="1" stop-color="#041b48"/></linearGradient><linearGradient id="linear-gradient-4" x1="-1121.02" y1="538.43" x2="-1103.37" y2="544.56" gradientTransform="matrix(-1, 0, 0, 1, -741.33, 0)" xlink:href="#linear-gradient-3"/><linearGradient id="linear-gradient-5" x1="318.57" y1="496.18" x2="356.98" y2="461.92" xlink:href="#linear-gradient-3"/><linearGradient id="linear-gradient-6" x1="339.02" y1="434.59" x2="352.96" y2="422.15" xlink:href="#linear-gradient-3"/><linearGradient id="linear-gradient-7" x1="-1079.94" y1="485.63" x2="-1079.94" y2="320.68" gradientTransform="matrix(-1, 0, 0, 1, -870, 0)" gradientUnits="userSpaceOnUse"><stop offset="0" stop-color="#101f30"/><stop offset="1" stop-color="#052a57"/></linearGradient><linearGradient id="linear-gradient-8" x1="-1018.21" y1="485.63" x2="-1018.21" y2="320.68" xlink:href="#linear-gradient-7"/><linearGradient id="linear-gradient-9" x1="-1369.15" y1="401.66" x2="-1369.15" y2="351.29" xlink:href="#linear-gradient-7"/><linearGradient id="linear-gradient-10" x1="-1307.42" y1="401.66" x2="-1307.42" y2="351.29" xlink:href="#linear-gradient-7"/><linearGradient id="linear-gradient-11" x1="-1017.24" y1="476.32" x2="-1017.24" y2="354.24" gradientTransform="matrix(-1, 0, 0, 1, -870, 0)" gradientUnits="userSpaceOnUse"><stop offset="0" stop-color="#a7bde5"/><stop offset="1" stop-color="#2f66cb"/></linearGradient><linearGradient id="linear-gradient-12" x1="295.24" y1="569.27" x2="290.52" y2="552.69" xlink:href="#linear-gradient-3"/><linearGradient id="linear-gradient-13" x1="198.74" y1="569.27" x2="194.03" y2="552.69" xlink:href="#linear-gradient-3"/><linearGradient id="linear-gradient-14" x1="256.01" y1="424.45" x2="253.42" y2="415.34" xlink:href="#linear-gradient-3"/><linearGradient id="linear-gradient-15" x1="366.4" y1="418.68" x2="363.74" y2="409.3" xlink:href="#linear-gradient-3"/><linearGradient id="linear-gradient-16" x1="265.5" y1="324.78" x2="295.89" y2="298.31" gradientUnits="userSpaceOnUse"><stop offset="0" stop-color="#63b1ff"/><stop offset="0.95" stop-color="#083f9e"/></linearGradient><linearGradient id="linear-gradient-17" x1="185.71" y1="494.52" x2="256.53" y2="431.33" gradientTransform="matrix(1, 0, 0, 1, 0, 0)" xlink:href="#linear-gradient-7"/><linearGradient id="linear-gradient-18" x1="189.02" y1="492.28" x2="258.12" y2="430.63" xlink:href="#linear-gradient-3"/><linearGradient id="linear-gradient-19" x1="395.03" y1="218.69" x2="303.04" y2="504" gradientUnits="userSpaceOnUse"><stop offset="0" stop-color="#63b1ff"/><stop offset="1" stop-color="#0c58ba"/></linearGradient><linearGradient id="linear-gradient-20" x1="394.42" y1="218.55" x2="302.51" y2="503.64" xlink:href="#linear-gradient-16"/><linearGradient id="linear-gradient-21" x1="301.87" y1="322.06" x2="421.48" y2="322.06" xlink:href="#linear-gradient-16"/><linearGradient id="linear-gradient-22" x1="261.82" y1="476.78" x2="334.79" y2="411.68" gradientUnits="userSpaceOnUse"><stop offset="0" stop-color="#4c93f4"/><stop offset="1" stop-color="#0849a1"/></linearGradient><linearGradient id="linear-gradient-23" x1="407.56" y1="484.52" x2="404.62" y2="482.68" gradientTransform="matrix(1, 0, 0, 1, 0, 0)" xlink:href="#linear-gradient-7"/><linearGradient id="linear-gradient-24" x1="349.44" y1="337.97" x2="386.28" y2="324.36" gradientUnits="userSpaceOnUse"><stop offset="0" stop-color="#f8a695"/><stop offset="1" stop-color="#ff6b4d"/></linearGradient><linearGradient id="linear-gradient-25" x1="342.82" y1="425.38" x2="340.16" y2="416.01" xlink:href="#linear-gradient-3"/><linearGradient id="linear-gradient-26" x1="373.01" y1="261.11" x2="476.73" y2="370.34" xlink:href="#linear-gradient-16"/><linearGradient id="linear-gradient-27" x1="324.33" y1="487.96" x2="333.89" y2="472.89" gradientTransform="matrix(1, 0, 0, 1, 0, 0)" xlink:href="#linear-gradient-7"/><linearGradient id="linear-gradient-28" x1="356.83" y1="239.39" x2="356.83" y2="225.3" gradientTransform="translate(8.02 -8.53) rotate(-1.24)" xlink:href="#linear-gradient-24"/><linearGradient id="linear-gradient-29" x1="331.75" y1="180.4" x2="329.24" y2="186.43" gradientTransform="translate(19.82 -20.81) rotate(-2.99)" xlink:href="#linear-gradient-3"/><linearGradient id="linear-gradient-30" x1="351.95" y1="216.85" x2="369.41" y2="154.54" gradientTransform="translate(8.02 -8.53) rotate(-1.24)" xlink:href="#linear-gradient-24"/><linearGradient id="linear-gradient-31" x1="347.41" y1="177.93" x2="353.57" y2="240.09" gradientTransform="translate(19.82 -20.81) rotate(-2.99)" xlink:href="#linear-gradient-3"/><linearGradient id="linear-gradient-32" x1="342.77" y1="260.74" x2="284.69" y2="333.04" gradientTransform="translate(127.73)" xlink:href="#linear-gradient-22"/><linearGradient id="linear-gradient-33" x1="-955.51" y1="476.32" x2="-955.51" y2="354.24" xlink:href="#linear-gradient-11"/><linearGradient id="linear-gradient-34" x1="-956.73" y1="399.09" x2="-909.68" y2="399.09" gradientTransform="matrix(-1, 0, 0, 1, -870, 0)" xlink:href="#linear-gradient-3"/><linearGradient id="linear-gradient-35" x1="-893.75" y1="239.31" x2="-933.08" y2="320.18" gradientTransform="matrix(-1, 0, 0, 1, -870, 0)" xlink:href="#linear-gradient-3"/><linearGradient id="linear-gradient-36" x1="-972.84" y1="320.26" x2="-947.45" y2="320.26" xlink:href="#linear-gradient-7"/><linearGradient id="linear-gradient-37" x1="-923.8" y1="241.76" x2="-970.12" y2="452.03" gradientTransform="matrix(-1, 0, 0, 1, -870, 0)" xlink:href="#linear-gradient-22"/><linearGradient id="linear-gradient-38" x1="-872.35" y1="309.38" x2="-925.65" y2="401.28" xlink:href="#linear-gradient-7"/><linearGradient id="linear-gradient-39" x1="-869.51" y1="470.18" x2="-969.5" y2="514.78" gradientTransform="matrix(-1, 0, 0, 1, -870, 0)" gradientUnits="userSpaceOnUse"><stop offset="0" stop-color="#7aa2ff"/><stop offset="1" stop-color="#0e68e5"/></linearGradient><linearGradient id="linear-gradient-40" x1="-876.78" y1="501.19" x2="-892.95" y2="501.19" xlink:href="#linear-gradient-39"/><linearGradient id="linear-gradient-41" x1="-933.74" y1="298.88" x2="-937.91" y2="309.91" gradientTransform="matrix(-1, 0, 0, 1, -870, 0)" xlink:href="#linear-gradient-22"/><linearGradient id="linear-gradient-42" x1="54.12" y1="425.28" x2="49.95" y2="436.31" gradientTransform="matrix(-1, 0, 0, 1, 109.97, -123.42)" xlink:href="#linear-gradient-22"/><linearGradient id="linear-gradient-43" x1="77.58" y1="434.15" x2="73.42" y2="445.17" gradientTransform="matrix(-1, 0, 0, 1, 130.02, -115.91)" xlink:href="#linear-gradient-22"/><linearGradient id="linear-gradient-44" x1="-362" y1="482.54" x2="-366.16" y2="493.56" gradientTransform="matrix(-1, 0, 0, 1, -310.41, -156.5)" xlink:href="#linear-gradient-22"/><linearGradient id="linear-gradient-45" x1="-1265.73" y1="253.2" x2="-1287.53" y2="225.86" gradientTransform="matrix(-0.84, 0.54, 0.54, 0.84, -786.37, 728.65)" xlink:href="#linear-gradient-22"/><linearGradient id="linear-gradient-46" x1="397.87" y1="255.38" x2="402.1" y2="249.86" gradientTransform="translate(393.24 -231.42) rotate(57.49)" xlink:href="#linear-gradient-16"/><linearGradient id="linear-gradient-47" x1="-1268.2" y1="254.91" x2="-1289.89" y2="227.7" gradientTransform="matrix(-1, 0, 0, 1, -870, 0)" xlink:href="#linear-gradient-22"/><linearGradient id="linear-gradient-48" x1="-1045.1" y1="342.01" x2="-1552.89" y2="370.93" gradientTransform="matrix(1, 0, 0, -1, 1456.09, 697.45)" xlink:href="#linear-gradient-11"/><linearGradient id="linear-gradient-49" x1="-1308.43" y1="445.04" x2="-1308.43" y2="316.74" xlink:href="#linear-gradient-11"/><linearGradient id="linear-gradient-50" x1="-1246.7" y1="445.04" x2="-1246.7" y2="316.74" xlink:href="#linear-gradient-11"/><linearGradient id="linear-gradient-51" x1="279.29" y1="191.13" x2="178.32" y2="367.09" xlink:href="#linear-gradient-22"/><linearGradient id="linear-gradient-52" x1="-994.89" y1="324.35" x2="-967.51" y2="429.12" xlink:href="#linear-gradient-7"/><linearGradient id="linear-gradient-53" x1="-982.63" y1="321.14" x2="-955.24" y2="425.91" gradientTransform="matrix(-1, 0, 0, 1, -870, 0)" xlink:href="#linear-gradient-22"/><linearGradient id="linear-gradient-54" x1="-986.48" y1="306.41" x2="-947.22" y2="456.58" gradientTransform="matrix(-1, 0, 0, 1, -870, 0)" xlink:href="#linear-gradient-22"/><linearGradient id="linear-gradient-55" x1="-1349.54" y1="33.22" x2="-1352.75" y2="41.73" gradientTransform="matrix(0, -1, -1, 0, 157.21, -961.99)" xlink:href="#linear-gradient-22"/><linearGradient id="linear-gradient-56" x1="-1336.91" y1="41.06" x2="-1340.13" y2="49.57" gradientTransform="matrix(0, -1, -1, 0, 150.37, -947.02)" xlink:href="#linear-gradient-22"/><linearGradient id="linear-gradient-57" x1="-435.93" y1="532.44" x2="-439.14" y2="540.95" gradientTransform="matrix(-1, 0, 0, 1, -352.88, -160.12)" xlink:href="#linear-gradient-22"/><linearGradient id="linear-gradient-58" x1="-431.85" y1="539.26" x2="-435.06" y2="547.76" gradientTransform="matrix(-1, 0, 0, 1, -349.99, -159.08)" xlink:href="#linear-gradient-22"/><linearGradient id="linear-gradient-59" x1="-417.83" y1="539.28" x2="-421.04" y2="547.79" gradientTransform="matrix(-1, 0, 0, 1, -345.81, -155.72)" xlink:href="#linear-gradient-22"/><linearGradient id="linear-gradient-60" x1="-861.72" y1="412" x2="-864.93" y2="420.51" gradientTransform="matrix(-1, 0, 0, 1, -794.74, -22.79)" xlink:href="#linear-gradient-22"/><linearGradient id="linear-gradient-61" x1="-1440.4" y1="543.83" x2="-870" y2="543.83" gradientTransform="matrix(-1, 0, 0, 1, -870, 0)" xlink:href="#linear-gradient-3"/><linearGradient id="linear-gradient-62" x1="392.07" y1="161.49" x2="369.28" y2="141.39" xlink:href="#linear-gradient-3"/><linearGradient id="linear-gradient-63" x1="129.28" y1="146.19" x2="162.89" y2="146.19" xlink:href="#linear-gradient-3"/><linearGradient id="linear-gradient-64" x1="117.19" y1="153.54" x2="150.81" y2="153.54" xlink:href="#linear-gradient-22"/><linearGradient id="linear-gradient-65" x1="244.48" y1="97.71" x2="192.3" y2="147.35" xlink:href="#linear-gradient-22"/><linearGradient id="linear-gradient-66" x1="268.88" y1="153.54" x2="307.06" y2="153.54" xlink:href="#linear-gradient-3"/><linearGradient id="linear-gradient-67" x1="266.62" y1="153.54" x2="304.79" y2="153.54" xlink:href="#linear-gradient-22"/></defs><title>Asset 6</title><g id="Layer_2" data-name="Layer 2"><g id="Layer_1-2" data-name="Layer 1"><g id="_6" data-name="6"><path class="cls-1" d="M555.35,337.32s-30.06,71.73-40.26,89.87-25.59,45.23,4.52,61.37,38,15.39,56.06-9.07c14.6-19.76,12-130.95,3.76-143.17s-12.79-9.59-16.93-7.71S555.35,337.32,555.35,337.32Z"/><path class="cls-2" d="M166.32,127.51C296.57,128.3,376,25.82,437.91,6.11c93.08-29.61,215.86,47,136.68,259S454.39,530.94,311.77,549C197.66,563.5,97.17,480.57,57.13,414.38-5.51,310.83,36.06,126.73,166.32,127.51Z"/><path class="cls-3" d="M530.74,373.85V257.7H460.32V108.34l-35.87-29-37.71,30.49V257.7H298V139.45H266l-56.42,45.61H127.78v95.11H29.61C25.12,327,34,376.17,57.14,414.38A239.25,239.25,0,0,0,71,434.71H499.53C510,417.18,520.26,397,530.74,373.85Z"/><polygon class="cls-4" points="344.1 528.39 263.79 538.43 350.69 538.43 350.69 528.39 344.1 528.39"/><polygon class="cls-5" points="357.28 528.39 437.6 538.43 350.69 538.43 350.69 528.39 357.28 528.39"/><rect class="cls-6" x="344.1" y="406.69" width="13.15" height="121.7"/><rect class="cls-7" x="338.61" y="412.95" width="24.13" height="22.48"/><polygon class="cls-8" points="228.12 538.41 240.62 538.41 191.76 356.08 179.27 356.08 228.12 538.41"/><polygon class="cls-9" points="130.04 538.41 117.54 538.41 166.39 356.08 178.89 356.08 130.04 538.41"/><polygon class="cls-10" points="517.33 538.41 529.83 538.41 480.97 356.08 468.48 356.08 517.33 538.41"/><polygon class="cls-11" points="419.25 538.41 406.75 538.41 455.6 356.08 468.1 356.08 419.25 538.41"/><polygon class="cls-12" points="165.42 538.41 177.92 538.41 129.06 356.08 116.56 356.08 165.42 538.41"/><path class="cls-13" d="M315.47,518.84s2,8.95,2.08,12.38a25.45,25.45,0,0,1-1,7.2H260.57s-7.35.4-9.19-2.42,1-5.79,8.45-8.76c12.31-4.9,32.84-8.39,32.84-8.39l2.45-11.89Z"/><path class="cls-14" d="M219,518.84s2,8.95,2.08,12.38a25.45,25.45,0,0,1-1,7.2H164.07s-7.35.4-9.19-2.42,1-5.79,8.45-8.76c12.31-4.9,32.84-8.39,32.84-8.39l2.45-11.89Z"/><rect class="cls-15" x="235.64" y="395.98" width="28.15" height="12.63"/><path class="cls-16" d="M450.13,251H333.31c-2.84,0-5.15,2.77-5.17,6.21h0v.2A435.72,435.72,0,0,1,325,302.95a288.75,288.75,0,0,1-6.56,36.15c-3,11.74-7,22.54-11.88,30.56A72.39,72.39,0,0,1,285.08,392c-8.66,5.73-18.41,9.19-28.19,9.18a40.71,40.71,0,0,1-19.1-4.75c-2.61-1.37-5.64.09-6.77,3.25s.07,6.83,2.68,8.2a49.61,49.61,0,0,0,20.59,5.7l.15.08H371.52l52-31.36,17.06-29.27L451,274.17Z"/><path class="cls-17" d="M329.37,235.89l-55.32,81L213.64,329,217.05,345s67.54-.37,73.79-1.84,55.58-65.8,55.58-65.8Z"/><path class="cls-18" d="M288.88,365.18c-18,2.57-27.33,4.41-35.17,14.34s-59.11,131.6-59.11,131.6,7.3,6.21,16.42,7l9.12.75,64.7-111Z"/><path class="cls-19" d="M260,390.17c2,18-2.6,38.6-4.61,49.08s-36.75,43.38-44.47,60.84a93.94,93.94,0,0,0-5.78,16.77,25.55,25.55,0,0,0,5.85,1.23l9.12.75,64.7-111,4-42.64c-11,1.57-18.74,2.88-24.9,5.91A31.12,31.12,0,0,0,260,390.17Z"/><path class="cls-20" d="M388.13,218.08s20.75,6.15,30.46,17.81-12.32,148-12.32,148l-6.93-.79-97.47-11.13s13.08-123.26,23.56-133.56S353,221.54,353,221.54Z"/><path class="cls-21" d="M315.51,370.57a5.69,5.69,0,0,1,5.05,3.45l12.09,1.38a5.67,5.67,0,0,1,11.14,1.27L355.25,378c0-.18,0-.36,0-.55a5.7,5.7,0,1,1,11.12,1.82l12.2,1.39a5.64,5.64,0,0,1-.54-2.55,5.7,5.7,0,1,1,10.19,3.65l11.36,1.3,3.47.4a5.67,5.67,0,0,1,5.07-10c.53-3.45,1.16-7.65,1.86-12.41a5.69,5.69,0,1,1,1.29-8.88c5.86-41,14.25-108.28,7.56-116.32s-18.65-13.46-25.42-16.05a5.66,5.66,0,0,1-10.47-1.22l-12.73,1.25a5.64,5.64,0,0,1-8.37.82l-8.57.84s-17.12,6.52-27.6,16.82a6.3,6.3,0,0,0-.71.89,5.65,5.65,0,0,1-1.37,2.53,85.59,85.59,0,0,0-4.22,13.75,5.68,5.68,0,1,1-2.4,11c-.84,4.22-1.67,8.73-2.48,13.44a5.68,5.68,0,1,1-1.25,7.44c-6.21,38.21-11.13,84.49-11.13,84.49l8.68,1A5.69,5.69,0,0,1,315.51,370.57Zm95.16-135.69a5.7,5.7,0,1,1-5.86,5.53A5.7,5.7,0,0,1,410.67,234.87ZM410,258.11a5.7,5.7,0,1,1-5.86,5.53A5.7,5.7,0,0,1,410,258.11Zm-.68,23.23a5.7,5.7,0,1,1-5.86,5.53A5.7,5.7,0,0,1,409.32,281.34Zm-.68,23.23a5.7,5.7,0,1,1-5.86,5.53A5.7,5.7,0,0,1,408.64,304.57ZM408,327.81a5.7,5.7,0,1,1-5.86,5.53A5.7,5.7,0,0,1,408,327.81Zm-20.08-93.6a5.7,5.7,0,1,1-5.86,5.53A5.7,5.7,0,0,1,387.89,234.21Zm-.68,23.23a5.7,5.7,0,1,1-5.86,5.53A5.7,5.7,0,0,1,387.21,257.44Zm-.68,23.23a5.7,5.7,0,1,1-5.86,5.53A5.7,5.7,0,0,1,386.53,280.68Zm-.68,23.23a5.7,5.7,0,1,1-5.86,5.53A5.7,5.7,0,0,1,385.86,303.91Zm-.68,23.23a5.7,5.7,0,1,1-5.86,5.53A5.7,5.7,0,0,1,385.18,327.14Zm-.66,22.63a5.7,5.7,0,1,1-5.86,5.53A5.7,5.7,0,0,1,384.52,349.77ZM365.11,233.55a5.7,5.7,0,1,1-5.86,5.53A5.7,5.7,0,0,1,365.11,233.55Zm-.68,23.23a5.7,5.7,0,1,1-5.86,5.53A5.7,5.7,0,0,1,364.43,256.78ZM363.75,280a5.7,5.7,0,1,1-5.86,5.53A5.7,5.7,0,0,1,363.75,280Zm-.68,23.23a5.7,5.7,0,1,1-5.86,5.53A5.7,5.7,0,0,1,363.08,303.25Zm-.68,23.23a5.7,5.7,0,1,1-5.86,5.53A5.7,5.7,0,0,1,362.4,326.48Zm-.66,22.63a5.7,5.7,0,1,1-5.86,5.53A5.7,5.7,0,0,1,361.74,349.11ZM342.32,232.88a5.7,5.7,0,1,1-5.86,5.53A5.7,5.7,0,0,1,342.32,232.88Zm-.68,23.23a5.7,5.7,0,1,1-5.86,5.53A5.7,5.7,0,0,1,341.65,256.12ZM341,279.35a5.7,5.7,0,1,1-5.86,5.53A5.7,5.7,0,0,1,341,279.35Zm-.68,23.23a5.7,5.7,0,1,1-5.86,5.53A5.7,5.7,0,0,1,340.29,302.58Zm-.68,23.23a5.7,5.7,0,1,1-5.86,5.53A5.7,5.7,0,0,1,339.62,325.82ZM339,348.45A5.7,5.7,0,1,1,333.1,354,5.7,5.7,0,0,1,339,348.45Zm-21.45-46.53a5.7,5.7,0,1,1-5.86,5.53A5.7,5.7,0,0,1,317.51,301.92Zm-.68,23.23a5.7,5.7,0,1,1-5.86,5.53A5.7,5.7,0,0,1,316.84,325.15Zm-.66,22.63a5.7,5.7,0,1,1-5.86,5.53A5.7,5.7,0,0,1,316.18,347.78Z"/><path class="cls-22" d="M391.3,260.29s6.75,12.25,6.39,21.07c-1.69,41-93.76,72.33-93.76,72.33l-2.07,18.23,104.4,11.92,15.22-98.68Z"/><path class="cls-23" d="M403.85,383.56S319.39,346.61,285.64,363c-25.34,12.28,6.62,154.76,6.62,154.76s9.53,4.41,17.08,3.68l7.55-.74,5.44-124.54,50.92,11.14,28.12-10.66Z"/><path class="cls-24" d="M401.4,396.61l2.48-13a408,408,0,0,0-39-14.24c-1.42,3.48-3.38,7.36-5.55,9.14-4.4,3.62-45.2-3.62-56.42,0s-2.39,11.4,4,20.37-8.45,28.46-4,53.09l4.41,24.63,1.49,44.88.59,0,7.55-.74,5.44-124.54,50.92,11.14Z"/><path class="cls-25" d="M370.79,326a50.47,50.47,0,0,0-15.17-.55c-7.94,1-12.46,8.24-12.46,8.24s23.28,6.47,26.8,6.56,8.89-2.91,8.89-2.91Z"/><rect class="cls-26" x="322.27" y="395.98" width="28.15" height="13.22"/><path class="cls-27" d="M419.2,236.8s30.56,59.22,29.52,69-71.16,33.06-71.16,33.06-7.85-12.09-8.17-13.83c-.46-2.47,48.89-29.31,48.89-29.31s-26.1-25.6-27.94-39.09,10.6-22.91,18.42-22.91S419.2,236.8,419.2,236.8Z"/><path class="cls-28" d="M442.77,257.18v.2a435.74,435.74,0,0,1-3.13,45.57,288.75,288.75,0,0,1-6.56,36.15c-3,11.74-7,22.54-11.88,30.56A72.39,72.39,0,0,1,399.71,392c-8.66,5.73-18.41,9.19-28.19,9.18a40.71,40.71,0,0,1-19.1-4.75c-2.61-1.37-5.64.09-6.77,3.25s.07,6.83,2.68,8.2a49.5,49.5,0,0,0,23.19,5.78c11.78,0,23.15-4.12,33.12-10.7a83.5,83.5,0,0,0,24.84-25.92c6.1-10,10.46-22.45,13.74-35.49,4.9-19.55,7.33-40.53,8.57-56.7s1.28-27.52,1.28-27.66c0-3.44-2.29-6.25-5.13-6.26s-5.15,2.77-5.17,6.21Z"/><path class="cls-29" d="M358.72,218.08l-5.7,3.46s-1.6,1.75,3.61,6.52,12,4.23,19.29.92,12.2-10.9,12.2-10.9l-4.55-1.15Z"/><path class="cls-30" d="M355,200.27l3.69,17.81s2.65,3.37,10.12,3.46,14.73-4.61,14.73-4.61l.22-18.14Z"/><path class="cls-31" d="M345.17,135.88s-1.65,25.46-2,34.36,10.71,11.18,10.71,11.18l16.14-16.88-7.13-26.61Z"/><path class="cls-32" d="M345.25,166.28c.52,10,1.24,22.15,5.44,32.74s25.07,12.9,32,4.49,9.42-21.87,9.42-21.87,7.19.5,9.05-4.87,1.44-13.4-1.91-15-6.55,2.1-6.55,2.1S394,153.51,386.58,147s-35.56-4.31-37.12-3S344.73,156.24,345.25,166.28Z"/><path class="cls-33" d="M388,177s2.68-12.88,1.71-18.7-4.19-9.67-10.85-12S353,146.24,348.77,145s-6.73-3.29-5.24-11.75,13.69-20.33,31-18.55,25.48,9.57,31.15,14.8,2.16,19.5.61,31.49-5.73,28.3-9.29,34-11.38,4.42-11.38,4.42L392,180.52s2.87,1.28,6.19-2.63,4.64-10.82,2.73-14.15-7.25-2.55-9,1.74S388,177,388,177Z"/><polygon class="cls-34" points="449.14 341.37 396 341.37 410.86 270.2 464 270.2 449.14 341.37"/><polygon class="cls-35" points="453.8 341.37 399.69 341.37 414.82 270.2 468.93 270.2 453.8 341.37"/><polygon class="cls-34" points="441.41 292.32 459.4 341.37 430.99 341.37 438.56 292.32 441.41 292.32"/><polygon class="cls-36" points="438.56 292.32 456.55 341.37 428.14 341.37 438.56 292.32"/><polygon class="cls-37" points="346.42 336.32 372.1 341.3 360.44 341.37 346.42 341.37 346.42 336.32"/><polygon class="cls-36" points="346.9 336.91 371.9 341.3 371.9 337.74 346.9 333.35 346.9 336.91"/><path class="cls-34" d="M264.13,333.35c-1.62,0-2.93,1.8-2.93,4s1.31,4,2.93,4H347v-8Z"/><polygon class="cls-38" points="67.33 538.41 54.84 538.41 103.69 356.08 116.19 356.08 67.33 538.41"/><path class="cls-39" d="M85.39,396c4,28.45-1.14,55-12.35,73.16-15.78-14.39-28-38.49-32-66.94s1.14-55,12.35-73.16C69.16,343.43,81.4,367.52,85.39,396Z"/><path class="cls-40" d="M49.45,391.43a335.92,335.92,0,0,1,11.37,39.46c5.3,23.28,4,51,4,51"/><path class="cls-40" d="M78.61,383.84s-3.18,26.71-7.1,47.3-6.58,47.79-6.58,47.79"/><path class="cls-40" d="M85,428.69s-6.37,17.4-11,28.67-9,22.87-9,22.87"/><path class="cls-41" d="M60,281c2.62,19.15-.9,37-8.49,49.2-10.59-9.72-18.76-26-21.38-45.12s.9-37,8.49-49.2C49.16,245.61,57.34,261.85,60,281Z"/><path class="cls-42" d="M80.79,325.16c-1-22.29-2.49-62.51-3.34-86,15.46,19.14,25.38,48.47,25.38,81.4,0,32.55-9.7,61.57-24.85,80.72C79.67,378.84,81.7,345.45,80.79,325.16Z"/><path class="cls-43" d="M50.76,320.6c0-33.4,10.19-63.12,26-82.24.22.27.44.56.66.84.85,23.45,2.34,63.67,3.34,86,.91,20.29-1.12,53.68-2.81,76.16-.4.5-.78,1-1.19,1.52C61,383.72,50.76,354,50.76,320.6Z"/><path class="cls-44" d="M48.41,356.47c8.63,19,10.5,38.62,6.4,53.61-14-6.81-27.46-21.11-36.09-40.16s-10.5-38.62-6.4-53.61C26.29,323.12,39.78,337.43,48.41,356.47Z"/><polygon class="cls-45" points="36.11 538.35 93.44 538.35 101.95 464.04 27.6 464.04 36.11 538.35"/><polygon class="cls-46" points="101.95 464.04 93.44 538.35 71.51 538.35 77.86 464.04 101.95 464.04"/><rect class="cls-47" x="24.69" y="461.92" width="80.16" height="18.31" transform="translate(129.55 942.15) rotate(-180)"/><rect class="cls-34" x="466.27" y="164.27" width="4.04" height="78.6" rx="1.34" ry="1.34" transform="translate(585.32 -293.46) rotate(79.76)"/><ellipse class="cls-48" cx="75.66" cy="330.42" rx="2.95" ry="5.27"/><ellipse class="cls-49" cx="68.84" cy="336.24" rx="2.95" ry="5.27" transform="translate(-217.6 147.16) rotate(-45)"/><circle class="cls-50" cx="407.57" cy="242.73" r="11.56" transform="translate(-16.16 456) rotate(-57.49)"/><ellipse class="cls-51" cx="69.8" cy="364.2" rx="4.05" ry="7.23" transform="translate(-237.09 156.03) rotate(-45)"/><ellipse class="cls-52" cx="71.46" cy="378.63" rx="4.05" ry="7.23" transform="translate(-153.17 65.56) rotate(-24.97)"/><rect class="cls-34" x="464.82" y="156.26" width="4.04" height="78.6" rx="1.34" ry="1.34" transform="translate(576.25 -298.62) rotate(79.76)"/><rect class="cls-34" x="481.22" y="189.14" width="4.04" height="158.33" rx="1.34" ry="1.34" transform="translate(908.5 621.38) rotate(-169.34)"/><rect class="cls-53" x="414.65" y="193.31" width="13.66" height="55.18" rx="2.97" ry="2.97" transform="translate(184.74 -191.9) rotate(32.51)"/><circle class="cls-54" cx="407.57" cy="242.73" r="8.23" transform="translate(-16.16 456) rotate(-57.49)"/><path class="cls-55" d="M423.88,217.13c-11.38-7.25-28.82-.25-38.95,15.65L426.15,259C436.28,243.15,435.26,224.39,423.88,217.13Z"/><path class="cls-34" d="M384.92,232.78,396,239.84c7.41-11.62,17.06-20,26.09-23.69C410.73,210.62,394.54,217.69,384.92,232.78Z"/><rect class="cls-34" x="489.22" y="190.64" width="4.04" height="158.33" rx="1.34" ry="1.34" transform="translate(924.09 625.84) rotate(-169.34)"/><circle class="cls-34" cx="498.63" cy="193.6" r="9.86"/><circle class="cls-36" cx="500.47" cy="193.6" r="9.86"/><circle class="cls-34" cx="500.47" cy="193.6" r="4.94"/><rect class="cls-56" x="54.84" y="341.37" width="476.42" height="14.7" transform="translate(586.09 697.45) rotate(-180)"/><rect class="cls-37" x="443.59" y="341.37" width="87.66" height="14.7" transform="translate(974.84 697.45) rotate(-180)"/><rect class="cls-57" x="54.84" y="351.3" width="476.42" height="4.78" transform="translate(586.09 707.38) rotate(-180)"/><rect class="cls-34" x="444.01" y="351.3" width="87.25" height="4.78" transform="translate(975.26 707.38) rotate(-180)"/><polygon class="cls-58" points="456.61 538.41 469.11 538.41 420.25 356.08 407.75 356.08 456.61 538.41"/><polygon class="cls-59" points="358.52 538.41 346.02 538.41 394.88 356.08 407.38 356.08 358.52 538.41"/><path class="cls-37" d="M218.9,337.76h69.64a0,0,0,0,1,0,0v3.62a0,0,0,0,1,0,0H221.31a2.4,2.4,0,0,1-2.4-2.4v-1.21A0,0,0,0,1,218.9,337.76Z" transform="translate(507.45 679.13) rotate(-180)"/><path class="cls-34" d="M170,314.49H332.48a5.16,5.16,0,0,0,5.22-5.72l-9.13-104.31a6.37,6.37,0,0,0-6.22-5.72H159.89a5.16,5.16,0,0,0-5.22,5.72l9.13,104.31A6.37,6.37,0,0,0,170,314.49Z"/><path class="cls-60" d="M165.54,314.49H328a5.16,5.16,0,0,0,5.22-5.72l-9.13-104.31a6.37,6.37,0,0,0-6.22-5.72H155.42a5.16,5.16,0,0,0-5.22,5.72l9.13,104.31A6.37,6.37,0,0,0,165.54,314.49Z"/><path class="cls-36" d="M170.45,341.37a1.35,1.35,0,0,1-1.12-2.11,20.44,20.44,0,0,1,33.25,0,1.35,1.35,0,0,1-1.12,2.11Z"/><path class="cls-34" d="M188.39,338.21a28.1,28.1,0,0,0-5-7.34,20.63,20.63,0,0,1,2.54-.16,20.41,20.41,0,0,1,16.63,8.55,1.35,1.35,0,0,1-1.12,2.11h-14.2C188.36,341.37,189,339.53,188.39,338.21Z"/><path class="cls-61" d="M119.95,394.16C110.8,417.24,95.62,435,79.43,443.86c22.41-25.32,45-113.65,45-113.65C130.19,347.76,129.1,371.08,119.95,394.16Z"/><path class="cls-62" d="M84,379.9c9.15-23.08,24.33-40.82,40.52-49.69,0,0-22.63,88.33-45,113.65C73.72,426.31,74.81,403,84,379.9Z"/><path class="cls-63" d="M84,379.9c9.15-23.08,24.33-40.82,40.52-49.69,0,0-22.63,88.33-45,113.65C73.72,426.31,74.81,403,84,379.9Z"/><ellipse class="cls-64" cx="99.65" cy="396.73" rx="4.06" ry="2.28" transform="translate(-304.77 335.35) rotate(-67.27)"/><ellipse class="cls-65" cx="84.98" cy="399.09" rx="4.06" ry="2.28" transform="translate(-315.95 323.27) rotate(-67.27)"/><ellipse class="cls-66" cx="93.07" cy="398.84" rx="2.28" ry="4.06" transform="translate(-144.21 65.02) rotate(-22.27)"/><ellipse class="cls-67" cx="91.87" cy="406.69" rx="2.28" ry="4.06" transform="translate(-147.27 65.15) rotate(-22.27)"/><ellipse class="cls-68" cx="85.42" cy="419.02" rx="3.13" ry="5.57" transform="translate(-152.43 63.63) rotate(-22.27)"/><ellipse class="cls-69" cx="82.3" cy="429.78" rx="3.13" ry="5.57" transform="translate(-16.75 3.55) rotate(-2.24)"/><polygon class="cls-70" points="0 549.25 570.4 549.25 531.25 538.41 36.11 538.41 0 549.25"/><polygon class="cls-37" points="236.98 341.37 196.66 341.37 227.17 250.04 255.41 250.04 236.98 341.37"/><polygon class="cls-34" points="233.81 341.37 193.49 341.37 224 250.04 252.24 250.04 233.81 341.37"/><path class="cls-71" d="M239.31,225.94a10.08,10.08,0,0,1-.38-2.87,6,6,0,0,0-3,.34c-3.74,1.46-5.7,6.29-4.38,10.79s5.42,7,9.17,5.49c2.94-1.15,4.76-4.39,4.76-7.91A7.81,7.81,0,0,1,239.31,225.94Z"/><path class="cls-72" d="M354.64,169.91s-2.26,12.81-1.85,16,8.67.86,8.67.86"/><path class="cls-73" d="M388.13,135.11c-9-3.49-36.21,4.6-40.07.82-1.2-1.17-2.13-3.92-2.84-7.16a15.17,15.17,0,0,0-1.69,4.53c-1.49,8.46,1,10.51,5.24,11.75s23.4-1,30.06,1.33,9.88,6.19,10.85,12-1.71,18.7-1.71,18.7S397.14,138.6,388.13,135.11Z"/><ellipse class="cls-36" cx="347.03" cy="337.36" rx="2.93" ry="4.01"/><polygon class="cls-74" points="148.76 121.23 129.28 121.23 129.28 171.16 162.89 171.16 162.89 135.73 148.76 121.23"/><polygon class="cls-75" points="136.68 128.58 117.19 128.58 117.19 178.51 150.81 178.51 150.81 143.08 136.68 128.58"/><ellipse class="cls-76" cx="195" cy="105.84" rx="8.23" ry="8.88"/><ellipse class="cls-47" cx="193.8" cy="105.84" rx="8.23" ry="8.88"/><rect class="cls-34" x="194.47" y="105.78" width="47.24" height="36.76" rx="1.97" ry="1.97"/><rect class="cls-77" x="193.06" y="105.78" width="47.24" height="36.76" rx="1.97" ry="1.97"/><path class="cls-78" d="M303,136H273a4.1,4.1,0,0,0-4.1,4.1v18.46a4.1,4.1,0,0,0,4.1,4.1h6.54l6.17,8.44H288l8.44-8.44H303a4.1,4.1,0,0,0,4.1-4.1V140.09A4.1,4.1,0,0,0,303,136Z"/><path class="cls-79" d="M300.69,136h-30a4.1,4.1,0,0,0-4.1,4.1v18.46a4.1,4.1,0,0,0,4.1,4.1h6.54l8.44,8.44,8.44-8.44h6.54a4.1,4.1,0,0,0,4.1-4.1V140.09A4.1,4.1,0,0,0,300.69,136Z"/><path class="cls-80" d="M132.77,181.42s2.21,39.7-6.62,50.13-21.32-8.23-15.68-17.28,23,1,25,12.79.25,24,3.92,36.74,13.48,11.52,13.48,11.52"/><path class="cls-80" d="M216.68,146.19s3.08-1.06-4.09,10.85-28.86,10.09-32.35,18.53,23.34,8.22,27.94,12,2,8,2,8"/><path class="cls-80" d="M286.67,173.36s-25.46,14.15-40.48,9.19-2.47-14.89,6.05-14.89,13.48,27.89,13.48,27.89"/><ellipse class="cls-47" cx="199.46" cy="166.04" rx="3.49" ry="3.76"/><ellipse class="cls-47" cx="132.76" cy="201.43" rx="3.49" ry="3.76"/><ellipse class="cls-47" cx="250.85" cy="183.23" rx="3.49" ry="3.76"/><path class="cls-72" d="M393.41,169.16s2.43-1.64,3.24.56.73,4.3-2.05,5.65a2,2,0,0,1-2.51-.82"/></g></g></g></svg>