<svg xmlns="http://www.w3.org/2000/svg" xmlns:xlink="http://www.w3.org/1999/xlink" viewBox="0 0 600 548.75"><defs><style>.cls-1,.cls-2{opacity:0.49;}.cls-1{fill:url(#linear-gradient);}.cls-2{fill:url(#linear-gradient-2);}.cls-3{fill:url(#linear-gradient-3);}.cls-4{fill:url(#linear-gradient-4);}.cls-5{fill:url(#linear-gradient-5);}.cls-6{fill:url(#linear-gradient-6);}.cls-7{fill:url(#linear-gradient-7);}.cls-8{fill:url(#linear-gradient-8);}.cls-9{fill:url(#linear-gradient-9);}.cls-10{fill:url(#linear-gradient-10);}.cls-11{fill:url(#linear-gradient-11);}.cls-12{fill:url(#linear-gradient-12);}.cls-13{fill:url(#linear-gradient-13);}.cls-14{fill:url(#linear-gradient-14);}.cls-15{fill:url(#linear-gradient-15);}.cls-16{fill:url(#linear-gradient-16);}.cls-17{fill:url(#linear-gradient-17);}.cls-18{fill:#fff;}.cls-19{fill:url(#linear-gradient-18);}.cls-20{fill:url(#linear-gradient-19);}.cls-21{fill:url(#linear-gradient-20);}.cls-22{fill:none;stroke:#eb6057;stroke-linecap:round;stroke-linejoin:round;}.cls-23{fill:url(#linear-gradient-21);}.cls-24{fill:url(#linear-gradient-22);}.cls-25{fill:url(#linear-gradient-23);}.cls-26{fill:url(#linear-gradient-24);}.cls-27{fill:url(#linear-gradient-25);}.cls-28{fill:url(#linear-gradient-26);}.cls-29{fill:url(#linear-gradient-27);}.cls-30{fill:url(#linear-gradient-28);}.cls-31{fill:url(#linear-gradient-29);}.cls-32{fill:url(#linear-gradient-30);}.cls-33{fill:url(#linear-gradient-31);}.cls-34{fill:#223762;}.cls-35{fill:url(#linear-gradient-32);}.cls-36{fill:url(#linear-gradient-33);}.cls-37{fill:url(#linear-gradient-34);}.cls-38{fill:url(#linear-gradient-35);}.cls-39{fill:url(#linear-gradient-36);}.cls-40{fill:url(#linear-gradient-37);}.cls-41{fill:url(#linear-gradient-38);}.cls-42{fill:url(#linear-gradient-39);}.cls-43{fill:url(#linear-gradient-40);}.cls-44{fill:url(#linear-gradient-41);}.cls-45{fill:url(#linear-gradient-42);}.cls-46{fill:url(#linear-gradient-43);}.cls-47{fill:#3769a5;}.cls-48{fill:#83a4d6;}.cls-49{fill:url(#linear-gradient-44);}.cls-50{fill:url(#linear-gradient-45);}.cls-51{fill:url(#linear-gradient-46);}.cls-52{fill:url(#linear-gradient-47);}.cls-53{fill:url(#linear-gradient-48);}.cls-54{fill:url(#linear-gradient-49);}.cls-55{fill:url(#linear-gradient-50);}.cls-56{fill:url(#linear-gradient-51);}.cls-57{fill:url(#linear-gradient-52);}.cls-58{fill:url(#linear-gradient-53);}.cls-59{fill:url(#linear-gradient-54);}.cls-60{fill:url(#linear-gradient-55);}.cls-61{fill:url(#linear-gradient-56);}.cls-62{fill:url(#linear-gradient-57);}.cls-63{fill:url(#linear-gradient-58);}.cls-64{fill:url(#linear-gradient-59);}.cls-65{fill:url(#linear-gradient-60);}.cls-66{fill:url(#linear-gradient-61);}.cls-67{fill:url(#linear-gradient-62);}.cls-68{fill:url(#linear-gradient-63);}.cls-69{fill:url(#linear-gradient-64);}.cls-70{fill:url(#linear-gradient-65);}.cls-71{fill:url(#linear-gradient-66);}.cls-72{fill:url(#linear-gradient-67);}.cls-73{fill:url(#linear-gradient-68);}.cls-74{fill:url(#linear-gradient-69);}.cls-75{fill:url(#linear-gradient-70);}.cls-76{fill:url(#linear-gradient-71);}.cls-77{fill:url(#linear-gradient-72);}.cls-78{fill:url(#linear-gradient-73);}.cls-79{fill:url(#linear-gradient-74);}.cls-80{fill:url(#linear-gradient-75);}.cls-81{fill:url(#linear-gradient-76);}.cls-82{fill:url(#linear-gradient-77);}.cls-83{fill:url(#linear-gradient-78);}.cls-84{fill:url(#linear-gradient-79);}.cls-85{fill:url(#linear-gradient-80);}.cls-86{fill:url(#linear-gradient-81);}.cls-87{fill:url(#linear-gradient-82);}</style><linearGradient id="linear-gradient" x1="-5015.87" y1="-78.23" x2="-5387.85" y2="375.02" gradientTransform="matrix(-0.93, 0, 0, 1, -4412.02, 0)" gradientUnits="userSpaceOnUse"><stop offset="0" stop-color="#eaf1fc"/><stop offset="1" stop-color="#c0d4f4"/></linearGradient><linearGradient id="linear-gradient-2" x1="-4722.51" y1="-69.34" x2="-5089.02" y2="377.25" gradientTransform="matrix(-0.93, -0.13, -0.13, 1.09, -4254.37, -536.86)" xlink:href="#linear-gradient"/><linearGradient id="linear-gradient-3" x1="-4641.01" y1="317.65" x2="-4643.01" y2="310.55" gradientTransform="matrix(-1, 0, 0, 1, -4156.58, 0)" gradientUnits="userSpaceOnUse"><stop offset="0" stop-color="#f8a695"/><stop offset="1" stop-color="#e56045"/></linearGradient><linearGradient id="linear-gradient-4" x1="-4657.48" y1="349.22" x2="-4626.21" y2="456.69" gradientTransform="matrix(-1, 0, 0, 1, -4156.58, 0)" gradientUnits="userSpaceOnUse"><stop offset="0" stop-color="#223762"/><stop offset="1" stop-color="#041b48"/></linearGradient><linearGradient id="linear-gradient-5" x1="-4622.96" y1="353.75" x2="-4596.89" y2="443.34" gradientTransform="matrix(-1, 0, 0, 1, -4156.58, 0)" gradientUnits="userSpaceOnUse"><stop offset="0" stop-color="#4c93f4"/><stop offset="1" stop-color="#0b63da"/></linearGradient><linearGradient id="linear-gradient-6" x1="-4640.99" y1="329.88" x2="-4642.94" y2="322.98" xlink:href="#linear-gradient-4"/><linearGradient id="linear-gradient-7" x1="-4632.09" y1="317.62" x2="-4654.29" y2="320.35" xlink:href="#linear-gradient-3"/><linearGradient id="linear-gradient-8" x1="-4665.5" y1="188.48" x2="-4617.73" y2="352.69" gradientTransform="matrix(-1, 0, 0, 1, -4156.58, 0)" gradientUnits="userSpaceOnUse"><stop offset="0" stop-color="#3769a5"/><stop offset="1" stop-color="#08448b"/></linearGradient><linearGradient id="linear-gradient-9" x1="-81.24" y1="510.46" x2="-106.53" y2="535.37" gradientTransform="translate(664.27)" xlink:href="#linear-gradient-4"/><linearGradient id="linear-gradient-10" x1="-137.21" y1="417.87" x2="-71.98" y2="360.15" gradientTransform="translate(664.27)" xlink:href="#linear-gradient-8"/><linearGradient id="linear-gradient-11" x1="-175.52" y1="380.02" x2="-111.62" y2="380.02" gradientTransform="translate(664.27)" xlink:href="#linear-gradient-4"/><linearGradient id="linear-gradient-12" x1="-121.15" y1="525.93" x2="-152.15" y2="525.36" gradientTransform="translate(664.27)" xlink:href="#linear-gradient-4"/><linearGradient id="linear-gradient-13" x1="-144.87" y1="427.49" x2="-45.58" y2="339.63" gradientTransform="translate(664.27)" xlink:href="#linear-gradient-5"/><linearGradient id="linear-gradient-14" x1="-47.8" y1="454.91" x2="-133.07" y2="385.23" gradientTransform="translate(664.27)" xlink:href="#linear-gradient-8"/><linearGradient id="linear-gradient-15" x1="-143.36" y1="196.97" x2="-111.69" y2="305.8" gradientTransform="translate(664.27)" xlink:href="#linear-gradient-5"/><linearGradient id="linear-gradient-16" x1="-80.37" y1="196.67" x2="-107.57" y2="194.39" gradientTransform="translate(664.27)" xlink:href="#linear-gradient-5"/><linearGradient id="linear-gradient-17" x1="-145.9" y1="142.74" x2="-125.95" y2="125.08" gradientTransform="translate(664.27)" gradientUnits="userSpaceOnUse"><stop offset="0" stop-color="#a7bde5"/><stop offset="1" stop-color="#2f66cb"/></linearGradient><linearGradient id="linear-gradient-18" x1="-4649.51" y1="79.79" x2="-4654.75" y2="76.08" xlink:href="#linear-gradient-4"/><linearGradient id="linear-gradient-19" x1="-111.68" y1="267.18" x2="-111.68" y2="252.91" gradientTransform="matrix(1, -0.05, 0.05, 1, 624.45, -133.11)" xlink:href="#linear-gradient-3"/><linearGradient id="linear-gradient-20" x1="-116.63" y1="244.35" x2="-98.94" y2="181.24" gradientTransform="matrix(1, -0.05, 0.05, 1, 624.45, -133.11)" xlink:href="#linear-gradient-3"/><linearGradient id="linear-gradient-21" x1="-4673.51" y1="35.66" x2="-4678.98" y2="48.77" xlink:href="#linear-gradient-4"/><linearGradient id="linear-gradient-22" x1="-4673.16" y1="104.31" x2="-4673.76" y2="105.74" xlink:href="#linear-gradient-4"/><linearGradient id="linear-gradient-23" x1="1671.64" y1="104.31" x2="1671.04" y2="105.74" gradientTransform="translate(-448.48) scale(0.57 1)" xlink:href="#linear-gradient-4"/><linearGradient id="linear-gradient-24" x1="-4623.03" y1="198.86" x2="-4645.92" y2="196.94" xlink:href="#linear-gradient-4"/><linearGradient id="linear-gradient-25" x1="-4635.85" y1="194.36" x2="-4649.02" y2="193.26" xlink:href="#linear-gradient-5"/><linearGradient id="linear-gradient-26" x1="-4788.58" y1="309.16" x2="-4767.22" y2="294.12" xlink:href="#linear-gradient-8"/><linearGradient id="linear-gradient-27" x1="-870.7" y1="191.08" x2="-874.33" y2="175.05" gradientTransform="translate(1295.89)" xlink:href="#linear-gradient-5"/><linearGradient id="linear-gradient-28" x1="-844.38" y1="203.92" x2="-813.2" y2="189.46" gradientTransform="translate(1295.89)" xlink:href="#linear-gradient-3"/><linearGradient id="linear-gradient-29" x1="-4691.34" y1="157.94" x2="-4659.67" y2="266.77" xlink:href="#linear-gradient-5"/><linearGradient id="linear-gradient-30" x1="347.29" y1="240.97" x2="305.32" y2="321.23" gradientTransform="matrix(1, 0, 0, 1, 0, 0)" xlink:href="#linear-gradient-5"/><linearGradient id="linear-gradient-31" x1="314.45" y1="229.02" x2="277.88" y2="300.2" gradientTransform="matrix(1, 0, 0, 1, 0, 0)" xlink:href="#linear-gradient-8"/><linearGradient id="linear-gradient-32" x1="318.21" y1="240.97" x2="276.24" y2="321.23" gradientUnits="userSpaceOnUse"><stop offset="0" stop-color="#ff9f5b"/><stop offset="1" stop-color="#e5670e"/></linearGradient><linearGradient id="linear-gradient-33" x1="285.85" y1="282.84" x2="240.56" y2="299.77" xlink:href="#linear-gradient-32"/><linearGradient id="linear-gradient-34" x1="273.7" y1="541.81" x2="286.79" y2="533.14" gradientTransform="matrix(1, 0, 0, 1, 0, 0)" xlink:href="#linear-gradient-4"/><linearGradient id="linear-gradient-35" x1="288.12" y1="486.66" x2="310.57" y2="414.86" gradientTransform="matrix(1, 0, 0, 1, 0, 0)" xlink:href="#linear-gradient-8"/><linearGradient id="linear-gradient-36" x1="289.83" y1="481.17" x2="311.23" y2="412.76" gradientTransform="matrix(1, 0, 0, 1, 0, 0)" xlink:href="#linear-gradient-4"/><linearGradient id="linear-gradient-37" x1="188.11" y1="540.83" x2="202.66" y2="531.2" gradientTransform="matrix(1, 0, 0, 1, 0, 0)" xlink:href="#linear-gradient-4"/><linearGradient id="linear-gradient-38" x1="35.71" y1="532.62" x2="95.99" y2="532.62" gradientTransform="matrix(1, 0, 0, 1, 0, 0)" xlink:href="#linear-gradient-17"/><linearGradient id="linear-gradient-39" x1="153.47" y1="276.57" x2="204.53" y2="276.57" gradientTransform="matrix(1, 0, 0, 1, 0, 0)" xlink:href="#linear-gradient-17"/><linearGradient id="linear-gradient-40" x1="0.37" y1="395.42" x2="160.45" y2="395.42" xlink:href="#linear-gradient-32"/><linearGradient id="linear-gradient-41" x1="-6684.57" y1="400.95" x2="-6684.57" y2="350.49" gradientTransform="matrix(-1, 0, 0, 1, -6613.08, 0)" xlink:href="#linear-gradient-8"/><linearGradient id="linear-gradient-42" x1="-6746.39" y1="400.95" x2="-6746.39" y2="350.49" gradientTransform="matrix(-1, 0, 0, 1, -6613.08, 0)" xlink:href="#linear-gradient-8"/><linearGradient id="linear-gradient-43" x1="-6774.29" y1="341.2" x2="-7282.85" y2="370.16" gradientTransform="matrix(1, 0, 0, -1, 7171.75, 695.86)" xlink:href="#linear-gradient-17"/><linearGradient id="linear-gradient-44" x1="-7100.26" y1="444.39" x2="-7100.26" y2="315.89" gradientTransform="matrix(-1, 0, 0, 1, -6613.08, 0)" xlink:href="#linear-gradient-17"/><linearGradient id="linear-gradient-45" x1="237.11" y1="457.69" x2="288.29" y2="423.82" gradientTransform="matrix(1, 0, 0, 1, 0, 0)" xlink:href="#linear-gradient-5"/><linearGradient id="linear-gradient-46" x1="-7052.19" y1="400.95" x2="-7052.19" y2="350.49" gradientTransform="matrix(-1, 0, 0, 1, -6613.08, 0)" xlink:href="#linear-gradient-8"/><linearGradient id="linear-gradient-47" x1="-6990.37" y1="400.95" x2="-6990.37" y2="350.49" gradientTransform="matrix(-1, 0, 0, 1, -6613.08, 0)" xlink:href="#linear-gradient-8"/><linearGradient id="linear-gradient-48" x1="-7038.44" y1="444.39" x2="-7038.44" y2="315.89" gradientTransform="matrix(-1, 0, 0, 1, -6613.08, 0)" xlink:href="#linear-gradient-17"/><linearGradient id="linear-gradient-49" x1="-6794.46" y1="444.39" x2="-6794.46" y2="315.89" gradientTransform="matrix(-1, 0, 0, 1, -6613.08, 0)" xlink:href="#linear-gradient-17"/><linearGradient id="linear-gradient-50" x1="-6732.64" y1="444.39" x2="-6732.64" y2="315.89" gradientTransform="matrix(-1, 0, 0, 1, -6613.08, 0)" xlink:href="#linear-gradient-17"/><linearGradient id="linear-gradient-51" x1="1.56" y1="543.32" x2="589.28" y2="543.32" gradientTransform="matrix(1, 0, 0, 1, 0, 0)" xlink:href="#linear-gradient-4"/><linearGradient id="linear-gradient-52" x1="208.44" y1="309.26" x2="216.81" y2="312.17" gradientTransform="matrix(1, 0, 0, 1, 0, 0)" xlink:href="#linear-gradient-5"/><linearGradient id="linear-gradient-53" x1="214.67" y1="332.13" x2="229.44" y2="337.26" gradientTransform="matrix(1, 0, 0, 1, 0, 0)" xlink:href="#linear-gradient-4"/><linearGradient id="linear-gradient-54" x1="249.18" y1="460.71" x2="292.95" y2="431.74" gradientTransform="matrix(1, 0, 0, 1, 0, 0)" xlink:href="#linear-gradient-8"/><linearGradient id="linear-gradient-55" x1="392.72" y1="280.11" x2="338.72" y2="397.44" gradientUnits="userSpaceOnUse"><stop offset="0" stop-color="#ffc063"/><stop offset="1" stop-color="#e58f0f"/></linearGradient><linearGradient id="linear-gradient-56" x1="393.05" y1="249.05" x2="356.6" y2="391.53" xlink:href="#linear-gradient-55"/><linearGradient id="linear-gradient-57" x1="200.72" y1="317.55" x2="216.44" y2="317.55" gradientTransform="matrix(1, 0, 0, 1, 0, 0)" xlink:href="#linear-gradient-5"/><linearGradient id="linear-gradient-58" x1="208.89" y1="317.55" x2="224.61" y2="317.55" gradientTransform="matrix(1, 0, 0, 1, 0, 0)" xlink:href="#linear-gradient-5"/><linearGradient id="linear-gradient-59" x1="216.9" y1="317.55" x2="232.62" y2="317.55" gradientTransform="matrix(1, 0, 0, 1, 0, 0)" xlink:href="#linear-gradient-5"/><linearGradient id="linear-gradient-60" x1="212.64" y1="325.42" x2="228.36" y2="325.42" gradientTransform="matrix(1, 0, 0, 1, 0, 0)" xlink:href="#linear-gradient-5"/><linearGradient id="linear-gradient-61" x1="220.81" y1="325.42" x2="236.53" y2="325.42" gradientTransform="matrix(1, 0, 0, 1, 0, 0)" xlink:href="#linear-gradient-5"/><linearGradient id="linear-gradient-62" x1="228.82" y1="325.42" x2="244.54" y2="325.42" gradientTransform="matrix(1, 0, 0, 1, 0, 0)" xlink:href="#linear-gradient-5"/><linearGradient id="linear-gradient-63" x1="223.82" y1="333.07" x2="239.54" y2="333.07" gradientTransform="matrix(1, 0, 0, 1, 0, 0)" xlink:href="#linear-gradient-5"/><linearGradient id="linear-gradient-64" x1="231.99" y1="333.07" x2="247.71" y2="333.07" gradientTransform="matrix(1, 0, 0, 1, 0, 0)" xlink:href="#linear-gradient-5"/><linearGradient id="linear-gradient-65" x1="240.01" y1="333.07" x2="255.73" y2="333.07" gradientTransform="matrix(1, 0, 0, 1, 0, 0)" xlink:href="#linear-gradient-5"/><linearGradient id="linear-gradient-66" x1="342.4" y1="178.34" x2="360.4" y2="178.34" gradientTransform="matrix(1, 0, 0, 1, 0, 0)" xlink:href="#linear-gradient-4"/><linearGradient id="linear-gradient-67" x1="348.71" y1="185.77" x2="358.59" y2="185.77" gradientTransform="matrix(1, 0, 0, 1, 0, 0)" xlink:href="#linear-gradient-3"/><linearGradient id="linear-gradient-68" x1="351.03" y1="188.99" x2="407.43" y2="188.99" gradientTransform="matrix(1, 0, 0, 1, 0, 0)" xlink:href="#linear-gradient-3"/><linearGradient id="linear-gradient-69" x1="338.1" y1="179.54" x2="416.48" y2="179.54" gradientTransform="matrix(1, 0, 0, 1, 0, 0)" xlink:href="#linear-gradient-4"/><linearGradient id="linear-gradient-70" x1="235.42" y1="307.45" x2="262.78" y2="307.7" gradientTransform="matrix(1, 0, 0, 1, 0, 0)" xlink:href="#linear-gradient-3"/><linearGradient id="linear-gradient-71" x1="431.33" y1="306.68" x2="315.48" y2="335.15" gradientUnits="userSpaceOnUse"><stop offset="0" stop-color="#ffc063"/><stop offset="0.95" stop-color="#e44d0b"/></linearGradient><linearGradient id="linear-gradient-72" x1="321.83" y1="247.49" x2="267.84" y2="364.81" xlink:href="#linear-gradient-55"/><linearGradient id="linear-gradient-73" x1="151.24" y1="304.68" x2="132.36" y2="342.81" gradientTransform="matrix(1, 0, 0, 1, 0, 0)" xlink:href="#linear-gradient-17"/><linearGradient id="linear-gradient-74" x1="165.85" y1="516.01" x2="138.68" y2="539.57" xlink:href="#linear-gradient-32"/><linearGradient id="linear-gradient-75" x1="-365.82" y1="1666.09" x2="-362.14" y2="1635.16" gradientTransform="translate(-280.8 -1374.09) rotate(-23.11)" xlink:href="#linear-gradient-32"/><linearGradient id="linear-gradient-76" x1="372.59" y1="538.11" x2="389.13" y2="543.86" gradientTransform="matrix(1, 0, 0, 1, 0, 0)" xlink:href="#linear-gradient-4"/><linearGradient id="linear-gradient-77" x1="-6081.32" y1="538.11" x2="-6064.79" y2="543.86" gradientTransform="matrix(-1, 0, 0, 1, -5654.41, 0)" xlink:href="#linear-gradient-4"/><linearGradient id="linear-gradient-78" x1="-7985.05" y1="537.12" x2="-7970.43" y2="542.2" gradientTransform="matrix(-1, 0, 0, 1, -7541.87, 0)" xlink:href="#linear-gradient-4"/><linearGradient id="linear-gradient-79" x1="369.66" y1="498.52" x2="405.65" y2="466.41" gradientTransform="matrix(1, 0, 0, 1, 0, 0)" xlink:href="#linear-gradient-4"/><linearGradient id="linear-gradient-80" x1="388.82" y1="440.8" x2="401.89" y2="429.15" gradientTransform="matrix(1, 0, 0, 1, 0, 0)" xlink:href="#linear-gradient-4"/><linearGradient id="linear-gradient-81" x1="302.86" y1="536.23" x2="314.79" y2="517.42" gradientTransform="matrix(1, 0, 0, 1, 0, 0)" xlink:href="#linear-gradient-8"/><linearGradient id="linear-gradient-82" x1="277.94" y1="490.82" x2="286.9" y2="476.69" gradientTransform="matrix(1, 0, 0, 1, 0, 0)" xlink:href="#linear-gradient-4"/></defs><title>Asset 5</title><g id="Layer_2" data-name="Layer 2"><g id="Layer_1-2" data-name="Layer 1"><g id="_5" data-name="5"><path class="cls-1" d="M287.66,29.62a20.44,20.44,0,0,0-3.58,35.75c16.16,11.05,42.24,27.18,63.62,32.42C381.31,106,437,114.72,452.4,109.06s28.21-39-8.28-70S313.22,19.21,288.4,29.31Z"/><path class="cls-2" d="M433.56,126.8C303.34,127.58,224,25.68,162,6.08,69-23.37-53.75,52.83,25.4,263.59S145.57,528,288.14,546c114.08,14.39,214.54-68.08,254.57-133.9C605.33,309.09,563.78,126,433.56,126.8Z"/><path class="cls-3" d="M481,302.38s-4,5.82-4.61,8.74-.12,4.85,1.33,7.76,2.18,7.16,6.07,7,9.58-4.85,9.58-4.85l-5.7-13.74Z"/><polygon class="cls-4" points="460.47 333.19 525.25 333.19 525.25 420.48 459.01 420.48 460.47 333.19"/><path class="cls-5" d="M452.13,335.06v80.35s-.41,5.61,6.88,5a11.64,11.64,0,0,0,9.71-7.09v-75s1.13-2.36-4.48-4.43S452.13,335.06,452.13,335.06Z"/><path class="cls-6" d="M474.56,334.41s-.37-5.85,1.56-10.31,7.66-6.19,11.9-5.7l8.4,1v3.52s-9.37-1.21-12.4.12-4,4.25-4.85,6.55,0,7.28,0,7.28Z"/><path class="cls-7" d="M490.21,312.57s-1.09-.55-4.73-.27-6,1.41-6.82,3.82.27,7.29,2.18,8.33,7.83,2.69,9.92,0,3.37-9.61,2-10.42S490.21,312.57,490.21,312.57Z"/><path class="cls-8" d="M492.7,148.45l2.24,80.65-15.77,73.62a10.33,10.33,0,0,0,7.71,6.83l6.36,1.56,27.45-67.32Z"/><path class="cls-9" d="M564.62,506.41l6.18,6s-6.47,12-7.7,13.22-10.08,2.19-11.79,3.71-3.71,8.21-3.71,8.21h20.64L600,515.92l-16.55-22.63Z"/><path class="cls-10" d="M488.73,319.07v89.19a13.09,13.09,0,0,0,2.68,7.93l71.25,93.58a26.44,26.44,0,0,0,16.74-6.09l8.12-6.59-62.65-95.35,10.3-94.84Z"/><path class="cls-11" d="M547.72,452.68c2.3-.87,3.21-5.45,4.93-8.67l-27.78-42.27,9.83-90.5-1.16-3.92-44.8,11.75V331.9c4.46,1.61,11.89,4.49,13.81,6.41,2.79,2.79,0,62.13,0,67.2S543.68,454.2,547.72,452.68Z"/><path class="cls-12" d="M528.94,514.46,530,518.9s-18.57,8.12-22.93,9.51-6.35,3.93-6.61,6a9.81,9.81,0,0,0,0,3.17h52.06l-.79-23.84Z"/><path class="cls-13" d="M509,318.05s1.4,75.57,3.94,95.86S527.79,515.6,527.79,515.6s13.06,1.78,19.15,1.27l6.09-.51,4.06-107.52s16.23-42.6,18.77-70.5,0-29.92,0-29.92Z"/><path class="cls-14" d="M575.84,338.34c2.54-27.9,0-29.92,0-29.92L509,318.05s.14,7.28.4,17.93c4.33,1.07,12.13,2.4,25.08,2.83,22.82.76,29.16-2.28,32-2.16s.32,18.2-1,25.55S555.35,393,553.32,396.06s-21.78,9.83-24.82,13.88,15.91,5.9,16.93,10.46-1.29,30.49-2.44,44.44,10,51.51,10,51.51l4.06-107.52S573.31,366.24,575.84,338.34Z"/><path class="cls-15" d="M542.56,133.34s13.86.53,22.77,5.54,19.82,21.83,20.94,48.57-5.57,79.39-5.57,79.39l4.87,50.91s-24.09,16.5-51.95,15.39-46.86-9.47-46.86-9.47,1.11-159.9,4.91-172.16,8-14.21,12.27-15.46,6.77-1.88,6.77-1.88Z"/><path class="cls-16" d="M542.56,133.34s5.82,9.77,6,12.24-13.06,4.37-14.23,9.51,2.51,13.31,0,21.87S504,249.83,504,249.83l7.62-67.93,13.19-32.71Z"/><polygon class="cls-17" points="510.71 134.17 507.16 145.87 519.07 140.32 530.98 146.92 542.56 133.34 534.34 132.41 510.71 134.17"/><path class="cls-18" d="M531,146.92s-20.1,46.22-20.94,61c-.24,4.24-6,41.94-6,41.94l3.11-104,11.91-5.55Z"/><path class="cls-19" d="M495.61,56.34s-.57-1-.67,12.17,6.66,26.72,6.66,26.72l3.9-37.83Z"/><path class="cls-20" d="M509.44,116.13l4.17,17.94s2.76,3.35,10.34,3.26,14.8-5,14.8-5l-.22-18.38Z"/><path class="cls-21" d="M498.71,81.95c.77,10.15,1.8,22.4,6.31,33s25.7,12.45,32.56,3.76,9-22.37,9-22.37,7.3.34,9-5.16,1.13-13.61-2.3-15.13-5.69-.46-5.69-.46.09-7.79-7.55-14.22S504,57.91,502.42,59.3,497.93,71.8,498.71,81.95Z"/><path class="cls-22" d="M508.3,85.4s-2,13-1.48,16.24,8.8.66,8.8.66"/><path class="cls-22" d="M541.85,81.06s2.42-1.72,3.3.48.84,4.34-1.94,5.77a2,2,0,0,1-2.56-.76"/><path class="cls-23" d="M539.76,115.56s7.94,1.23,10.41-1.08,9.13-25.7,10.08-36.16-3.46-25.58-6.09-29.86c-5.9-9.6-22.44-12.17-35.38-8.37s-27.58-4.75-27.58-4.75-1.35,7.45,0,13.88c1.71,8.18,4.56,11.6,8.37,12.55s28-3,32.71.76,3.93,27.21,3.93,27.21,1.59-13.52,6.72-13.33,6.22,3.41,5.9,5.52c-.51,3.46-4.15,12.15-7,11.8C535.72,93,539.76,115.56,539.76,115.56Z"/><path class="cls-24" d="M510,105.84s6-2,8.62.57,5.11,4,6.84,3.23l1.72-.76s-.06.76-3.55,2.54-9.51,1.78-12,.32S510,105.84,510,105.84Z"/><path class="cls-25" d="M509.34,105.84s-3.44-2-4.92.57-2.92,4-3.9,3.23l-1-.76s0,.76,2,2.54,5.43,1.78,6.88.32S509.34,105.84,509.34,105.84Z"/><path class="cls-26" d="M519.07,147.79l-.37,29.73h0c-4.36,11.82-8.3,24-8.66,30.37-.24,4.24-6,41.94-6,41.94l2.7-73,10.05-29.41-2.16-5,4.42-2.06,6.18,3.42Z"/><path class="cls-27" d="M510.71,134.17s-9.61,5.8-10.35,10.76,3,7.2,3,9.06-5.83,4-6.83,10.3S504,249.83,504,249.83Z"/><path class="cls-18" d="M584.12,158.55"/><path class="cls-28" d="M554.64,312.51c14.19-5.82,19.47-25.11,16.74-32.94s-10.19-8.19-9.65-15.47,14.38-23.29,12-25.84-12.74,17.83-26.83,14-35.26-20.17-35.26-20.17L547,237l31.57-82.29c4.06,8.21,7.15,19.2,7.71,32.76,1.11,26.74-5.57,79.39-5.57,79.39l4.87,50.91s-24.09,16.5-51.95,15.39-46.86-9.47-46.86-9.47.06-8.65.2-22.07a82.66,82.66,0,0,1,7.62,5.3C499.86,311.29,540.44,318.33,554.64,312.51Z"/><path class="cls-29" d="M466.43,232.09s-7.12-51-20.8-60.56-17.53,7.89-17.53,7.89H389.76s3.86-17.42,17.53-7.89,20.8,60.56,20.8,60.56Z"/><path class="cls-18" d="M401,168.77h-2.44c-6.68,1.05-8.81,10.64-8.81,10.64h38.33s2.13-9.58,8.81-10.64Z"/><path class="cls-18" d="M436.91,168.77h2.44A8.2,8.2,0,0,0,436.91,168.77Z"/><path class="cls-18" d="M398.57,168.77H401A8.2,8.2,0,0,0,398.57,168.77Z"/><path class="cls-30" d="M476.79,195.08s-7.3-6.24-14-6.31l-6.69-.06,1.24,3.82s.91,1.69-4.53,2.29-8.17-2.95-11.57-1.13-3.55,5.6,1.44,10.89,11.95,8.09,20.87,7.49a17.72,17.72,0,0,0,13.23-7.56Z"/><path class="cls-31" d="M557.51,148.22a12.5,12.5,0,0,1,19.06,1.07c2,2.67,5.86,11.72,5.59,18.45-.31,7.71-22.21,73-28.71,78.37s-84.64-34.73-84.64-34.73,1.94-11.47,4.85-14.58l2.91-3.1,60.8,20.42s13-56,18.54-63.94A19,19,0,0,1,557.51,148.22Z"/><rect class="cls-32" x="306.07" y="250.19" width="25.04" height="91.33"/><rect class="cls-33" x="254.16" y="250.19" width="51.91" height="91.33"/><ellipse class="cls-34" cx="318.59" cy="265.22" rx="7.85" ry="8.87"/><rect class="cls-18" x="310.74" y="281.74" width="15.71" height="52.23"/><rect class="cls-35" x="276.99" y="250.19" width="25.04" height="91.33"/><rect class="cls-36" x="225.07" y="250.19" width="51.91" height="91.33"/><ellipse class="cls-34" cx="289.5" cy="265.22" rx="7.85" ry="8.87"/><rect class="cls-18" x="281.65" y="281.74" width="15.71" height="52.23"/><path class="cls-37" d="M308.43,514.14l3.5,24.05H252.1s-.37-3.8,4.79-6.93S282,524.82,282,524.82l4.14-7.73Z"/><path class="cls-38" d="M326.16,370.62s-53.51,6.87-59.89,8.35-10.8,8.35-7.36,21.6,23.56,118.79,23.56,118.79,1.22,4.42,13.37,2.95,14.61-4.91,14.61-4.91l-7.36-107,74.52-15Z"/><path class="cls-39" d="M326.16,370.62s-53.51,6.87-59.89,8.35-10.8,8.35-7.36,21.6c1,3.68,3.2,14.49,5.94,28.17,11,.54,23.18-3.65,25.46-1.3,3.58,3.68-.26,7.87,0,21.24.2,10,10.09,51.51,15,71.59,4.07-1.42,5.13-2.87,5.13-2.87l-7.36-107,74.52-15Z"/><path class="cls-40" d="M229.83,514.82l-5,23.38H165s-.37-3.8,4.79-6.93,34.12-8.66,34.12-8.66l9.33-2.14Z"/><path class="cls-41" d="M91.23,537c-14.15-2.42-31.39-8-37.38-10H35.71c6.69,2.25,27.38,8.92,42.15,10.7a35.89,35.89,0,0,0,11.21,0H96C94.46,537.57,92.86,537.33,91.23,537Z"/><path class="cls-42" d="M171.61,253.26a12.73,12.73,0,0,0-4.51,0H153.47a17.58,17.58,0,0,1,7,3.09c14.15,10,24.48,39.34,26,43.72h18.13C202.81,295,189.25,256.42,171.61,253.26Z"/><path class="cls-43" d="M117.51,512.14c-5.59-10.44-41.37-10.06-70.07-22.73s-38-50.69-19-72.41,60.75-19,79-31.7c17.76-12.34,30.77-111.21,53-128.95a17.58,17.58,0,0,0-7-3.09h-4.33a16.85,16.85,0,0,0-5.05,1.84c-23.36,13.67-36.58,117.52-54.81,130.2s-60,10-79,31.7-9.69,59.74,19,72.41,64.48,12.3,70.07,22.73S101.25,532,89.63,537c1.23.21,2.45.4,3.63.56h13a9.37,9.37,0,0,0,1.18-.4C119.32,532.15,123.1,522.57,117.51,512.14Z"/><polygon class="cls-44" points="53.28 537.9 40.76 537.9 89.69 355.29 102.21 355.29 53.28 537.9"/><polygon class="cls-45" points="151.52 537.9 164.03 537.9 115.1 355.29 102.59 355.29 151.52 537.9"/><rect class="cls-46" x="40.76" y="340.57" width="477.14" height="14.73" transform="translate(558.67 695.86) rotate(-180)"/><rect class="cls-47" x="40.35" y="340.57" width="87.8" height="14.73" transform="translate(168.49 695.86) rotate(-180)"/><rect class="cls-48" x="40.76" y="350.51" width="477.14" height="4.79" transform="translate(558.67 705.8) rotate(-180)"/><rect class="cls-34" x="40.76" y="350.51" width="87.38" height="4.79" transform="translate(168.91 705.8) rotate(-180)"/><polygon class="cls-49" points="505.39 537.9 517.9 537.9 468.98 355.29 456.46 355.29 505.39 537.9"/><path class="cls-50" d="M319.66,374.06s-71.79,6.14-81.36,20.13C232.51,402.63,205,522.43,205,522.43s.57,3,10.14,4.62,13.43,0,13.43,0S259,431.86,262.26,426.7s29.62-11.12,45.65-9.64,50.55,3.38,65.76-4.72,23.23-26.51,23.23-26.51Z"/><polygon class="cls-51" points="457.32 537.9 469.83 537.9 420.9 355.29 408.39 355.29 457.32 537.9"/><polygon class="cls-52" points="359.08 537.9 346.57 537.9 395.5 355.29 408.01 355.29 359.08 537.9"/><polygon class="cls-53" points="407.15 537.9 394.64 537.9 443.57 355.29 456.08 355.29 407.15 537.9"/><polygon class="cls-54" points="199.59 537.9 212.1 537.9 163.17 355.29 150.66 355.29 199.59 537.9"/><polygon class="cls-55" points="101.35 537.9 88.83 537.9 137.76 355.29 150.28 355.29 101.35 537.9"/><polygon class="cls-56" points="589.28 548.75 1.56 548.75 41.9 537.89 552.07 537.89 589.28 548.75"/><polygon class="cls-18" points="194.8 312.57 221.05 312.57 262.26 340.57 236.01 340.57 194.8 312.57"/><path class="cls-57" d="M184.35,299.5h28.16A8.53,8.53,0,0,1,221,308v4.54a0,0,0,0,1,0,0h-36.7a0,0,0,0,1,0,0V299.5A0,0,0,0,1,184.35,299.5Z"/><path class="cls-58" d="M194.8,312.57c0-7.22-4.68-13.07-10.45-13.07s-10.45,5.85-10.45,13.07v28H236Z"/><path class="cls-59" d="M308.26,417.06c16,1.48,50.55,3.38,65.76-4.72a46.8,46.8,0,0,0,13.22-11l-43.06-23.62L332.64,376c-1.64,4.79-4.87,12.92-9.32,18.2-6.63,7.85-42.12,4.17-49.66,11.29s-25,.49-28.77,5.4,7.85,10.8,7.55,17.18S239.13,440.82,235,452.6,228.88,527,228.88,527s30.45-95.19,33.73-100.34S292.22,415.58,308.26,417.06Z"/><path class="cls-60" d="M370.19,231.4s-35.29,9-43.31,15.27,2.81,69.6,2.81,79.9-12.83,48.59-12.83,48.59,32.1,21.37,60.75,20.26,48.29-10,48.29-10-7.3-133.67-10.65-143.22a17.21,17.21,0,0,0-16.29-12Z"/><path class="cls-61" d="M418.58,352.77a5.24,5.24,0,1,1,5.06-6.56c-.31-5.22-.65-10.72-1-16.37a5.24,5.24,0,1,1-.45-7.09c-.27-4.23-.55-8.49-.83-12.75a5.24,5.24,0,1,1-.62-9.2c-.26-3.79-.52-7.52-.78-11.16a5.19,5.19,0,0,1-1.37.2,5.24,5.24,0,1,1,0-10.49,5.16,5.16,0,0,1,.61.06c-.28-3.7-.56-7.24-.84-10.57a5.23,5.23,0,0,1-.91-10.33c-.43-4.56-.85-8.37-1.24-11.21a5.21,5.21,0,0,1-2-7.52A17.17,17.17,0,0,0,399,230.26l-28.78,1.14s-17.5,4.47-30.65,9.3a5.24,5.24,0,0,1-9.63,4.1,20.69,20.69,0,0,0-3,1.87c-7.71,6,2,64.86,2.76,78.49a5.24,5.24,0,1,1,0,2.73c-.67,8.76-7.29,30.28-10.72,41a5.2,5.2,0,0,1-.77,2.38c-.79,2.42-1.28,3.89-1.28,3.89a146.39,146.39,0,0,0,16.7,9.19,5.18,5.18,0,0,1,5.65,2.54c3.59,1.52,7.46,3,11.5,4.29a5.24,5.24,0,1,1,8.31,2.28,71.51,71.51,0,0,0,18.58,2,155,155,0,0,0,17-1.61,5.26,5.26,0,1,1,7.18-1.25c4.37-.87,8.24-1.84,11.53-2.77,0-.1,0-.2,0-.31a5.24,5.24,0,0,1,9.65-2.83c1.9-.72,2.92-1.18,2.92-1.18s-.87-16-2.15-37.28A5.23,5.23,0,0,1,418.58,352.77Zm-83.9,21a5.24,5.24,0,1,1,5.24-5.24A5.24,5.24,0,0,1,334.68,373.74Zm0-21a5.24,5.24,0,1,1,5.24-5.24A5.24,5.24,0,0,1,334.68,352.77Zm0-41.95a5.24,5.24,0,1,1,5.24-5.24A5.24,5.24,0,0,1,334.68,310.82Zm0-21a5.24,5.24,0,1,1,5.24-5.24A5.24,5.24,0,0,1,334.68,289.84Zm0-21a5.24,5.24,0,1,1,5.24-5.24A5.24,5.24,0,0,1,334.68,268.87Zm21,104.87a5.24,5.24,0,1,1,5.24-5.24A5.24,5.24,0,0,1,355.65,373.74Zm0-21a5.24,5.24,0,1,1,5.24-5.24A5.24,5.24,0,0,1,355.65,352.77Zm0-21a5.24,5.24,0,1,1,5.24-5.24A5.24,5.24,0,0,1,355.65,331.79Zm0-21a5.24,5.24,0,1,1,5.24-5.24A5.24,5.24,0,0,1,355.65,310.82Zm0-21a5.24,5.24,0,1,1,5.24-5.24A5.24,5.24,0,0,1,355.65,289.84Zm0-21a5.24,5.24,0,1,1,5.24-5.24A5.24,5.24,0,0,1,355.65,268.87Zm0-21a5.24,5.24,0,1,1,5.24-5.24A5.24,5.24,0,0,1,355.65,247.89Zm21,146.82a5.24,5.24,0,1,1,5.24-5.24A5.24,5.24,0,0,1,376.63,394.72Zm0-21a5.24,5.24,0,1,1,5.24-5.24A5.24,5.24,0,0,1,376.63,373.74Zm0-21a5.24,5.24,0,1,1,5.24-5.24A5.24,5.24,0,0,1,376.63,352.77Zm0-21a5.24,5.24,0,1,1,5.24-5.24A5.24,5.24,0,0,1,376.63,331.79Zm0-21a5.24,5.24,0,1,1,5.24-5.24A5.24,5.24,0,0,1,376.63,310.82Zm0-21a5.24,5.24,0,1,1,5.24-5.24A5.24,5.24,0,0,1,376.63,289.84Zm0-21a5.24,5.24,0,1,1,5.24-5.24A5.24,5.24,0,0,1,376.63,268.87Zm0-21a5.24,5.24,0,1,1,5.24-5.24A5.24,5.24,0,0,1,376.63,247.89Zm21,125.85a5.24,5.24,0,1,1,5.24-5.24A5.24,5.24,0,0,1,397.6,373.74Zm0-21a5.24,5.24,0,1,1,5.24-5.24A5.24,5.24,0,0,1,397.6,352.77Zm0-21a5.24,5.24,0,1,1,5.24-5.24A5.24,5.24,0,0,1,397.6,331.79Zm0-21a5.24,5.24,0,1,1,5.24-5.24A5.24,5.24,0,0,1,397.6,310.82Zm0-21a5.24,5.24,0,1,1,5.24-5.24A5.24,5.24,0,0,1,397.6,289.84Zm0-21a5.24,5.24,0,1,1,5.24-5.24A5.24,5.24,0,0,1,397.6,268.87Zm0-21a5.24,5.24,0,1,1,5.24-5.24A5.24,5.24,0,0,1,397.6,247.89Zm21,125.85a5.24,5.24,0,1,1,5.24-5.24A5.24,5.24,0,0,1,418.58,373.74Z"/><polygon class="cls-62" points="200.72 314.29 206.84 314.29 216.44 320.82 210.32 320.82 200.72 314.29"/><polygon class="cls-63" points="208.89 314.29 215.01 314.29 224.61 320.82 218.5 320.82 208.89 314.29"/><polygon class="cls-64" points="216.91 314.29 223.02 314.29 232.62 320.82 226.51 320.82 216.91 314.29"/><polygon class="cls-65" points="212.64 322.16 218.75 322.16 228.36 328.69 222.24 328.69 212.64 322.16"/><polygon class="cls-66" points="220.81 322.16 226.93 322.16 236.53 328.69 230.41 328.69 220.81 322.16"/><polygon class="cls-67" points="228.82 322.16 234.94 322.16 244.54 328.69 238.43 328.69 228.82 322.16"/><polygon class="cls-68" points="223.82 329.81 229.94 329.81 239.54 336.33 233.42 336.33 223.82 329.81"/><polygon class="cls-69" points="232 329.81 238.11 329.81 247.71 336.33 241.6 336.33 232 329.81"/><polygon class="cls-70" points="240.01 329.81 246.12 329.81 255.73 336.33 249.61 336.33 240.01 329.81"/><path class="cls-71" d="M351.4,167.45c-5,0-9,4.87-9,10.88s4,10.88,9,10.88,9-4.87,9-10.88S356.37,167.45,351.4,167.45Zm0,19.9c-4.12,0-7.46-4-7.46-9s3.34-9,7.46-9,7.46,4,7.46,9S355.52,187.35,351.4,187.35Z"/><path class="cls-72" d="M351.72,175l-3,19.18s5.65,3,7.77,2.29l2.12-.71Z"/><path class="cls-73" d="M356.26,152.33,351,169.28s3,24,2.62,26.83-1.12,9.18,0,13.41,3.37,4.24,10.84,7.06,6,14.82,6,14.82L382.12,234a17,17,0,0,0,20.33-13.19c2.83-13.95,6-33.42,4.68-45.87-2.24-21.18-12-28.94-23.19-31.06S356.26,152.33,356.26,152.33Z"/><path class="cls-74" d="M352.68,159.13c6.09,1.85,8,.66,11.76,4.09s2.8,24.27,2.8,24.27,4.15-11.68,8.29-12.21,5.47,8.21,4.68,11.12-10.06,7.68-10.06,7.68a50.34,50.34,0,0,0,1.59,13c1.85,7.68,3.71,10.85,9.79,14s22,6.09,26.21,1.85,10.06-32.3,8.47-48.44-1.06-25.41-13-32-23.56-10.85-37.33-6.88-27.82,2.12-27.82,2.12S346.59,157.28,352.68,159.13Z"/><path class="cls-75" d="M256.83,297.48s-10.92-3.19-18-.61-15.09,17.67-14.73,19.76,1.72,2.7,2.95,2.33,6.14-9.2,6.14-9.2-.61,1,1.23,2.82,4.3,2.58,7.73,1.72,5.28-6.26,5.28-6.26l5-.58Z"/><path class="cls-76" d="M397.89,376.63s-44.36-9.94-44.24-15.46,7.61-13.44,3-22.27-9.94-9.57-10.28-23.19,10.35-35.77,5.55-52.34a145.19,145.19,0,0,0-5.55-14.58l-22.16,22.65c1.17,21.06,5.47,48.65,5.47,55.14,0,10.3-12.83,48.59-12.83,48.59s32.1,21.37,60.75,20.26a153.23,153.23,0,0,0,39-6.59Z"/><path class="cls-77" d="M330.09,244.71s-3.43.31-8,9.7-16.46,59.21-16.46,59.21l-49.44-18s-5,3.31-6.44,8.84L248.23,310S292,338.08,304,339.94s22.34-3.62,29.7-18.16,21.14-50.25,17.75-61.48-5.85-14.12-12-15.59S330.09,244.71,330.09,244.71Z"/><path class="cls-78" d="M108.53,340.77s23.11,1.5,34.17-5,3.08-23.2,3.08-23.2h15.84s8,16.71-3.08,23.2-34.17,5-34.17,5Z"/><path class="cls-79" d="M185.92,538s-24.49,1.59-36.22-5.29-3.27-24.59-3.27-24.59H129.64s-8.46,17.71,3.27,24.59S169.13,538,169.13,538Z"/><path class="cls-80" d="M56.16,308.35S35,298.3,33,284.67,43.7,260.32,43.7,260.32l-18.34,7.82s-12.82,10.72-10.74,24.35,23.2,23.68,23.2,23.68Z"/><polygon class="cls-81" points="393.58 528.71 318.32 538.11 399.76 538.11 399.76 528.71 393.58 528.71"/><polygon class="cls-82" points="405.92 528.71 481.19 538.11 399.75 538.11 399.75 528.71 405.92 528.71"/><line class="cls-83" x1="416.25" y1="528.71" x2="491.51" y2="538.11"/><rect class="cls-84" x="393.58" y="414.66" width="12.32" height="114.05"/><rect class="cls-85" x="388.44" y="420.53" width="22.62" height="21.07"/><path class="cls-86" d="M503.28,269.32l0-.6H393.78c-2.66,0-4.83,2.59-4.84,5.82h0v.18A408.34,408.34,0,0,1,386,317.43a270.61,270.61,0,0,1-6.15,33.87c-2.82,11-6.53,21.12-11.13,28.64a67.84,67.84,0,0,1-20.14,21c-8.12,5.37-17.26,8.61-26.42,8.6a38.15,38.15,0,0,1-17.9-4.45c-2.44-1.28-5.28.08-6.34,3s.07,6.4,2.51,7.68a46.49,46.49,0,0,0,19.29,5.34l.14.07H429.59c11,0,21.69-3.86,31-10A78.25,78.25,0,0,0,483.9,386.9,101,101,0,0,0,493,366.51l1.65-5.24c.74-2.51,1.45-5,2.1-7.62,4.59-18.32,6.87-38,8-53.14s1.2-25.79,1.2-25.92A6,6,0,0,0,503.28,269.32Z"/><path class="cls-87" d="M388.94,274.55v.18A408.34,408.34,0,0,1,386,317.43a270.6,270.6,0,0,1-6.15,33.87c-2.82,11-6.53,21.12-11.13,28.64a67.84,67.84,0,0,1-20.14,21c-8.12,5.37-17.26,8.61-26.41,8.6a38.15,38.15,0,0,1-17.9-4.45c-2.44-1.28-5.28.08-6.34,3s.07,6.4,2.51,7.68a46.39,46.39,0,0,0,21.73,5.41c11,0,21.69-3.86,31-10a78.25,78.25,0,0,0,23.27-24.29c5.72-9.39,9.8-21,12.88-33.26,4.59-18.32,6.87-38,8-53.14s1.2-25.79,1.2-25.92c0-3.23-2.14-5.85-4.81-5.87s-4.83,2.59-4.84,5.82Z"/></g></g></g></svg>