<svg xmlns="http://www.w3.org/2000/svg" xmlns:xlink="http://www.w3.org/1999/xlink" viewBox="0 0 506.89 600"><defs><style>.cls-1,.cls-2{opacity:0.49;}.cls-1{fill:url(#linear-gradient);}.cls-2{fill:url(#linear-gradient-2);}.cls-3{fill:url(#linear-gradient-3);}.cls-4{fill:url(#linear-gradient-4);}.cls-5{fill:url(#linear-gradient-5);}.cls-6{fill:url(#linear-gradient-6);}.cls-7{fill:url(#linear-gradient-7);}.cls-8{fill:url(#linear-gradient-8);}.cls-9{fill:url(#linear-gradient-9);}.cls-10{fill:url(#linear-gradient-10);}.cls-11{fill:url(#linear-gradient-11);}.cls-12{fill:url(#linear-gradient-12);}.cls-13{fill:url(#linear-gradient-13);}.cls-14{fill:url(#linear-gradient-14);}.cls-15{fill:url(#linear-gradient-15);}.cls-16{fill:#ffd46a;}.cls-17{fill:url(#linear-gradient-16);}.cls-18{fill:url(#linear-gradient-17);}.cls-19{fill:url(#linear-gradient-18);}.cls-20{fill:url(#linear-gradient-19);}.cls-21{fill:url(#linear-gradient-20);}.cls-22{fill:url(#linear-gradient-21);}.cls-23{fill:url(#linear-gradient-22);}.cls-24{fill:#d6e3fa;}.cls-25{fill:url(#linear-gradient-23);}.cls-26{fill:url(#linear-gradient-24);}.cls-27{fill:url(#linear-gradient-25);}.cls-28{fill:url(#linear-gradient-26);}.cls-29{fill:#fff;}.cls-30{fill:url(#linear-gradient-27);}.cls-31{fill:url(#linear-gradient-28);}.cls-32{fill:url(#linear-gradient-29);}.cls-33{fill:url(#linear-gradient-30);}.cls-34{fill:none;stroke:#eb6057;stroke-linecap:round;stroke-linejoin:round;}.cls-35{fill:url(#linear-gradient-31);}.cls-36{fill:url(#linear-gradient-32);}.cls-37{fill:url(#linear-gradient-33);}.cls-38{fill:url(#linear-gradient-34);}.cls-39{fill:url(#linear-gradient-35);}.cls-40{fill:url(#linear-gradient-36);}.cls-41{fill:url(#linear-gradient-37);}.cls-42,.cls-44,.cls-46,.cls-48{opacity:0.45;}.cls-42{fill:url(#linear-gradient-38);}.cls-43{fill:url(#linear-gradient-39);}.cls-44{fill:url(#linear-gradient-40);}.cls-45{fill:url(#linear-gradient-41);}.cls-46{fill:url(#linear-gradient-42);}.cls-47{fill:url(#linear-gradient-43);}.cls-48{fill:url(#linear-gradient-44);}.cls-49{fill:url(#linear-gradient-45);}.cls-50{fill:url(#linear-gradient-46);}.cls-51{fill:url(#linear-gradient-47);}</style><linearGradient id="linear-gradient" x1="-2567.64" y1="114.79" x2="-3317.37" y2="332.56" gradientTransform="matrix(-0.81, -0.13, -0.11, 1.09, -2010.57, -250.09)" gradientUnits="userSpaceOnUse"><stop offset="0" stop-color="#eaf1fc"/><stop offset="1" stop-color="#c0d4f4"/></linearGradient><linearGradient id="linear-gradient-2" x1="-2461.32" y1="351.59" x2="-3211.05" y2="569.36" gradientTransform="matrix(-0.81, 0, 0, 1, -2060.05, 0)" xlink:href="#linear-gradient"/><linearGradient id="linear-gradient-3" x1="-2152.29" y1="340.59" x2="-2080.64" y2="340.59" gradientTransform="matrix(-1.54, 0.28, 0.05, 1.01, -3157.53, 588.18)" gradientUnits="userSpaceOnUse"><stop offset="0" stop-color="#223762"/><stop offset="1" stop-color="#041b48"/></linearGradient><linearGradient id="linear-gradient-4" x1="-2319.69" y1="185.45" x2="-2284.74" y2="185.45" gradientTransform="matrix(-1.52, -0.37, -0.36, 0.95, -3246.79, -565.21)" xlink:href="#linear-gradient-3"/><linearGradient id="linear-gradient-5" x1="-2486.53" y1="-2.55" x2="-2592.13" y2="32.74" gradientTransform="matrix(-0.9, -0.43, -0.43, 0.9, -2071.35, -761.42)" gradientUnits="userSpaceOnUse"><stop offset="0" stop-color="#3769a5"/><stop offset="1" stop-color="#08448b"/></linearGradient><linearGradient id="linear-gradient-6" x1="-2486.39" y1="-2.13" x2="-2591.98" y2="33.16" xlink:href="#linear-gradient-5"/><linearGradient id="linear-gradient-7" x1="-2361.57" y1="105.99" x2="-2494.02" y2="150.25" gradientTransform="matrix(-0.96, -0.28, -0.28, 0.96, -2126.48, -480)" xlink:href="#linear-gradient-5"/><linearGradient id="linear-gradient-8" x1="-1047.68" y1="-205.83" x2="-1153.27" y2="-170.54" gradientTransform="matrix(1.11, 0.27, -0.15, 0.9, 1370.36, 722.07)" gradientUnits="userSpaceOnUse"><stop offset="0" stop-color="#4c93f4"/><stop offset="1" stop-color="#0b63da"/></linearGradient><linearGradient id="linear-gradient-9" x1="-1047.54" y1="-205.41" x2="-1153.13" y2="-170.12" gradientTransform="matrix(1.11, 0.27, -0.15, 0.9, 1370.36, 722.07)" xlink:href="#linear-gradient-5"/><linearGradient id="linear-gradient-10" x1="-975.24" y1="-329.58" x2="-1107.69" y2="-285.32" gradientTransform="matrix(1.07, 0.42, -0.33, 0.84, 1248.43, 951.13)" xlink:href="#linear-gradient-8"/><linearGradient id="linear-gradient-11" x1="-2048.97" y1="566.06" x2="-2154.56" y2="601.35" gradientTransform="matrix(-1.12, 0.21, 0.1, 0.9, -2274.68, 312.55)" xlink:href="#linear-gradient-8"/><linearGradient id="linear-gradient-12" x1="-2048.82" y1="566.49" x2="-2154.42" y2="601.78" gradientTransform="matrix(-1.12, 0.21, 0.1, 0.9, -2274.68, 312.55)" xlink:href="#linear-gradient-5"/><linearGradient id="linear-gradient-13" x1="-1837" y1="595.5" x2="-1969.45" y2="639.76" gradientTransform="matrix(-1.09, 0.35, 0.28, 0.86, -2167.05, 548.66)" xlink:href="#linear-gradient-8"/><linearGradient id="linear-gradient-14" x1="-1984.27" y1="504.45" x2="-2101.53" y2="556.76" gradientTransform="translate(2218.06)" gradientUnits="userSpaceOnUse"><stop offset="0" stop-color="#ff9f5b"/><stop offset="1" stop-color="#e5670e"/></linearGradient><linearGradient id="linear-gradient-15" x1="-1992.97" y1="540.82" x2="-2011.94" y2="540.82" xlink:href="#linear-gradient-14"/><linearGradient id="linear-gradient-16" x1="-2121.27" y1="591.88" x2="-1743" y2="591.88" gradientTransform="translate(2218.06)" xlink:href="#linear-gradient-3"/><linearGradient id="linear-gradient-17" x1="269.45" y1="570.59" x2="314.07" y2="570.59" gradientTransform="translate(4.68)" xlink:href="#linear-gradient-3"/><linearGradient id="linear-gradient-18" x1="112.48" y1="749.92" x2="118.52" y2="731.89" gradientTransform="translate(26.56 -149.95) rotate(-8.77)" xlink:href="#linear-gradient-3"/><linearGradient id="linear-gradient-19" x1="-2408.4" y1="560.49" x2="-2403.38" y2="377.8" gradientTransform="matrix(-1, 0, 0, 1, -2127.54, 0)" xlink:href="#linear-gradient-5"/><linearGradient id="linear-gradient-20" x1="-2408.26" y1="555.39" x2="-2403.36" y2="376.92" gradientTransform="matrix(-1, 0, 0, 1, -2127.54, 0)" xlink:href="#linear-gradient-3"/><linearGradient id="linear-gradient-21" x1="-2411.19" y1="566.99" x2="-2405.76" y2="368.82" gradientTransform="matrix(-1, 0, 0, 1, -2127.54, 0)" xlink:href="#linear-gradient-8"/><linearGradient id="linear-gradient-22" x1="-2672.29" y1="1446.44" x2="-2667.21" y2="1462.57" gradientTransform="matrix(1, 0, 0, -1, 3060.55, 1709.23)" xlink:href="#linear-gradient-8"/><linearGradient id="linear-gradient-23" x1="-2671.9" y1="1472.41" x2="-2669.07" y2="1472.41" gradientTransform="matrix(1, 0, 0, -1, 3061.54, 1750.63)" xlink:href="#linear-gradient-8"/><linearGradient id="linear-gradient-24" x1="-2510.57" y1="260.04" x2="-2498.91" y2="260.04" gradientTransform="matrix(-1, 0, 0, 1, -2127.54, 0)" gradientUnits="userSpaceOnUse"><stop offset="0" stop-color="#f8a695"/><stop offset="1" stop-color="#e56045"/></linearGradient><linearGradient id="linear-gradient-25" x1="-2527.08" y1="280.85" x2="-2469.01" y2="260.63" gradientTransform="matrix(-1, 0, 0, 1, -2127.54, 0)" gradientUnits="userSpaceOnUse"><stop offset="0" stop-color="#ffc063"/><stop offset="0.95" stop-color="#e44d0b"/></linearGradient><linearGradient id="linear-gradient-26" x1="-2383.94" y1="250.31" x2="-2435.97" y2="337.03" xlink:href="#linear-gradient-25"/><linearGradient id="linear-gradient-27" x1="-2421.28" y1="206.55" x2="-2423.21" y2="194.1" xlink:href="#linear-gradient-24"/><linearGradient id="linear-gradient-28" x1="-2405.64" y1="126.05" x2="-2422.46" y2="114.22" gradientTransform="matrix(-0.99, -0.15, -0.15, 0.99, -2072.36, -316.47)" xlink:href="#linear-gradient-3"/><linearGradient id="linear-gradient-29" x1="-2416.43" y1="121.14" x2="-2416.15" y2="100.85" gradientTransform="matrix(-0.99, -0.15, -0.15, 0.99, -2072.36, -316.47)" xlink:href="#linear-gradient-24"/><linearGradient id="linear-gradient-30" x1="-2421.25" y1="136.02" x2="-2400.34" y2="61.43" gradientTransform="matrix(-0.99, -0.15, -0.15, 0.99, -2072.36, -316.47)" xlink:href="#linear-gradient-3"/><linearGradient id="linear-gradient-31" x1="-2567.3" y1="134.89" x2="-2562.99" y2="134.89" gradientTransform="matrix(-1, -0.09, -0.09, 1, -2150.66, -107.85)" xlink:href="#linear-gradient-24"/><linearGradient id="linear-gradient-32" x1="-2358.11" y1="260.04" x2="-2358.11" y2="260.04" xlink:href="#linear-gradient-25"/><linearGradient id="linear-gradient-33" x1="-2355.04" y1="245.15" x2="-2386.93" y2="310.87" xlink:href="#linear-gradient-25"/><linearGradient id="linear-gradient-34" x1="-2457.75" y1="286.88" x2="-2460.86" y2="273.14" gradientTransform="matrix(-1, 0, 0, 1, -2127.54, 0)" xlink:href="#linear-gradient-8"/><linearGradient id="linear-gradient-35" x1="-2435.69" y1="298.11" x2="-2410.8" y2="286.57" xlink:href="#linear-gradient-24"/><linearGradient id="linear-gradient-36" x1="-2386.08" y1="248.71" x2="-2374.63" y2="328.59" xlink:href="#linear-gradient-25"/><linearGradient id="linear-gradient-37" x1="-2364.43" y1="388.95" x2="-2405.98" y2="474.59" gradientTransform="matrix(-1, 0, 0, 1, -2127.54, 0)" xlink:href="#linear-gradient-5"/><linearGradient id="linear-gradient-38" x1="451.25" y1="143.84" x2="464.36" y2="97.06" gradientTransform="matrix(1, 0, 0, 1, 0, 0)" xlink:href="#linear-gradient-3"/><linearGradient id="linear-gradient-39" x1="448.51" y1="140.28" x2="461.81" y2="92.84" gradientTransform="matrix(1, 0, 0, 1, 0, 0)" xlink:href="#linear-gradient-8"/><linearGradient id="linear-gradient-40" x1="332.42" y1="481.43" x2="344.5" y2="438.33" gradientTransform="translate(129.41 -266.2)" xlink:href="#linear-gradient-3"/><linearGradient id="linear-gradient-41" x1="329.9" y1="478.15" x2="342.15" y2="434.44" gradientTransform="translate(48.06 -194.47) rotate(-10.84)" xlink:href="#linear-gradient-8"/><linearGradient id="linear-gradient-42" x1="391.5" y1="183.1" x2="403.51" y2="140.26" gradientTransform="matrix(1, 0, 0, 1, 0, 0)" xlink:href="#linear-gradient-3"/><linearGradient id="linear-gradient-43" x1="390.75" y1="148.08" x2="390.75" y2="221.83" gradientTransform="matrix(1, 0, 0, 1, 0, 0)" xlink:href="#linear-gradient-25"/><linearGradient id="linear-gradient-44" x1="561.27" y1="-13.25" x2="573.27" y2="-56.08" gradientTransform="translate(-81.33 292.86)" xlink:href="#linear-gradient-3"/><linearGradient id="linear-gradient-45" x1="560.51" y1="-48.26" x2="560.51" y2="25.49" gradientTransform="translate(-76.8 185.02) rotate(10.93)" xlink:href="#linear-gradient-25"/><linearGradient id="linear-gradient-46" x1="185.12" y1="-871.62" x2="185.12" y2="-797.87" gradientTransform="matrix(0.84, 0.54, -0.45, 0.71, -128.52, 983.82)" xlink:href="#linear-gradient-25"/><linearGradient id="linear-gradient-47" x1="1994.13" y1="865.12" x2="2007.43" y2="817.68" gradientTransform="matrix(0.5, -0.11, 0.22, 0.97, -717.29, -174.24)" xlink:href="#linear-gradient-8"/></defs><title>Asset 8</title><g id="Layer_2" data-name="Layer 2"><g id="Layer_1-2" data-name="Layer 1"><g id="_8" data-name="8"><path class="cls-1" d="M362.19,131.79C253.41,132.6,187.11,26.69,135.37,6.32,57.63-24.29-44.9,54.91,21.22,274S121.61,548.74,240.71,567.43c95.3,15,179.23-70.76,212.66-139.16C505.68,321.25,471,131,362.19,131.79Z"/><path class="cls-2" d="M461.69,473.67c.17-11.28-11-16.8-17.27-8.57-14.72,19.46-45.43,53.28-71.11,70.65-36,24.37,8.8,70.18,40.22,63.61s47.7-106.28,48.15-125.13Q461.68,474,461.69,473.67Z"/><path class="cls-3" d="M165.16,336.59c11.51,42.21,1.51,85.27-23.36,118-38-15.58-68.52-47.62-80-89.82s-1.51-85.27,23.36-118C123.18,262.36,153.65,294.39,165.16,336.59Z"/><path class="cls-4" d="M205.89,463.28a66.15,66.15,0,0,1-33.67,48.08,65.9,65.9,0,0,1,15.63-103.94A66.15,66.15,0,0,1,205.89,463.28Z"/><path class="cls-5" d="M259.86,252.21a11.19,11.19,0,0,1,5.28,6.73,160,160,0,0,1,5.37,31.39c-7-1.86-13.56-2.82-15.74-.79-3.18,3,7.19,9.93,16.11,16.42a167.29,167.29,0,0,1-1.65,19.93c-10.44,4.34-24.39,8.81-31.33,12.55-7.49,4,10.94,6.3,26.52,9.94a174.5,174.5,0,0,1-32.5,62.41c-10-7.88-21.25-22.57-26.33-19.57-5.49,3.25,7.55,20.25,12.4,34.72-2.89,2.78-5.87,5.41-8.92,7.94-4.51-8.76-9.52-21-14.2-21.41-5.48-.51-9.44,22.3-11.61,39a158.26,158.26,0,0,1-14.32,7,11.24,11.24,0,0,1-9.52-.34c15.1-25.79,62.55-108.35,74.51-148C239.73,290.91,249.86,270.13,259.86,252.21Z"/><path class="cls-6" d="M153.64,451.11a159.79,159.79,0,0,1-5.25-29.62c9.43-.41,20.4-2.08,20.33-6.53-.06-4.09-12.38-6.58-20.85-10,.08-4.27.3-8.56.71-12.86,12.87-3.15,35.61-.95,34.72-6.54-.78-4.87-19.14-8.71-31.6-13.33A174.11,174.11,0,0,1,165,333.63l.05-.1c17.6,7,38.9,17.74,40.22,11.83s-19.13-15-33.88-23.7A173.65,173.65,0,0,1,182,305.47c16.67,3.11,35.73,8.63,37.56,4.85,1.95-4-13.12-14.15-23-22.06q2.61-2.69,5.32-5.25c11.21,7.46,25.12,19.93,25.75,15.7.56-3.8-7.32-16.58-13.62-26.07a161,161,0,0,1,35.75-21.08,11.21,11.21,0,0,1,10,.65c-10,17.92-20.14,38.7-25.93,57.92-12,39.68-59.4,122.25-74.51,148A11.24,11.24,0,0,1,153.64,451.11Z"/><path class="cls-7" d="M153.64,451.11a159.79,159.79,0,0,1-5.25-29.62c9.43-.41,20.4-2.08,20.33-6.53-.06-4.09-12.38-6.58-20.85-10,.08-4.27.3-8.56.71-12.86,12.87-3.15,35.61-.95,34.72-6.54-.78-4.87-19.14-8.71-31.6-13.33A174.11,174.11,0,0,1,165,333.63l.05-.1c17.6,7,38.9,17.74,40.22,11.83s-19.13-15-33.88-23.7A173.65,173.65,0,0,1,182,305.47c16.67,3.11,35.73,8.63,37.56,4.85,1.95-4-13.12-14.15-23-22.06q2.61-2.69,5.32-5.25c11.21,7.46,25.12,19.93,25.75,15.7.56-3.8-7.32-16.58-13.62-26.07a161,161,0,0,1,35.75-21.08,11.21,11.21,0,0,1,10,.65c-10,17.92-20.14,38.7-25.93,57.92-12,39.68-59.4,122.25-74.51,148A11.24,11.24,0,0,1,153.64,451.11Z"/><path class="cls-8" d="M196.17,147.87a13.17,13.17,0,0,0-9.07,1.27,134.48,134.48,0,0,0-24.34,18.21c7.67,3.18,14.39,6.7,15.17,9.49,1.14,4.07-12.82,2.26-25.14,1a123.34,123.34,0,0,0-10.74,14.79c7.06,9.64,17.32,21.62,21.48,28.62,4.49,7.56-14.08-2.63-30.85-10.05a125.2,125.2,0,0,0-7.34,26.11,132.78,132.78,0,0,0-.8,37.6c14.17.93,33.72-2,36.6,3.3,3.12,5.74-19.51,9.14-32.95,16,1,3.75,2.14,7.47,3.42,11.16,9.6-3.16,21.79-8.39,26.43-5.7,5.42,3.14-4.93,21.38-13.22,34.3,2.78,4.76,5.79,9.42,9.05,13.94a15.55,15.55,0,0,0,9.08,5.83c1.8-27.4,8.41-114.52,21.7-149.49C191.11,187.37,194.46,166.59,196.17,147.87Z"/><path class="cls-9" d="M172.71,352.63a134.86,134.86,0,0,0,23.14-17.06c-8.54-6.3-17.74-14.44-14.94-17.46,2.57-2.78,15.6,3.36,25.58,6.41,2.56-3,5-6.09,7.26-9.32-10.06-10.38-32.62-23.35-28.34-26.64,3.72-2.86,23.21,6.2,37.68,11a124.17,124.17,0,0,0,11.38-35.09v-.1c-20.73-6.39-47.2-12.56-44.79-17.48s27.07,1.86,46.19,5.27a133.18,133.18,0,0,0,.06-17.93c-17.46-8.48-38.64-16.82-38-20.6.67-4,20.94-1.39,35-.57q-.78-3.52-1.73-7c-15.05-2-35.7-2.28-33.68-5.59,1.82-3,17-6.76,28.76-9.29a167,167,0,0,0-20.36-37.31,15.6,15.6,0,0,0-9.76-5.94c-1.71,18.72-5.06,39.5-11.5,56.43-13.29,35-19.9,122.09-21.7,149.49A13.39,13.39,0,0,0,172.71,352.63Z"/><path class="cls-10" d="M172.71,352.63a134.86,134.86,0,0,0,23.14-17.06c-8.54-6.3-17.74-14.44-14.94-17.46,2.57-2.78,15.6,3.36,25.58,6.41,2.56-3,5-6.09,7.26-9.32-10.06-10.38-32.62-23.35-28.34-26.64,3.72-2.86,23.21,6.2,37.68,11a124.17,124.17,0,0,0,11.38-35.09v-.1c-20.73-6.39-47.2-12.56-44.79-17.48s27.07,1.86,46.19,5.27a133.18,133.18,0,0,0,.06-17.93c-17.46-8.48-38.64-16.82-38-20.6.67-4,20.94-1.39,35-.57q-.78-3.52-1.73-7c-15.05-2-35.7-2.28-33.68-5.59,1.82-3,17-6.76,28.76-9.29a167,167,0,0,0-20.36-37.31,15.6,15.6,0,0,0-9.76-5.94c-1.71,18.72-5.06,39.5-11.5,56.43-13.29,35-19.9,122.09-21.7,149.49A13.39,13.39,0,0,0,172.71,352.63Z"/><path class="cls-11" d="M124.32,304.35a13.14,13.14,0,0,1,9,1.83,134.53,134.53,0,0,1,23.14,19.67c-7.84,2.7-14.74,5.8-15.68,8.53-1.38,4,12.63,3,25,2.59a123.56,123.56,0,0,1,9.8,15.42c-7.62,9.19-18.56,20.5-23.12,27.23-4.93,7.26,14.19-1.75,31.33-8.13A125.47,125.47,0,0,1,189.47,398,133,133,0,0,1,188,435.59c-14.17.06-33.47-4.09-36.66,1-3.45,5.53,18.88,10.33,31.85,18-1.21,3.68-2.59,7.32-4.08,10.92-9.37-3.75-21.2-9.72-26-7.32-5.59,2.8,3.62,21.64,11.1,35-3.06,4.57-6.33,9-9.86,13.35a15.49,15.49,0,0,1-9.4,5.26c-.14-27.45-1.47-114.8-12.59-150.51C127,344.09,124.9,323.14,124.32,304.35Z"/><path class="cls-12" d="M135.33,510.13a134.9,134.9,0,0,1-22-18.46c8.89-5.76,18.54-13.31,15.93-16.5-2.39-2.93-15.74,2.39-25.87,4.82-2.37-3.14-4.61-6.39-6.67-9.75,10.65-9.73,33.9-21.29,29.84-24.83-3.53-3.08-23.49,4.75-38.19,8.61a124.44,124.44,0,0,1-9.21-35.72s0-.07,0-.1c21-5.1,47.77-9.62,45.67-14.68s-27.08.18-46.33,2.4a133.36,133.36,0,0,1,1-17.9c17.91-7.39,39.5-14.4,39.1-18.21-.43-4.05-20.78-2.68-34.83-2.73q1-3.46,2.15-6.89c15.11-1.07,35.7-.07,33.89-3.5-1.63-3.08-16.56-7.8-28.09-11a166.71,166.71,0,0,1,22.53-36,15.54,15.54,0,0,1,10.08-5.33c.57,18.79,2.66,39.73,8,57,11.13,35.72,12.46,123.07,12.59,150.51A13.35,13.35,0,0,1,135.33,510.13Z"/><path class="cls-13" d="M135.33,510.13a134.9,134.9,0,0,1-22-18.46c8.89-5.76,18.54-13.31,15.93-16.5-2.39-2.93-15.74,2.39-25.87,4.82-2.37-3.14-4.61-6.39-6.67-9.75,10.65-9.73,33.9-21.29,29.84-24.83-3.53-3.08-23.49,4.75-38.19,8.61a124.44,124.44,0,0,1-9.21-35.72s0-.07,0-.1c21-5.1,47.77-9.62,45.67-14.68s-27.08.18-46.33,2.4a133.36,133.36,0,0,1,1-17.9c17.91-7.39,39.5-14.4,39.1-18.21-.43-4.05-20.78-2.68-34.83-2.73q1-3.46,2.15-6.89c15.11-1.07,35.7-.07,33.89-3.5-1.63-3.08-16.56-7.8-28.09-11a166.71,166.71,0,0,1,22.53-36,15.54,15.54,0,0,1,10.08-5.33c.57,18.79,2.66,39.73,8,57,11.13,35.72,12.46,123.07,12.59,150.51A13.35,13.35,0,0,1,135.33,510.13Z"/><polygon class="cls-14" points="190.87 584.39 123.63 584.39 113.64 497.26 200.85 497.26 190.87 584.39"/><polygon class="cls-15" points="113.47 497.26 123.45 584.39 149.18 584.39 141.73 497.26 113.47 497.26"/><rect class="cls-16" x="110.24" y="494.77" width="94.01" height="21.47"/><polygon class="cls-17" points="475.06 599.36 96.79 599.36 122.75 584.39 451.12 584.39 475.06 599.36"/><path class="cls-18" d="M279.25,555.47l-5.12,28.92s18,.43,21.94,1,22.35,0,22.35,0,.74,0,0-3.19-13.88-6.39-17.19-7.12h0a5.15,5.15,0,0,1-3.94-4.08l-1.58-8.45Z"/><path class="cls-19" d="M246.87,544,234.74,557s12.79,19.63,15.43,21.85,14.91,7.79,18,7,3.45-3.93,1.55-7-8.16-8.83-9.27-11.07.13-15.48.13-15.48Z"/><path class="cls-20" d="M315.51,344.86l-2.57,105.77s-50.79,105.82-51.86,107.48-7.3,2.49-14.56-.83-6.48-7.73-6.48-7.73l31.89-110.72L240,340.66Z"/><path class="cls-21" d="M315.51,344.86l-2.57,105.77L300.84,475.8a26.47,26.47,0,0,1-9.48-2.9c-14.78-7.52-13.48,13-20.74,30.07-5,11.68-19.33,37-28,51.9-3.08-2.71-2.64-5.32-2.64-5.32l31.89-110.72L240,340.66Z"/><path class="cls-22" d="M238.14,328.57s-2.4.24-3.21,18.38.44,39.24,11.64,52,47.12,59.85,47.12,59.85l-17.11,96s.93,5,8,8.08,12.09,1.86,12.09,1.86,30.77-98.61,26.61-118.09-26.9-115.05-26.9-115.05Z"/><path class="cls-23" d="M385.63,244h8.9a0,0,0,0,1,0,0v26a1.18,1.18,0,0,1-1.18,1.18h-6.54a1.18,1.18,0,0,1-1.18-1.18V244a0,0,0,0,1,0,0Z" transform="translate(791.75 496.57) rotate(177.32)"/><polygon class="cls-24" points="395.15 270.9 392.4 276.72 389.57 276.88 386.26 271.32 395.15 270.9"/><rect class="cls-25" x="389.63" y="276.78" width="2.83" height="2.89" transform="translate(794.67 537.88) rotate(177.32)"/><path class="cls-26" d="M373.52,257.18a20.61,20.61,0,0,1,4.66-6.41c3.6-3.6,15.36-1.36,17.4,1.17s.29,2.82-1.56,3.4-8.07-.29-8.07-.29l.31,14.3a14.81,14.81,0,0,1-7.5-.69c-4.19-1.34-3.6,2.53-3.6,2.53Z"/><path class="cls-27" d="M313,210.81S336,275.37,336,275.56l0,.19,36.75-19.25s4.86,4.47,6.61,9.14l1.75,4.67s-26.25,20.8-40.64,26.83S301,272.06,301,272.06Z"/><path class="cls-28" d="M271.92,207.41S245.22,211,239,218.14s-6.35,15.81-6.35,27.48,5.83,42,4.28,64.94-4.28,35-4.28,35,16.33,17.5,45.5,13.22,42.48-12.29,42.48-12.29-7.76-54.79-8-63.05,9.68-22.65,9.38-32-3-32.92-6.49-37.41L312,209.55Z"/><path class="cls-29" d="M307.4,205.48a13.5,13.5,0,0,1,4.57,4.08c2.53,3.21-1.88,8.39-8.81,7.29a8.16,8.16,0,0,1-5.12-2.63s.18,3.47-3.43,6.46c-2.66,2.19-6.62,4.63-14.26-1.49s-8.42-11.76-8.42-11.76l8.42-1.39Z"/><path class="cls-30" d="M306.43,190.13l1,15.35s-2.91,5.2-11.31,5.33S280.34,206,280.34,206l4.77-14.88Z"/><path class="cls-31" d="M335.45,135.41s6.16,9.15.72,29.24c-3.11,11.49-8,20.12-9.58,29.72s-5.91,10.45-10.59,11.05-21.14-6.23-27.5-6.24-14.27,1.53-20-2.49c-3.23-2.26-4.85-27.85-4.85-27.85l19.85-39,11.83-6.5Z"/><path class="cls-32" d="M331.13,160.48c-2.29,11-5.15,24.29-11.6,35.29s-29.93,10-36.21-.5-6.69-25.8-6.69-25.8-8-.67-9.18-6.93.7-15.07,4.67-16.25,6.89,3.44,6.89,3.44.42-11.68,9.7-17.65,40.07,1.3,41.57,3.05S333.42,149.47,331.13,160.48Z"/><path class="cls-33" d="M333.58,129.16s2.76,4.8,2.44,14-6.29,12.25-16.32,13.09-17-2.82-22.7-2.56-9.65,14.19-9.68,28.65-6.5,15.58-12.16,16.58-27.56-13.65-14.35-40.09c10.85-21.71,8.06-32.16,26.51-39.62s34.11.58,39.3,3.88S333.58,129.16,333.58,129.16Z"/><path class="cls-34" d="M322,169.94s-1.17,13.6-1.17,16.57-4.06.23-5.31,0"/><path class="cls-35" d="M394.77,256.58s-3.17.1-4.54,4.27-.42,10,1.87,9.94,5.1-2,6.11-7.6S394.77,256.58,394.77,256.58Z"/><path class="cls-36" d="M230.57,260"/><path class="cls-37" d="M247.73,243.86s-.65,13.61,0,15.68,42.77,26.82,42.77,26.82l-4,14.41s-26.42-2.86-32.19-4.28-10,5.83-4.86,12.83S268,317.87,267,325s8.3,13.22,18.73,16.46c7.29,2.26,24.75,4,34.62,4.87l0,.15s-13.32,8-42.48,12.29-45.5-13.22-45.5-13.22,2.72-12.05,4.28-35c1.54-22.66-4.13-52.53-4.27-64.49Z"/><path class="cls-38" d="M294.86,322s6.11-43.75,17.83-51.91,15,6.76,15,6.76h32.86s-3.31-14.93-15-6.76S327.72,322,327.72,322Z"/><path class="cls-29" d="M350.94,267.75H353c5.73.9,7.55,9.12,7.55,9.12H327.72s-1.82-8.21-7.55-9.12Z"/><path class="cls-29" d="M320.17,267.75h-2.09A7,7,0,0,1,320.17,267.75Z"/><path class="cls-29" d="M353,267.75h-2.09A7,7,0,0,1,353,267.75Z"/><path class="cls-39" d="M289.81,287.1s2.43-2.15,8.17-2.2l5.74-.06-1.06,3.28s-.78,1.45,3.88,2,7-2.53,9.92-1,3,4.8-1.23,9.33-10.24,6.93-17.89,6.42A15.19,15.19,0,0,1,286,298.38Z"/><path class="cls-40" d="M244.61,217.79a7.65,7.65,0,0,0-9.13,3.68,349.15,349.15,0,0,0-15.07,32.62c-9.72,24.06,15.13,30.15,34.34,37.67a176.84,176.84,0,0,0,31.92,9s4.11-5.55,4.07-10l0-4.43-49.27-24.78s11.57-8.64,13.85-22.19-4.67-19.65-10.69-21.61Z"/><path class="cls-41" d="M241.21,391.17c8.88,1.39,19.54,3.84,24.13,7.91,8.56,7.58,23.92,44.9,34.22,51s18.67,12,10.69,17.8-7,35.58-9.72,50.75c-2,11.19-14.8,31.05-21.38,40.72a10,10,0,0,1-2.73-4.58l17.11-96S257.61,411.76,246.41,399A37.33,37.33,0,0,1,241.21,391.17Z"/><rect class="cls-42" x="436.31" y="105.16" width="40.27" height="40.27"/><path class="cls-43" d="M424.28,139.35l6.14-1.79c6.14-1.79,5.89-14.53,5.89-14.53v-21.3h40.27V123s.25,12.74-5.89,14.53l-6.14,1.79Z"/><rect class="cls-44" x="448.07" y="179.59" width="37.1" height="37.1" transform="translate(-28.95 91.33) rotate(-10.84)"/><path class="cls-45" d="M439.94,216.44l5.25-2.69c5.25-2.69,2.81-14.17,2.81-14.17l-3.69-19.28,36.44-7,3.69,19.28s2.43,11.49-2.81,14.17l-5.25,2.69Z"/><rect class="cls-46" x="377.82" y="147.68" width="36.87" height="36.87"/><path class="cls-47" d="M366.8,179l5.62-1.64c5.62-1.64,5.4-13.31,5.4-13.31v-19.5H414.7V164s.22,11.67-5.4,13.31L403.68,179Z"/><rect class="cls-48" x="466.26" y="244.19" width="36.87" height="36.87" transform="translate(58.57 -87.11) rotate(10.93)"/><path class="cls-49" d="M453.33,269.68l5.83-.55c5.83-.55,7.82-12,7.82-12l3.7-19.15,36.2,7-3.7,19.15s-2,11.5-7.82,12l-5.83.55Z"/><path class="cls-50" d="M386.72,473.59l5.49,1.85c5.49,1.85,10.56-6.55,10.56-6.55l8.8-13.84,31.12,19.78-8.8,13.84s-5.07,8.4-10.56,6.55l-5.49-1.85Z"/><path class="cls-51" d="M461,443.48l2.68-2.45c2.68-2.45-.28-14.84-.28-14.84l-4.73-20.77,20.16-4.6,4.73,20.77s3,12.39.28,14.84l-2.68,2.45Z"/></g></g></g></svg>