<?xml version="1.0" encoding="UTF-8"?>
<svg width="446px" height="95px" viewBox="0 0 446 95" version="1.1" xmlns="http://www.w3.org/2000/svg" xmlns:xlink="http://www.w3.org/1999/xlink">
    <!-- Generator: Sketch 61.2 (89653) - https://sketch.com -->
    <title>logo</title>
    <desc>Created with Sketch.</desc>
    <g id="logo" stroke="none" stroke-width="1" fill="none" fill-rule="evenodd">
        <path d="M353.325771,79.7940772 L358.516622,79.7940772 L358.516622,79.0225543 L353.325771,79.0225543 L353.325771,79.7940772 Z M353.325771,77.9333456 L358.516622,77.9333456 L358.516622,77.1749335 L353.325771,77.1749335 L353.325771,77.9333456 Z M361,81.7022096 C361,81.7022096 360.976572,82.0945265 360.950088,82.2780783 C360.690342,84.9214266 360.407167,86.0338315 359.999722,86.4382507 C359.703306,86.7559366 359.380406,86.865866 358.998426,86.9031814 C358.652097,86.9394884 358.071488,86.9394884 357.45319,86.9273861 C357.440967,86.5602824 357.292249,86.0338315 357.070192,85.6909324 C357.588666,85.7393417 358.071488,85.7393417 358.294564,85.7393417 C358.515603,85.7393417 358.626632,85.7161456 358.750903,85.5941139 C358.986202,85.3732465 359.232707,84.6269368 359.405871,82.9749702 L358.343458,82.9749702 C357.700713,84.6148345 356.648486,86.0701384 355.511714,87 C355.26521,86.7559366 354.685619,86.3031081 354.351514,86.1074539 C355.389481,85.3732465 356.266506,84.2588246 356.82165,82.9749702 L355.759237,82.9749702 C354.845541,84.4928028 353.461246,85.8018704 352.075933,86.6460072 C351.842671,86.3535344 351.298731,85.8391858 350.990092,85.6052077 C352.200204,85.0071514 353.325771,84.064179 354.102972,82.9749702 L353.028336,82.9749702 C352.422261,83.5498304 351.756089,84.064179 351.112325,84.4554873 C350.865821,84.1862107 350.309658,83.6476575 350,83.4267901 C351.125567,82.8398276 352.212427,81.9593839 352.967219,80.9548914 L351.879341,80.9548914 L351.879341,76 L360.011946,76 L360.011946,80.9548914 L354.685619,80.9548914 C354.524678,81.2120656 354.351514,81.4571376 354.166126,81.7022096 L361,81.7022096 Z" id="Fill-1" fill="#898989"></path>
        <path d="M368.383025,84.9355065 L369.808006,84.9355065 L369.808006,83.8800633 L368.383025,83.8800633 L368.383025,84.9355065 Z M368.383989,82.6264827 L369.808969,82.6264827 L369.808969,81.6406291 L368.383989,81.6406291 L368.383989,82.6264827 Z M368.383989,80.3976803 L369.808969,80.3976803 L369.808969,79.3770319 L368.383989,79.3770319 L368.383989,80.3976803 Z M373,86.2374132 L368.383025,86.2374132 L368.383025,87 L367.074626,87 L367.074626,80.9727616 C366.922396,81.1718654 366.758606,81.3709692 366.594815,81.5584747 C366.477271,81.2066602 366.185338,80.5851858 365.999387,80.256568 C366.875186,79.1895264 367.658492,77.4304543 368.019795,76.0821545 L369.353245,76.4571655 C369.166331,77.0080836 368.956293,77.5590018 368.699045,78.1224848 L370.206884,78.1224848 C370.054655,77.6653194 369.762722,77.0554433 369.481387,76.5866796 L370.663572,76.0937527 C371.001752,76.5973113 371.340895,77.2777436 371.493124,77.7233108 L370.62696,78.1224848 L372.848734,78.1224848 L372.848734,79.3770319 L371.095209,79.3770319 L371.095209,80.3976803 L372.579925,80.3976803 L372.579925,81.6406291 L371.095209,81.6406291 L371.095209,82.6264827 L372.604012,82.6264827 L372.604012,83.8800633 L371.095209,83.8800633 L371.095209,84.9355065 L373,84.9355065 L373,86.2374132 Z M362.140667,85.1471751 C363.203381,84.9480713 364.841289,84.5604956 366.4079,84.2086811 L366.536043,85.3694754 C365.098537,85.7570512 363.566611,86.1562253 362.396952,86.4722784 L362.140667,85.1471751 Z M366.245073,81.9450839 C366.196899,82.2978649 366.185338,82.8255865 366.196899,83.1068447 C363.310327,83.6577629 362.830516,83.787277 362.526058,83.973816 C362.468249,83.7167209 362.258211,83.1300413 362.116581,82.8130217 C362.409477,82.743432 362.666725,82.4621738 363.028992,82.0398032 C363.203381,81.8513312 363.543488,81.4067305 363.91828,80.8548458 C362.888324,80.9727616 362.607953,81.0423513 362.433564,81.1245058 C362.362267,80.8664441 362.152229,80.2459362 362,79.8921887 C362.245686,79.8351639 362.444162,79.5887005 362.70141,79.2020912 C362.958658,78.837712 363.730402,77.3724629 364.139879,76 L365.378909,76.5866796 C364.946308,77.6759511 364.30367,78.8261137 363.660068,79.7646077 L364.653412,79.6940515 C364.91066,79.2484843 365.156346,78.7913189 365.366383,78.3331869 L366.454147,79.0020209 C365.835596,80.1386521 365.07445,81.2762499 364.268021,82.2621035 L366.245073,81.9450839 Z" id="Fill-3" fill="#898989"></path>
        <path d="M377.285505,81.5522427 L379.81862,81.5522427 L379.81862,81.0365875 L377.285505,81.0365875 L377.285505,81.5522427 Z M377.285505,80.1320141 L379.81862,80.1320141 L379.81862,79.6627968 L377.285505,79.6627968 L377.285505,80.1320141 Z M377.285505,78.7582234 L379.81862,78.7582234 L379.81862,78.2657872 L377.285505,78.2657872 L377.285505,78.7582234 Z M375.805529,79.5689534 C375.579192,79.7566403 375.353889,79.9336851 375.128585,80.1097625 C374.889846,79.8156552 374.413401,79.369657 374.074412,79.1935796 C375.467574,78.2657872 376.482474,77.0564644 377.046766,76.0474055 L378.563948,76.3173263 C378.37585,76.6114336 378.175351,76.9045734 377.962449,77.1977133 L379.994316,77.1977133 C379.88063,76.9045734 379.743175,76.6114336 379.604685,76.3531223 L380.947205,76 C381.172509,76.3647318 381.411248,76.8223395 381.54767,77.1977133 L385.072948,77.1977133 L385.072948,78.2657872 L381.246921,78.2657872 L381.246921,78.7582234 L384.507622,78.7582234 L384.507622,79.6627968 L381.246921,79.6627968 L381.246921,80.1320141 L384.520024,80.1320141 L384.520024,81.0365875 L381.246921,81.0365875 L381.246921,81.5522427 L385.373697,81.5522427 L385.373697,82.6096746 L377.284472,82.6096746 L377.284472,82.9260334 L375.805529,82.9260334 L375.805529,79.5689534 Z M382.1378,84.428496 C383.253983,85.0157432 384.683318,85.4975374 386,85.7664908 C385.686849,86.0373791 385.260012,86.5530343 385.072948,86.8819701 C383.605374,86.4949868 382.012747,85.7906772 380.77151,84.9576957 L380.77151,87 L379.291534,87 L379.291534,85.0157432 C378.050297,85.8487247 376.431832,86.5530343 374.964258,86.940985 C374.739988,86.6004398 374.313151,86.0847845 374,85.7906772 C375.366291,85.5207564 376.8473,85.0157432 378.013091,84.428496 L374.413401,84.428496 L374.413401,83.3139842 L379.291534,83.3139842 L379.291534,82.7151275 L380.77151,82.7151275 L380.77151,83.3139842 L385.686849,83.3139842 L385.686849,84.428496 L382.1378,84.428496 Z" id="Fill-4" fill="#898989"></path>
        <path d="M395.061017,80.3165197 L393.650847,80.3165197 L393.650847,83.4323778 C393.650847,84.093348 393.556901,84.4248438 393.145278,84.6461779 C392.757869,84.8665013 392.229056,84.8907571 391.512349,84.8907571 C391.4523,84.5107497 391.242131,83.9478133 391.064891,83.5910511 C391.500726,83.6163175 391.958838,83.6163175 392.110896,83.6041896 C392.263923,83.6041896 392.31138,83.5667953 392.31138,83.4192393 L392.31138,81.7647924 C391.441646,82.6713524 390.419855,83.4323778 389.514286,83.9336641 C389.338015,83.6648291 388.950605,83.2110437 388.644552,82.953326 C389.703148,82.3641125 390.877966,81.4322859 391.770944,80.3165197 L388.950605,80.3165197 L388.950605,79.0299522 L392.31138,79.0299522 L392.31138,77.7059904 L393.650847,77.7059904 L393.650847,79.0299522 L395.061017,79.0299522 L395.061017,80.3165197 Z M388.444068,85.2596472 L395.484262,85.2596472 L395.484262,77.3371003 L388.444068,77.3371003 L388.444068,85.2596472 Z M397,76 L397,87 L395.484262,87 L395.484262,86.5704704 L388.444068,86.5704704 L388.444068,87 L387,87 L387,76 L397,76 Z" id="Fill-5" fill="#898989"></path>
        <path d="M405.908101,83.5808868 L407.713407,83.5808868 L407.713407,83.045213 L405.908101,83.045213 L405.908101,83.5808868 Z M405.908101,82.1846851 L407.713407,82.1846851 L407.713407,81.6739263 L405.908101,81.6739263 L405.908101,82.1846851 Z M405.908101,80.8143567 L407.713407,80.8143567 L407.713407,80.3256381 L405.908101,80.3256381 L405.908101,80.8143567 Z M410,84.696315 L408.158935,84.696315 C408.745563,85.1744926 409.471358,85.8021605 409.825075,86.244882 L408.791952,86.9760432 C408.428571,86.4997822 407.654454,85.7427476 407.045598,85.2319888 L407.830346,84.696315 L405.379459,84.696315 L406.423212,85.0575834 C405.931295,85.7427476 405.133017,86.5227807 404.465208,87 C404.242927,86.7786393 403.749077,86.3723321 403.467844,86.1854691 C404.09023,85.8021605 404.758039,85.2434881 405.181339,84.696315 L403.492005,84.696315 L403.492005,83.5808868 L404.688455,83.5808868 L404.688455,80.3256381 L403.938499,80.3256381 L403.938499,79.3951564 C403.808997,79.5580625 403.68046,79.6979702 403.549991,79.8378779 C403.385697,79.6510149 403.011685,79.3137033 402.730452,79.1057583 L401.346512,79.1057583 C401.333948,79.535064 401.323318,79.9423295 401.31172,80.3601359 L403.223335,80.3601359 C403.223335,80.3601359 403.223335,80.7444028 403.210771,80.8958097 C403.151819,84.5228678 403.092866,85.8836136 402.812599,86.2784215 C402.624143,86.5927346 402.424091,86.6971862 402.120629,86.76714 C401.861624,86.8255946 401.476015,86.8255946 401.053681,86.813137 C401.02952,86.4413276 400.900984,85.9305689 400.73669,85.6047565 C401.041118,85.627755 401.287559,85.6392543 401.451854,85.6392543 C401.604551,85.6392543 401.674135,85.6047565 401.756282,85.4648489 C401.908979,85.2204896 401.956335,84.2670093 402.002724,81.61643 L401.251801,81.61643 C401.111668,83.708337 400.771481,85.6047565 399.916183,86.9530447 C399.704533,86.6387316 399.317958,86.2314662 399,86.0465197 C399.998331,84.4299155 400.091109,81.8253332 400.138464,79.1057583 L399.107275,79.1057583 L399.107275,77.8830037 L400.924179,77.8830037 C400.783079,77.4421988 400.514409,76.8490287 400.279564,76.3727677 L401.463451,76.0584546 C401.744685,76.5471731 402.050079,77.2093388 402.214374,77.6281035 L401.416096,77.8830037 L403.163416,77.8830037 L403.163416,78.3841798 C403.66693,77.7085983 404.067036,76.8720272 404.312511,76 L405.532156,76.2798153 C405.450009,76.5577141 405.344667,76.8375294 405.250923,77.1163864 L409.882095,77.1163864 L409.882095,78.2327729 L404.723247,78.2327729 C404.524161,78.593083 404.312511,78.9064378 404.078633,79.2092517 L404.688455,79.2092517 L404.688455,78.5700845 L405.908101,78.5700845 L405.908101,79.2092517 L407.713407,79.2092517 L407.713407,78.5700845 L408.934019,78.5700845 L408.934019,79.2092517 L409.7178,79.2092517 L409.7178,80.3256381 L408.934019,80.3256381 L408.934019,83.5808868 L410,83.5808868 L410,84.696315 Z" id="Fill-6" fill="#898989"></path>
        <path d="M417.037181,78.3985208 L417.037181,80.2273557 L417.284406,79.9603304 C418.618202,80.5894727 420.555309,81.5912977 421.494358,82.3145711 L420.407788,83.5843819 C419.690529,82.9898185 418.284499,82.139756 417.037181,81.4635482 L417.037181,87 L415.457177,87 L415.457177,78.3985208 L411,78.3985208 L411,77 L422,77 L422,78.3985208 L417.037181,78.3985208 Z" id="Fill-7" fill="#898989"></path>
        <path d="M430.696292,76 C431.406599,77.4847534 432.827213,79.2319283 434,80.273722 C433.620454,80.5489686 433.099432,81.112287 432.814529,81.4940807 C431.631009,80.2608969 430.198687,78.3223318 429.299095,76.5741704 L430.696292,76 Z M430.908994,82.1037668 C431.89152,83.4208072 433.016498,85.1216143 433.585329,86.2344395 L432.176424,87 C431.997871,86.6053812 431.73736,86.1387444 431.4427,85.6365919 C425.712436,86.1278924 424.906511,86.1742601 424.326947,86.3903139 C424.255721,86.1022422 423.983502,85.3130045 423.782508,84.8947085 C424.172787,84.7861883 424.456715,84.4872646 424.894802,83.9495964 C425.391432,83.4336323 426.824729,81.3747085 427.700905,79.3641256 L429.274703,80.0468161 C428.411212,81.698296 427.297942,83.3024215 426.208089,84.5947982 L430.625067,84.2958744 C430.269913,83.7562332 429.903051,83.2067265 429.571315,82.7272646 L430.908994,82.1037668 Z M427.593578,76.5268161 C426.824729,78.4663677 425.569984,80.3339013 424.326947,81.4940807 C424.031311,81.2316592 423.379546,80.7166816 423,80.4769507 C424.280114,79.4834978 425.4168,77.8073543 426.054905,76.0838565 L427.593578,76.5268161 Z" id="Fill-8" fill="#898989"></path>
        <path d="M438.158006,83.5512083 L441.231682,83.5512083 L441.231682,81.8580143 L438.158006,81.8580143 L438.158006,83.5512083 Z M438.158006,84.8385353 L438.158006,85.7480938 L436.743793,85.7480938 L436.743793,80.5696466 L442.658961,80.5696466 L442.658961,84.8385353 L438.158006,84.8385353 Z M436.12162,79.6361524 L443.293195,79.6361524 L443.293195,78.3217676 L436.12162,78.3217676 L436.12162,79.6361524 Z M446,85.1288864 C446,85.9864106 445.854257,86.4411898 445.329581,86.7065644 C444.830033,86.971939 444.050055,87.0104444 442.964519,86.9979561 C442.915268,86.5556651 442.695145,85.8105349 442.488089,85.3682439 C443.17057,85.4192374 443.976681,85.4067492 444.206855,85.394261 C444.426978,85.394261 444.512413,85.3318199 444.512413,85.1163982 L444.512413,77.4257381 L436,77.4257381 L436,76 L446,76 L446,85.1288864 Z" id="Fill-9" fill="#898989"></path>
        <path d="M118.667744,23.4482647 L118.667744,23.5256259 L120.595623,23.5256259 C121.606345,23.5256259 122.372356,23.0498549 122.372356,21.8546256 C122.372356,20.7357903 121.702996,20.2087676 120.5401,20.2087676 L118.682139,20.2087676 L118.667744,23.4482647 Z M120.473267,24.7353605 L118.682139,24.7353605 L118.695505,27.9100677 C118.695505,27.9613194 118.654377,28 118.599882,28 L117.096651,28 C117.041128,28 117,27.9613194 117,27.9100677 L117.026733,23.4482647 L117,19.0899323 C117,19.0377135 117.041128,19 117.096651,19 L120.473267,19 C122.673619,19 124,19.9515419 124,21.8285162 C124,23.7054905 122.632491,24.7353605 120.473267,24.7353605 L120.473267,24.7353605 Z" id="Fill-10" fill="#898989"></path>
        <path d="M127.51451,26.8963304 C128.712615,26.8963304 129.293012,26.1169248 129.293012,24.5190456 C129.293012,22.9348402 128.700178,22.1046463 127.5,22.1046463 C126.273912,22.1163667 125.695588,22.948514 125.695588,24.5327194 C125.695588,26.1042277 126.301895,26.8963304 127.51451,26.8963304 M127.51451,28 C125.267545,28 124,26.6365285 124,24.5190456 C124,22.4025394 125.267545,21 127.51451,21 C129.746965,21 131,22.3634715 131,24.4809544 C131,26.6101577 129.746965,28 127.51451,28" id="Fill-11" fill="#898989"></path>
        <path d="M136.773941,28 C136.723378,28 136.67377,27.9591062 136.660414,27.9049219 L135.442146,22.3995911 L134.37652,27.9049219 C134.37652,27.9591062 134.326912,28 134.27635,28 L132.665031,28 C132.615423,28 132.562953,27.9591062 132.550551,27.9049219 L131.003151,21.0950781 C130.990749,21.0408938 131.015553,21 131.067069,21 L132.422714,21 C132.475184,21 132.525746,21.0408938 132.525746,21.0950781 L133.539856,26.6136994 L134.63124,21.0950781 C134.63124,21.0408938 134.682757,21 134.732365,21 L136.394246,21 C136.443854,21 136.49537,21.0408938 136.49537,21.0950781 L137.574353,26.5053308 L138.588462,21.0950781 C138.588462,21.0408938 138.639025,21 138.689587,21 L139.933612,21 C139.983221,21 140.009933,21.0408938 139.996577,21.0950781 L138.49974,27.9049219 C138.487337,27.9591062 138.435821,28 138.385259,28 L136.773941,28 Z" id="Fill-12" fill="#898989"></path>
        <path d="M144.5,22.0911248 C143.500448,22.0911248 142.903014,22.6625733 142.722322,23.7400223 L146.194121,23.7400223 C146.125187,22.8696623 145.597732,22.0911248 144.5,22.0911248 L144.5,22.0911248 Z M147.749329,25.5579124 C147.804685,25.5579124 147.846464,25.5979626 147.832886,25.6497349 C147.638615,26.9479486 146.471949,28 144.541779,28 C142.235601,28 141,26.5591683 141,24.5195367 C141,22.4027351 142.319158,21 144.485377,21 C146.707998,21 147.970755,22.4027351 148,24.701228 C148,24.7530003 147.958221,24.7920737 147.902865,24.7920737 L142.666965,24.7920737 C142.736944,26.2211834 143.360489,26.8961764 144.568935,26.8961764 C145.444196,26.8961764 146.013429,26.4937203 146.221277,25.6497349 C146.221277,25.5979626 146.276634,25.5579124 146.333035,25.5579124 L147.749329,25.5579124 Z" id="Fill-13" fill="#898989"></path>
        <path d="M149.084507,28 C149.036347,28 149,27.9594203 149,27.9056522 L149.036347,24.4928986 L149,21.1481159 C149,21.0943478 149.036347,21.0537681 149.084507,21.0537681 L150.365743,21.0537681 C150.413903,21.0537681 150.45025,21.0943478 150.45025,21.1481159 L150.401181,22.2681159 C150.872785,21.4311594 151.681508,21 152.576556,21 C152.685597,21 152.805543,21.0131884 152.914584,21.0405797 C152.963653,21.0405797 153,21.0943478 153,21.1481159 L153,22.2275362 C153,22.2802899 152.963653,22.3208696 152.914584,22.3076812 C152.830077,22.3076812 152.721945,22.2944928 152.612903,22.2944928 C151.440709,22.2944928 150.485688,23.0634783 150.45025,24.6410145 L150.45025,27.9056522 C150.45025,27.9594203 150.413903,28 150.365743,28 L149.084507,28 Z" id="Fill-14" fill="#898989"></path>
        <path d="M156.499478,22.0911248 C155.499776,22.0911248 154.903298,22.6625733 154.721534,23.7400223 L158.193852,23.7400223 C158.125951,22.8696623 157.597374,22.0911248 156.499478,22.0911248 L156.499478,22.0911248 Z M159.749291,25.5579124 C159.804656,25.5579124 159.846441,25.5979626 159.832861,25.6497349 C159.638561,26.9479486 158.471721,28 156.541262,28 C154.235786,28 153,26.5591683 153,24.5195367 C153,22.4027351 154.318311,21 156.485898,21 C158.707805,21 159.971795,22.4027351 160,24.701228 C160,24.7530003 159.958215,24.7920737 159.90285,24.7920737 L154.666169,24.7920737 C154.737203,26.2211834 155.360842,26.8961764 156.568423,26.8961764 C157.443814,26.8961764 158.013132,26.4937203 158.222056,25.6497349 C158.222056,25.5979626 158.277421,25.5579124 158.333831,25.5579124 L159.749291,25.5579124 Z" id="Fill-15" fill="#898989"></path>
        <path d="M163.542631,26.9360169 C164.690469,26.9360169 165.356577,26.1752119 165.370432,24.6669492 C165.384287,23.145339 164.7331,22.296822 163.585262,22.2834746 C162.337241,22.2586864 161.728685,23.1329449 161.728685,24.5401483 C161.728685,26.048411 162.337241,26.9360169 163.542631,26.9360169 L163.542631,26.9360169 Z M165.384287,27.8731992 C165.327801,27.8731992 165.285171,27.8360169 165.285171,27.7854873 L165.327801,26.9741525 C164.832217,27.6195975 164.065926,28 163.088611,28 C161.062576,28 160,26.5308263 160,24.6288136 C160,22.7401483 161.161693,21.2194915 163.117387,21.2194915 C164.065926,21.2194915 164.803441,21.548411 165.29796,22.1566737 L165.29796,19.0896186 C165.29796,19.0381356 165.340591,19 165.398143,19 L166.899817,19 C166.957369,19 167,19.0381356 167,19.0896186 L166.985079,23.2216102 L167,27.7854873 C167,27.8360169 166.957369,27.8731992 166.899817,27.8731992 L165.384287,27.8731992 Z" id="Fill-16" fill="#898989"></path>
        <path d="M173.422364,26.8978814 C174.652841,26.9226695 175.261167,26.048411 175.261167,24.6669492 C175.261167,23.1834746 174.652841,22.3092161 173.451079,22.3216102 C172.319508,22.3216102 171.654816,23.0700212 171.640991,24.5401483 C171.627165,26.048411 172.263142,26.8845339 173.422364,26.8978814 M173.88818,28 C172.927833,28 172.178061,27.6577331 171.683531,27.0370763 L171.711182,27.7854873 C171.711182,27.8360169 171.668642,27.8731992 171.612276,27.8731992 L170.098906,27.8731992 C170.04254,27.8731992 170,27.8360169 170,27.7854873 L170.029778,23.2473517 L170,19.0896186 C170,19.0381356 170.04254,19 170.098906,19 L171.612276,19 C171.668642,19 171.711182,19.0381356 171.711182,19.0896186 L171.711182,22.1948093 C172.220602,21.5855932 172.956548,21.2194915 173.916895,21.2194915 C175.925858,21.2194915 177,22.6886653 177,24.590678 C177,26.4793432 175.839714,28 173.88818,28" id="Fill-17" fill="#898989"></path>
        <path d="M180.721402,29.9081028 C180.707659,29.9604743 180.651629,30 180.595599,30 L179.174765,30 C179.133536,30 179.091249,29.9604743 179.104992,29.9081028 L179.877782,27.8063241 L177.010743,21.0918972 C176.983256,21.0395257 177.010743,21 177.06783,21 L178.782556,21 C178.838586,21 178.893559,21.0395257 178.908359,21.0918972 L180.736202,25.7697628 L182.268039,21.0918972 C182.281782,21.0395257 182.337812,21 182.394899,21 L183.925678,21 C183.982765,21 184.010252,21.0395257 183.996508,21.0918972 L180.721402,29.9081028 Z" id="Fill-18" fill="#898989"></path>
        <path d="M187.089866,28 C187.038241,28 187,27.9613194 187,27.9100677 L187.026769,23.4356936 L187,19.0899323 C187,19.0377135 187.038241,19 187.089866,19 L192.808795,19 C192.860421,19 192.898662,19.0377135 192.898662,19.0899323 L192.898662,20.1439777 C192.898662,20.1952294 192.860421,20.23391 192.808795,20.23391 L188.56501,20.23391 L188.539197,22.6127646 L192.478967,22.6127646 C192.529637,22.6127646 192.567878,22.6514451 192.567878,22.7026969 L192.567878,23.7577093 C192.567878,23.808961 192.529637,23.8476416 192.478967,23.8476416 L188.539197,23.8476416 L188.56501,26.76609 L192.912046,26.76609 C192.962715,26.76609 193,26.8047706 193,26.8550553 L193,27.9100677 C193,27.9613194 192.962715,28 192.912046,28 L187.089866,28 Z" id="Fill-19" fill="#898989"></path>
        <path d="M197.542631,26.8877953 C198.690469,26.8877953 199.340591,26.1033465 199.370432,24.5462598 C199.384287,22.988189 198.7331,22.1240157 197.585262,22.1112205 C196.337241,22.0974409 195.728685,22.9744094 195.728685,24.4143701 C195.728685,25.9852362 196.352162,26.8877953 197.542631,26.8877953 L197.542631,26.8877953 Z M199.398143,27.8690945 C199.340591,27.8690945 199.299026,27.8307087 199.299026,27.7775591 L199.327801,26.9409449 C198.832217,27.6072835 198.065926,28 197.088611,28 C195.062576,28 194,26.4822835 194,24.5187008 C194,22.5698819 195.161693,21 197.117387,21 C198.080847,21 198.832217,21.3523622 199.327801,22.0068898 L199.285171,21.2214567 C199.285171,21.1692913 199.327801,21.1299213 199.384287,21.1299213 L200.899817,21.1299213 C200.957369,21.1299213 201,21.1692913 201,21.2214567 L200.97229,24.480315 L201,27.7775591 C201,27.8307087 200.957369,27.8690945 200.899817,27.8690945 L199.398143,27.8690945 Z" id="Fill-20" fill="#898989"></path>
        <path d="M204.045221,28 C202.177678,28 201.038486,27.1952002 201,25.6617832 C201,25.6109948 201.038486,25.5719269 201.090443,25.5719269 L202.407633,25.5719269 C202.459589,25.5719269 202.498076,25.6109948 202.498076,25.6617832 C202.536562,26.5583926 203.099423,26.9617692 204.135664,26.9617692 C205.00449,26.9617692 205.528865,26.6101577 205.528865,25.9870239 C205.528865,24.5073252 201.153945,25.818055 201.153945,23.0647412 C201.153945,21.7149435 202.22771,21 203.891276,21 C205.528865,21 206.679602,21.7012697 206.769083,23.1047858 C206.769083,23.1565509 206.731559,23.1956188 206.679602,23.1956188 L205.426876,23.1956188 C205.375882,23.1956188 205.337396,23.1565509 205.324888,23.1047858 C205.234445,22.4035161 204.748557,22.0138133 203.878768,22.0138133 C203.110969,22.0138133 202.62508,22.2990093 202.62508,22.948514 C202.62508,24.3901214 207,23.0256732 207,25.8571229 C207,27.2205944 205.747274,28 204.045221,28" id="Fill-21" fill="#898989"></path>
        <path d="M210.721881,29.9081028 C210.707081,29.9604743 210.651053,30 210.595025,30 L209.175296,30 C209.13301,30 209.090725,29.9604743 209.105525,29.9081028 L209.878289,27.8063241 L207.010288,21.0918972 C206.98386,21.0395257 207.010288,21 207.067373,21 L208.782042,21 C208.83807,21 208.894098,21.0395257 208.908898,21.0918972 L210.735623,25.7697628 L212.268466,21.0918972 C212.282208,21.0395257 212.337179,21 212.394264,21 L213.926049,21 C213.983135,21 214.009563,21.0395257 213.996877,21.0918972 L210.721881,29.9081028 Z" id="Fill-22" fill="#898989"></path>
        <path d="M221.61688,29 C218.882712,29 217,26.9946275 217,23.9994834 C217,20.9495816 218.897178,19 221.548681,19 C223.815788,19 225.312037,20.1530117 225.779098,22.1862796 C225.793565,22.2410373 225.765665,22.283397 225.710899,22.283397 L224.173317,22.283397 C224.117518,22.283397 224.062752,22.2410373 224.048285,22.1862796 C223.746555,20.977477 222.880632,20.3451803 221.561081,20.3451803 C219.788934,20.3451803 218.746313,21.7327203 218.746313,24.0273789 C218.746313,26.2517822 219.817867,27.6537865 221.602413,27.6537865 C223.210261,27.6537865 224.173317,26.6784792 224.213616,25.0026862 L221.548681,25.0026862 C221.493915,25.0026862 221.451548,24.9613596 221.451548,24.9055688 L221.451548,23.7794194 C221.451548,23.7256948 221.493915,23.6833351 221.548681,23.6833351 L225.903097,23.6833351 C225.957863,23.6833351 225.999196,23.7256948 225.999196,23.7794194 C226.040529,27.2270896 224.487447,29 221.61688,29" id="Fill-23" fill="#898989"></path>
        <path d="M227.084507,28 C227.036347,28 227,27.9594203 227,27.9056522 L227.036347,24.4928986 L227,21.1481159 C227,21.0943478 227.036347,21.0537681 227.084507,21.0537681 L228.365743,21.0537681 C228.413903,21.0537681 228.45025,21.0943478 228.45025,21.1481159 L228.40209,22.2681159 C228.872785,21.4311594 229.681508,21 230.576556,21 C230.685597,21 230.806452,21.0131884 230.914584,21.0405797 C230.963653,21.0405797 231,21.0943478 231,21.1481159 L231,22.2275362 C231,22.2802899 230.963653,22.3208696 230.914584,22.3076812 C230.830077,22.3076812 230.721945,22.2944928 230.612903,22.2944928 C229.440709,22.2944928 228.485688,23.0634783 228.45025,24.6410145 L228.45025,27.9056522 C228.45025,27.9594203 228.413903,28 228.365743,28 L227.084507,28 Z" id="Fill-24" fill="#898989"></path>
        <path d="M234.513994,26.8963304 C235.712276,26.8963304 236.292759,26.1169248 236.292759,24.5190456 C236.292759,22.9348402 235.699837,22.1046463 234.500518,22.1046463 C233.273212,22.1163667 232.694802,22.948514 232.694802,24.5327194 C232.694802,26.1042277 233.301199,26.8963304 234.513994,26.8963304 M234.513994,28 C232.267733,28 231,26.6365285 231,24.5190456 C231,22.4025394 232.267733,21 234.513994,21 C236.746779,21 238,22.3634715 238,24.4809544 C238,26.6101577 236.746779,28 234.513994,28" id="Fill-25" fill="#898989"></path>
        <path d="M241.307018,28 C239.921053,28 239.026316,27.042957 239.026316,25.3166833 L239.026316,23.9090909 L239,21.0929071 C239,21.03996 239.038986,21 239.091618,21 L240.491228,21 C240.542885,21 240.580897,21.03996 240.580897,21.0929071 L240.568226,23.9090909 L240.568226,25.2777223 C240.568226,26.2467532 241.061404,26.7512488 241.773879,26.7512488 C242.564327,26.7512488 243.289474,26.0739261 243.419103,24.6523477 L243.419103,23.9090909 L243.393762,21.0929071 C243.393762,21.03996 243.432749,21 243.483431,21 L244.909357,21 C244.961014,21 245,21.03996 245,21.0929071 L244.974659,24.2137862 L244.974659,27.7482517 C244.974659,27.8011988 244.936647,27.8401598 244.884016,27.8401598 L243.549708,27.8401598 C243.497076,27.8401598 243.45809,27.8011988 243.45809,27.7482517 L243.497076,26.8441558 C243.070175,27.4825175 242.305068,28 241.307018,28" id="Fill-26" fill="#898989"></path>
        <path d="M249.422364,26.813961 C250.652841,26.813961 251.261167,25.9587662 251.261167,24.5347403 C251.261167,23.0191558 250.666667,22.125974 249.451079,22.125974 C248.319508,22.125974 247.654816,22.9022727 247.640991,24.4051948 C247.627165,25.9461039 248.263142,26.813961 249.422364,26.813961 M249.88818,27.9272727 C248.941659,27.9272727 248.19295,27.5912338 247.697356,26.9698052 L247.726071,29.9094156 C247.726071,29.9600649 247.683531,30 247.627165,30 L246.098906,30 C246.04254,30 246,29.9600649 246,29.9094156 L246.029778,25.0012987 L246,21.2191558 C246,21.1675325 246.04254,21.1285714 246.098906,21.1285714 L247.612276,21.1285714 C247.669705,21.1285714 247.711182,21.1675325 247.711182,21.2191558 L247.683531,22.0480519 C248.178061,21.3876623 248.941659,21 249.917958,21 C251.925858,21 253,22.500974 253,24.4441558 C253,26.3737013 251.839714,27.9272727 249.88818,27.9272727" id="Fill-27" fill="#898989"></path>
        <polygon id="Fill-28" fill="#3F90CD" points="118 35 142.098715 35 142.098715 42.3219657 125.816094 42.3219657 125.816094 49.0330967 141.196438 49.0330967 141.196438 56.3550623 125.816094 56.3550623 125.816094 63.6780343 143 63.6780343 143 71 118 71"></polygon>
        <path d="M164.718623,45.4747582 L160.319838,56.6609828 L169.168016,56.6609828 L164.718623,45.4747582 Z M161.649798,35 L168.246964,35 L184,71 L174.997976,71 L171.878543,63.3731201 L157.814777,63.3731201 L154.796559,71 L146,71 L161.649798,35 Z" id="Fill-29" fill="#3F90CD"></path>
        <path d="M205.504957,43.7554864 C204.859489,42.9377278 203.986445,42.3342644 202.883811,41.9420637 C201.782184,41.5508738 200.738962,41.3547735 199.755151,41.3547735 C199.178156,41.3547735 198.58505,41.4235097 197.973819,41.5589604 C197.363594,41.695422 196.7866,41.9087064 196.244849,42.1978028 C195.702091,42.4868992 195.260031,42.8700024 194.921689,43.3471125 C194.582339,43.8242226 194.412161,44.4034262 194.412161,45.0827016 C194.412161,46.1743942 194.819985,47.008326 195.633617,47.5865188 C196.448257,48.1657223 197.473354,48.6579948 198.712936,49.0663687 C199.949497,49.4757535 201.282727,49.8841274 202.706584,50.2925013 C204.131448,50.701886 205.461658,51.2810896 206.700232,52.0291012 C207.938807,52.7781236 208.965918,53.7828851 209.778544,55.0433857 C210.593184,56.3038864 211,57.9889341 211,60.098529 C211,62.1090629 210.626414,63.861836 209.881255,65.3608917 C209.134082,66.8589365 208.126104,68.1012423 206.853292,69.0888197 C205.581487,70.077408 204.105267,70.8082356 202.426646,71.2853457 C200.747018,71.7624558 198.974748,72 197.109837,72 C194.769636,72 192.598606,71.6421674 190.596747,70.9275131 C188.594888,70.211848 186.72897,69.0554625 185,67.4543133 L190.647095,61.2235789 C191.461735,62.3132498 192.486832,63.1562791 193.726414,63.7516559 C194.963981,64.3480435 196.244849,64.6462373 197.567002,64.6462373 C198.211464,64.6462373 198.864988,64.5684037 199.526569,64.4157689 C200.188149,64.2621233 200.781255,64.0326657 201.306894,63.7253744 C201.83354,63.4201048 202.256468,63.028915 202.579706,62.550794 C202.90093,62.0746948 203.062045,61.5126752 203.062045,60.8657463 C203.062045,59.7760753 202.647173,58.9168728 201.816421,58.2861171 C200.984663,57.6563722 199.941441,57.1196233 198.686754,56.6778922 C197.431061,56.2351502 196.074671,55.7924082 194.616576,55.3486553 C193.157475,54.907935 191.801084,54.3115474 190.546398,53.5625249 C189.289698,52.8124917 188.247483,51.8249142 187.416731,50.5987817 C186.584973,49.37366 186.170101,47.7573484 186.170101,45.7478254 C186.170101,43.8070385 186.551743,42.1037959 187.315027,40.6401192 C188.077304,39.1764424 189.095352,37.9503099 190.368164,36.9617216 C191.638962,35.9751549 193.106119,35.2342191 194.769636,34.7409358 C196.430132,34.2476525 198.143997,34 199.907204,34 C201.9433,34 203.909915,34.2901072 205.811077,34.8682999 C207.709218,35.4475035 209.423083,36.4178969 210.948644,37.7794802 L205.504957,43.7554864 Z" id="Fill-30" fill="#3F90CD"></path>
        <polygon id="Fill-31" fill="#3F90CD" points="226.532246 55.6435959 213 35 222.868542 35 230.498993 48.4735842 238.58854 35 248 35 234.467754 55.6435959 234.467754 71 226.532246 71"></polygon>
        <path d="M275.12811,44.3175059 C274.358831,43.3653074 273.413859,42.6324582 272.29518,42.12098 C271.173522,41.6105126 269.878156,41.3547735 268.407097,41.3547735 C266.935046,41.3547735 265.573175,41.6448807 264.319499,42.2240843 C263.065823,42.8032878 261.978907,43.611949 261.058751,44.6500678 C260.138594,45.6881866 259.420932,46.9224058 258.901793,48.3527252 C258.383647,49.7830447 258.124573,51.3326417 258.124573,52.9994946 C258.124573,54.703748 258.383647,56.2614316 258.901793,57.6735562 C259.420932,59.0877025 260.131646,60.3128242 261.033935,61.350943 C261.937217,62.3900726 262.997332,63.1987338 264.219244,63.7769266 C265.439171,64.357141 266.752404,64.6462373 268.156958,64.6462373 C269.76202,64.6462373 271.181463,64.3055888 272.419257,63.6242918 C273.657051,62.9429947 274.676469,61.9897853 275.479496,60.7636528 L282,65.7177134 C280.494199,67.8626872 278.588374,69.4466523 276.281531,70.4685979 C273.974688,71.4895326 271.599355,72 269.159501,72 C266.38315,72 263.825175,71.5582688 261.485576,70.6727848 C259.143992,69.7873008 257.12203,68.5197244 255.416713,66.8670231 C253.711396,65.2163435 252.382282,63.2159179 251.429369,60.8667571 C250.476456,58.5155747 250,55.8955125 250,52.9994946 C250,50.1065092 250.476456,47.4844253 251.429369,45.1352645 C252.382282,42.785093 253.711396,40.7856782 255.416713,39.1329769 C257.12203,37.4822972 259.143992,36.21371 261.485576,35.328226 C263.825175,34.442742 266.38315,34 269.159501,34 C270.162045,34 271.207271,34.0950177 272.29518,34.2810098 C273.38011,34.4690235 274.450152,34.7662065 275.504312,35.1745804 C276.557479,35.5829543 277.568956,36.1288006 278.538743,36.8090868 C279.507538,37.4913947 280.377071,38.3243157 281.146349,39.3118932 L275.12811,44.3175059 Z" id="Fill-32" fill="#29394C"></path>
        <path d="M300.718623,45.4747582 L296.319838,56.6609828 L305.168016,56.6609828 L300.718623,45.4747582 Z M297.649798,35 L304.246964,35 L320,71 L310.997976,71 L307.878543,63.3731201 L293.814777,63.3731201 L290.796559,71 L282,71 L297.649798,35 Z" id="Fill-33" fill="#29394C"></path>
        <path d="M329.965123,49.8975233 L334.661545,49.8975233 C335.376921,49.8975233 336.133724,49.8723654 336.933974,49.8210432 C337.733215,49.7707273 338.456674,49.6187734 339.104352,49.3641751 C339.751019,49.1095768 340.286541,48.7110751 340.712937,48.1696763 C341.138323,47.6272712 341.351521,46.8644826 341.351521,45.8803041 C341.351521,44.9655616 341.163583,44.2369878 340.788718,43.6945827 C340.413853,43.1521776 339.937946,42.7365685 339.359987,42.4487617 C338.781018,42.1609549 338.116163,41.9657293 337.368454,41.8640912 C336.619735,41.7624532 335.887182,41.7121373 335.172816,41.7121373 L329.965123,41.7121373 L329.965123,49.8975233 Z M322,35 L335.990244,35 C337.827184,35 339.572175,35.1781182 341.223198,35.5333482 C342.87321,35.8895846 344.320128,36.4823056 345.562942,37.3135238 C346.804745,38.144742 347.791924,39.2627607 348.523466,40.6695924 C349.256019,42.0764242 349.62179,43.8304355 349.62179,45.9316263 C349.62179,48.4735842 348.957946,50.6341477 347.630257,52.4143233 C346.303578,54.1944988 344.362566,55.3215743 341.810251,55.7955498 L351,71 L341.452563,71 L333.896659,56.6096606 L329.965123,56.6096606 L329.965123,71 L322,71 L322,35 Z" id="Fill-34" fill="#29394C"></path>
        <polygon id="Fill-35" fill="#29394C" points="355 35 379.098715 35 379.098715 42.3219657 362.816094 42.3219657 362.816094 49.0330967 378.196438 49.0330967 378.196438 56.3550623 362.816094 56.3550623 362.816094 63.6780343 380 63.6780343 380 71 355 71"></polygon>
        <polygon id="Fill-36" fill="#29394C" points="386 35 410.098715 35 410.098715 42.3219657 393.816094 42.3219657 393.816094 49.0330967 409.196438 49.0330967 409.196438 56.3550623 393.816094 56.3550623 393.816094 63.6780343 411 63.6780343 411 71 386 71"></polygon>
        <path d="M424.965123,49.8975233 L429.661545,49.8975233 C430.376921,49.8975233 431.133724,49.8723654 431.933974,49.8210432 C432.733215,49.7707273 433.456674,49.6187734 434.104352,49.3641751 C434.751019,49.1095768 435.286541,48.7110751 435.712937,48.1696763 C436.138323,47.6272712 436.351521,46.8644826 436.351521,45.8803041 C436.351521,44.9655616 436.163583,44.2369878 435.788718,43.6945827 C435.413853,43.1521776 434.937946,42.7365685 434.359987,42.4487617 C433.781018,42.1609549 433.116163,41.9657293 432.368454,41.8640912 C431.619735,41.7624532 430.887182,41.7121373 430.172816,41.7121373 L424.965123,41.7121373 L424.965123,49.8975233 Z M417,35 L430.990244,35 C432.827184,35 434.572175,35.1781182 436.223198,35.5333482 C437.87321,35.8895846 439.320128,36.4823056 440.562942,37.3135238 C441.804745,38.144742 442.791924,39.2627607 443.523466,40.6695924 C444.256019,42.0764242 444.62179,43.8304355 444.62179,45.9316263 C444.62179,48.4735842 443.957946,50.6341477 442.630257,52.4143233 C441.303578,54.1944988 439.362566,55.3215743 436.810251,55.7955498 L446,71 L436.452563,71 L428.896659,56.6096606 L424.965123,56.6096606 L424.965123,71 L417,71 L417,35 Z" id="Fill-37" fill="#29394C"></path>
        <path d="M81.8332762,32 C83.2063572,32.4055308 82.6279061,32.2343067 84,32.6398376 C79.5619179,52.5989644 63.7996192,63.7045018 57.8917186,77.500561 C57.8798731,77.5275964 57.8630921,77.5516279 57.8413755,77.5716541 C55.0369736,80.1480266 52.5908954,82.8906167 50.6847707,85.9005568 C50.5771749,86.0717809 50.3155886,86.0096997 50.2948592,85.8074349 C49.8131456,81.093264 49.950355,76.7876278 50.4982054,72.760356 C50.5021539,72.7303167 50.5130122,72.7002774 50.5288061,72.673242 C57.9381131,60.5383572 75.3005299,50.8386601 81.8332762,32" id="Fill-38" fill="#B6D3ED"></path>
        <path d="M102.675282,74.3520884 L90.8644804,66.1362229 C90.5263409,65.8987759 90.0617753,65.9805854 89.8169503,66.3128116 C84.5271238,73.465154 76.4599378,78.0724238 67.5659655,78.9902861 C59.1506061,79.86026 50.8998013,77.4189458 44.3326704,72.1182908 C43.5801344,71.5107059 42.8627167,70.8741883 42.1764039,70.2117311 C37.4976366,72.9593321 33.0014848,75.9184404 29,79.4362475 C30.6214643,81.2091186 32.3884188,82.8742405 34.2948434,84.4126576 C42.8576998,91.32456 53.3239706,95 64.2026312,95 C65.8642307,95 67.5358641,94.9141998 69.2115109,94.7416018 C82.6979596,93.3488455 94.9171377,86.3152266 102.858901,75.40763 C103.104729,75.0684201 103.020445,74.5915307 102.675282,74.3520884" id="Fill-39" fill="#3F90CD"></path>
        <path d="M83.663075,26.118628 C84.9023452,27.1267023 85.9067016,28.2923195 86.8802006,29.4778788 C86.9677956,29.5845692 87.0185609,29.7181814 86.9936759,29.854785 C80.4021519,65.6110141 36.8813705,71.6903707 23.3628734,90.1677461 C23.3001633,90.2534972 23.2095822,90.3133236 23.1050654,90.3332657 C16.3502961,91.6883331 8.46774116,92.4910036 0.559305865,94.9797807 C0.253718749,95.0755029 -0.0458959804,94.8172524 0.00586470374,94.5021668 C1.7488062,83.9597627 4.16563199,78.283237 6.50282596,70.7770214 C6.5297017,70.6942616 6.57947159,70.6204757 6.64616324,70.566632 C25.7936348,55.1852714 70.9916614,60.6045437 82.9503702,26.278165 C83.0568778,25.9750447 83.4142256,25.9162154 83.663075,26.118628" id="Fill-40" fill="#29394C"></path>
        <path d="M85.1629182,23.6284729 C86.2498988,24.6101981 87.2741885,25.6689404 88.2216311,26.8047 C88.4056594,27.0250276 88.7373149,27.0659734 88.9698782,26.8914661 L100.792183,18.0266923 C101.026768,17.8502353 101.070247,17.5197439 100.884197,17.2945418 C99.1490723,15.1946053 96.5423412,12.8840902 94.4947731,11.1312184 C94.2652432,10.9342884 93.9012311,10.9606107 93.7172028,11.1994614 C91.4977401,14.0851681 87.2853111,19.6694003 85.105283,22.9304438 C84.9546224,23.1566208 84.958667,23.4442166 85.1629182,23.6284729" id="Fill-41" fill="#3F90CD"></path>
        <path d="M33.1224815,50.3613166 C32.2473652,42.0304146 34.7049249,33.8624157 40.0440388,27.3601999 C45.3831526,20.857984 52.9638101,16.799314 61.3894421,15.9341399 C68.8846979,15.1633303 76.3136418,17.0665148 82.4203662,21.1440577 C82.7458975,21.3605995 83.1960147,21.2960343 83.4140402,20.9742014 C85.6786926,17.609856 91.1845909,10.5801919 91.8748377,9.3157066 C92.0848254,8.93228843 92.0325796,8.54191709 91.7030295,8.31742873 C82.4605553,2.02778151 71.1523644,-0.920366456 59.7406868,0.252734202 C47.0781253,1.55297871 35.6855375,7.65091684 27.6617958,17.4231135 C19.6390589,27.1953102 15.9446815,39.4716447 17.2608725,51.9903471 C17.4919595,54.191525 17.8757648,56.3539637 18.4022412,58.4657435 C18.505728,58.8869075 18.967902,59.1104026 19.3718018,58.9455129 C23.7443693,57.1615258 28.387208,55.6646057 33.1033917,54.2401972 C33.4600694,54.1329196 33.6710619,53.7753275 33.5967122,53.4137622 C33.3907433,52.4105178 33.2309919,51.3923737 33.1224815,50.3613166" id="Fill-42" fill="#3F90CD"></path>
    </g>
</svg>