<?xml version="1.0" encoding="UTF-8"?>
<svg width="446px" height="95px" viewBox="0 0 446 95" version="1.1" xmlns="http://www.w3.org/2000/svg" xmlns:xlink="http://www.w3.org/1999/xlink">
    <!-- Generator: Sketch 61.2 (89653) - https://sketch.com -->
    <title>logodark</title>
    <desc>Created with Sketch.</desc>
    <defs>
        <polygon id="path-1" points="0.000317260479 1 445.532371 1 445.532371 94.1647759 0.000317260479 94.1647759"></polygon>
    </defs>
    <g id="logodark" stroke="none" stroke-width="1" fill="none" fill-rule="evenodd">
        <mask id="mask-2" fill="white">
            <use xlink:href="#path-1"></use>
        </mask>
        <g id="Clip-2"></g>
        <path d="M354.844462,79.5176288 L359.848164,79.5176288 L359.848164,78.7665886 L354.844462,78.7665886 L354.844462,79.5176288 Z M354.844462,77.7067793 L359.848164,77.7067793 L359.848164,76.9691639 L354.844462,76.9691639 L354.844462,77.7067793 Z M362.242244,81.3762107 C362.242244,81.3762107 362.219124,81.7580702 362.195258,81.9363211 C361.944662,84.5101438 361.670946,85.5938194 361.2779,85.9868662 C360.991505,86.2971271 360.681244,86.4037793 360.312809,86.4395786 C359.979428,86.4753779 359.419318,86.4753779 358.823408,86.4641906 C358.810729,86.1054515 358.668278,85.5938194 358.454227,85.2596923 C358.954672,85.3074247 359.419318,85.3074247 359.633368,85.3074247 C359.848164,85.3074247 359.954816,85.2843043 360.074147,85.1649732 C360.300876,84.9501773 360.538793,84.2237492 360.70511,82.6157625 L359.6811,82.6157625 C359.061324,84.2118161 358.048502,85.6296187 356.952147,86.5342977 C356.714977,86.2971271 356.154866,85.855602 355.832672,85.6654181 C356.834308,84.9501773 357.680067,83.8657559 358.215565,82.6157625 L357.191555,82.6157625 C356.309251,84.0932308 354.975726,85.3678361 353.640709,86.1897291 C353.41398,85.9040803 352.890415,85.4036355 352.592833,85.1761605 C353.76004,84.5936756 354.844462,83.6755719 355.59401,82.6157625 L354.558067,82.6157625 C353.97409,83.1758729 353.331194,83.6755719 352.711418,84.0566856 C352.472756,83.7956488 351.937258,83.2698462 351.63893,83.055796 C352.723351,82.4844983 353.771973,81.626806 354.499147,80.6490368 L353.450525,80.6490368 L353.450525,75.8250769 L361.289833,75.8250769 L361.289833,80.6490368 L356.154866,80.6490368 C355.999736,80.8996321 355.832672,81.1382943 355.654421,81.3762107 L362.242244,81.3762107 Z" id="Fill-1" fill="#FEFEFE" mask="url(#mask-2)"></path>
        <path d="M370.040532,84.3662007 L371.494134,84.3662007 L371.494134,83.2944582 L370.040532,83.2944582 L370.040532,84.3662007 Z M370.040532,82.0198528 L371.494134,82.0198528 L371.494134,81.0189632 L370.040532,81.0189632 L370.040532,82.0198528 Z M370.040532,79.756291 L371.494134,79.756291 L371.494134,78.719602 L370.040532,78.719602 L370.040532,79.756291 Z M374.747398,85.6892843 L370.040532,85.6892843 L370.040532,86.4641906 L368.707007,86.4641906 L368.707007,80.3395217 C368.551876,80.5423846 368.384813,80.7452475 368.218495,80.9354314 C368.099164,80.5781839 367.800836,79.9464749 367.610652,79.6130936 C368.50489,78.5286722 369.302916,76.741689 369.671351,75.3723645 L371.029488,75.7527324 C370.839304,76.3128428 370.624508,76.8722074 370.363472,77.4449967 L371.899114,77.4449967 C371.743983,76.9803512 371.446401,76.3605753 371.160007,75.8839967 L372.363759,75.3835518 C372.709819,75.8959298 373.055134,76.5873043 373.210264,77.0392709 L372.32796,77.4449967 L374.592268,77.4449967 L374.592268,78.719602 L372.804538,78.719602 L372.804538,79.756291 L374.317806,79.756291 L374.317806,81.0189632 L372.804538,81.0189632 L372.804538,82.0198528 L374.342418,82.0198528 L374.342418,83.2944582 L372.804538,83.2944582 L372.804538,84.3662007 L374.747398,84.3662007 L374.747398,85.6892843 Z M363.679438,84.5809967 C364.762368,84.3796254 366.430766,83.985087 368.026819,83.6285853 L368.158829,84.8077258 C366.693294,85.2007726 365.132294,85.6057525 363.940475,85.9272007 L363.679438,84.5809967 Z M367.861247,81.3292241 C367.812769,81.6857258 367.800836,82.2227157 367.812769,82.5076187 C364.869766,83.0684749 364.381254,83.1997391 364.071739,83.3899231 C364.012819,83.1273946 363.798023,82.5322308 363.654826,82.2100368 C363.952408,82.1391839 364.214936,81.8527893 364.584117,81.4239431 C364.762368,81.2330134 365.109174,80.7810468 365.490288,80.2209365 C364.441666,80.3395217 364.155271,80.4111204 363.97702,80.4946522 C363.905421,80.2328696 363.690625,79.6019064 363.535495,79.2431672 C363.785344,79.1842475 363.988953,78.9336522 364.24999,78.5413512 C364.513264,78.1714247 365.299358,76.6820234 365.716271,75.288087 L366.979689,75.8839967 C366.538164,76.9922843 365.883334,78.1602375 365.227013,79.111903 L366.239836,79.041796 C366.502365,78.5883378 366.752214,78.1236923 366.96701,77.6590468 L368.075298,78.3384883 C367.444334,79.4937625 366.669428,80.6490368 365.846789,81.6506722 L367.861247,81.3292241 Z" id="Fill-3" fill="#FEFEFE" mask="url(#mask-2)"></path>
        <path d="M378.505582,80.8996321 L380.912341,80.8996321 L380.912341,80.3760669 L378.505582,80.3760669 L378.505582,80.8996321 Z M378.505582,79.4579632 L380.912341,79.4579632 L380.912341,78.9813846 L378.505582,78.9813846 L378.505582,79.4579632 Z M378.505582,78.0640268 L380.912341,78.0640268 L380.912341,77.5643278 L378.505582,77.5643278 L378.505582,78.0640268 Z M377.100458,78.8866656 C376.886408,79.0761037 376.671612,79.256592 376.457562,79.4348428 C376.231579,79.1365151 375.777375,78.6838027 375.455926,78.5055518 C376.77901,77.5643278 377.743355,76.3374548 378.280344,75.3119532 L379.722013,75.5864147 C379.543017,75.8839967 379.351341,76.1823244 379.14997,76.4799064 L381.079405,76.4799064 C380.972753,76.1823244 380.841488,75.8839967 380.710224,75.622214 L381.986321,75.2642207 C382.200371,75.6334013 382.426355,76.0980468 382.556873,76.4799064 L385.905602,76.4799064 L385.905602,77.5643278 L382.271224,77.5643278 L382.271224,78.0640268 L385.368612,78.0640268 L385.368612,78.9813846 L382.271224,78.9813846 L382.271224,79.4579632 L385.380545,79.4579632 L385.380545,80.3760669 L382.271224,80.3760669 L382.271224,80.8996321 L386.190505,80.8996321 L386.190505,81.9721204 L378.506328,81.9721204 L378.506328,82.2935686 L377.100458,82.2935686 L377.100458,78.8866656 Z M383.116983,83.8187692 C384.176793,84.4139331 385.53493,84.9031906 386.786415,85.1761605 C386.488833,85.4506221 386.083853,85.9749331 385.905602,86.3090602 C384.51092,85.9152676 382.997652,85.2007726 381.818512,84.3550134 L381.818512,86.4283913 L380.411896,86.4283913 L380.411896,84.4139331 C379.233502,85.2596923 377.696368,85.9749331 376.302431,86.3687258 C376.08689,86.0226656 375.683401,85.4991003 375.385074,85.2007726 C376.682799,84.926311 378.089415,84.4139331 379.197702,83.8187692 L375.777375,83.8187692 L375.777375,82.6873612 L380.411896,82.6873612 L380.411896,82.0795184 L381.818512,82.0795184 L381.818512,82.6873612 L386.488833,82.6873612 L386.488833,83.8187692 L383.116983,83.8187692 Z" id="Fill-4" fill="#FEFEFE" mask="url(#mask-2)"></path>
        <path d="M396.158083,79.9701174 L394.727601,79.9701174 L394.727601,82.9973983 C394.727601,83.6402946 394.632882,83.9624886 394.215969,84.1765388 C393.822922,84.3913348 393.285932,84.4137094 392.56025,84.4137094 C392.499839,84.0452746 392.285789,83.4970973 392.106792,83.1525288 C392.548317,83.1756492 393.012963,83.1756492 393.166601,83.1637161 C393.321732,83.1637161 393.37021,83.1271709 393.37021,82.9854652 L393.37021,81.3767328 C392.487906,82.2575455 391.451963,82.9973983 390.534605,83.4844184 C390.355608,83.2226358 389.962561,82.7826023 389.6523,82.5327528 C390.725534,81.9599635 391.916608,81.0545388 392.821287,79.9701174 L389.962561,79.9701174 L389.962561,78.7193783 L393.37021,78.7193783 L393.37021,77.4335856 L394.727601,77.4335856 L394.727601,78.7193783 L396.158083,78.7193783 L396.158083,79.9701174 Z M389.449437,84.7717027 L396.586183,84.7717027 L396.586183,77.0748465 L389.449437,77.0748465 L389.449437,84.7717027 Z M398.123317,75.7763749 L398.123317,86.4639669 L396.586183,86.4639669 L396.586183,86.046308 L389.449437,86.046308 L389.449437,86.4639669 L387.984648,86.4639669 L387.984648,75.7763749 L398.123317,75.7763749 Z" id="Fill-5" fill="#FEFEFE" mask="url(#mask-2)"></path>
        <path d="M406.350749,83.0088094 L408.185465,83.0088094 L408.185465,82.4606321 L406.350749,82.4606321 L406.350749,83.0088094 Z M406.350749,81.5783278 L408.185465,81.5783278 L408.185465,81.0547625 L406.350749,81.0547625 L406.350749,81.5783278 Z M406.350749,80.1724582 L408.185465,80.1724582 L408.185465,79.6720134 L406.350749,79.6720134 L406.350749,80.1724582 Z M410.508692,84.1521505 L408.638177,84.1521505 C409.234087,84.6406622 409.971702,85.2843043 410.330441,85.7370167 L409.281074,86.487311 C408.911893,85.9995452 408.126545,85.2246388 407.506023,84.6995819 L408.304796,84.1521505 L405.814505,84.1521505 L406.87506,84.5213311 C406.375361,85.2246388 405.56391,86.0226656 404.885214,86.5111773 C404.658485,86.285194 404.15804,85.8682809 403.871645,85.6773512 C404.503355,85.2843043 405.182796,84.7115151 405.612388,84.1521505 L403.897003,84.1521505 L403.897003,83.0088094 L405.111943,83.0088094 L405.111943,79.6720134 L404.349716,79.6720134 L404.349716,78.719602 C404.218452,78.8866656 404.087187,79.0291171 403.955923,79.1723144 C403.78886,78.9813846 403.408492,78.6360702 403.122843,78.4220201 L401.716973,78.4220201 C401.703548,78.8620535 401.692361,79.2797124 401.680428,79.7078127 L403.622542,79.7078127 C403.622542,79.7078127 403.622542,80.1016054 403.610609,80.25599 C403.550943,83.9738997 403.491278,85.3678361 403.205629,85.7720702 C403.014699,86.0942642 402.811836,86.2016622 402.502321,86.2725151 C402.240538,86.3329264 401.848237,86.3329264 401.418645,86.3202475 C401.394033,85.9391338 401.263515,85.4148227 401.097197,85.0814415 C401.405967,85.1053077 401.656562,85.1172408 401.82288,85.1172408 C401.97801,85.1172408 402.049609,85.0814415 402.132395,84.93899 C402.287525,84.6883946 402.335258,83.7113712 402.38299,80.9958428 L401.620763,80.9958428 C401.477565,83.1393278 401.132997,85.0814415 400.262625,86.4641906 C400.047829,86.1419967 399.654783,85.7250836 399.332589,85.5348997 C400.346157,83.8784348 400.440876,81.209893 400.489355,78.4220201 L399.440732,78.4220201 L399.440732,77.1705351 L401.287381,77.1705351 C401.144184,76.7178227 400.870468,76.1099799 400.632552,75.622214 L401.834813,75.3000201 C402.121207,75.8004649 402.430722,76.4799064 402.59704,76.9080067 L401.78708,77.1705351 L403.56213,77.1705351 L403.56213,77.6821672 C404.075254,76.9922843 404.480234,76.1338462 404.730829,75.2411003 L405.969635,75.527495 C405.886104,75.8116522 405.77796,76.0980468 405.683241,76.3844415 L410.389361,76.3844415 L410.389361,77.5277826 L405.147742,77.5277826 C404.94488,77.897709 404.730829,78.2191572 404.491421,78.5286722 L405.111943,78.5286722 L405.111943,77.8738428 L406.350749,77.8738428 L406.350749,78.5286722 L408.185465,78.5286722 L408.185465,77.8738428 L409.425017,77.8738428 L409.425017,78.5286722 L410.222298,78.5286722 L410.222298,79.6720134 L409.425017,79.6720134 L409.425017,83.0088094 L410.508692,83.0088094 L410.508692,84.1521505 Z" id="Fill-6" fill="#FEFEFE" mask="url(#mask-2)"></path>
        <path d="M417.425645,77.6233967 L417.425645,79.4939117 L417.663562,79.220196 C418.9501,79.8630923 420.820615,80.8878482 421.726786,81.6269552 L420.678164,82.9246809 C419.986789,82.3175839 418.627906,81.4472127 417.425645,80.7565839 L417.425645,86.4166074 L415.900444,86.4166074 L415.900444,77.6233967 L411.599304,77.6233967 L411.599304,76.1936609 L422.214552,76.1936609 L422.214552,77.6233967 L417.425645,77.6233967 Z" id="Fill-7" fill="#FEFEFE" mask="url(#mask-2)"></path>
        <path d="M431.085626,75.5024355 C431.800121,76.9799037 433.230602,78.7191545 434.409743,79.7558435 C434.028629,80.0295592 433.503572,80.5896696 433.217178,80.9707833 C432.02685,79.7439104 430.584435,77.8144756 429.679756,76.0744789 L431.085626,75.5024355 Z M431.299676,81.5778803 C432.287887,82.8890308 433.420786,84.581295 433.992084,85.6888368 L432.574281,86.45181 C432.39603,86.0580174 432.133502,85.5933719 431.836666,85.0929271 C426.06999,85.5821846 425.259285,85.6291712 424.676054,85.8439672 C424.604455,85.5575726 424.329994,84.7722247 424.127877,84.3545659 C424.520178,84.2471679 424.806572,83.9488401 425.247352,83.4133418 C425.747796,82.9017097 427.189465,80.852198 428.071024,78.8504187 L429.655144,79.5291144 C428.786265,81.1736462 427.666044,82.7704455 426.568943,84.0569839 L431.013281,83.7586562 C430.65678,83.2231579 430.286853,82.6742348 429.952726,82.198402 L431.299676,81.5778803 Z M427.96288,76.0267465 C427.189465,77.9569271 425.926047,79.815509 424.676054,80.9707833 C424.378472,80.7090007 423.722151,80.1973686 423.341037,79.9587064 C424.628321,78.9697498 425.772408,77.3013518 426.415305,75.5859672 L427.96288,76.0267465 Z" id="Fill-8" fill="#FEFEFE" mask="url(#mask-2)"></path>
        <path d="M437.870569,83.1639398 L440.873237,83.1639398 L440.873237,81.5663946 L437.870569,81.5663946 L437.870569,83.1639398 Z M437.870569,84.3796254 L437.870569,85.2365719 L436.488565,85.2365719 L436.488565,80.350709 L442.26792,80.350709 L442.26792,84.3796254 L437.870569,84.3796254 Z M435.881468,79.4706421 L442.88695,79.4706421 L442.88695,78.2310903 L435.881468,78.2310903 L435.881468,79.4706421 Z M445.532371,84.6525953 C445.532371,85.4625552 445.388428,85.8914013 444.87605,86.1419967 C444.388284,86.3918462 443.626057,86.4283913 442.565502,86.4164582 C442.517769,85.9995452 442.302973,85.2954916 442.100856,84.8785786 C442.767619,84.926311 443.553712,84.9151237 443.779696,84.9031906 C443.994492,84.9031906 444.078023,84.8442709 444.078023,84.6406622 L444.078023,77.3845853 L435.762137,77.3845853 L435.762137,76.0391271 L445.532371,76.0391271 L445.532371,84.6525953 Z" id="Fill-9" fill="#FEFEFE" mask="url(#mask-2)"></path>
        <path d="M116.559191,24.1013829 L116.559191,24.179694 L118.400619,24.179694 C119.366456,24.179694 120.097359,23.6971488 120.097359,22.4829548 C120.097359,21.3478177 119.458191,20.8123194 118.347666,20.8123194 L116.572616,20.8123194 L116.559191,24.1013829 Z M118.283526,25.4080585 L116.572616,25.4080585 L116.585295,28.6322358 C116.585295,28.6844431 116.546512,28.7232258 116.493559,28.7232258 L115.058603,28.7232258 C115.005649,28.7232258 114.966121,28.6844431 114.966121,28.6322358 L114.992971,24.1013829 L114.966121,19.6756906 C114.966121,19.6234833 115.005649,19.5839548 115.058603,19.5839548 L118.283526,19.5839548 C120.384499,19.5839548 121.6509,20.5505368 121.6509,22.4568512 C121.6509,24.3631656 120.345716,25.4080585 118.283526,25.4080585 L118.283526,25.4080585 Z" id="Fill-10" fill="#FEFEFE" mask="url(#mask-2)"></path>
        <path d="M125.288709,27.7707398 C126.424592,27.7707398 126.973515,26.9868836 126.973515,25.3811344 C126.973515,23.7880642 126.411913,22.9527465 125.27603,22.9527465 C124.113298,22.9661712 123.565866,23.801489 123.565866,25.3938134 C123.565866,26.9742047 124.140147,27.7707398 125.288709,27.7707398 M125.288709,28.8797732 C123.16014,28.8797732 121.960117,27.5089572 121.960117,25.3811344 C121.960117,23.2533117 123.16014,21.843713 125.288709,21.843713 C127.403853,21.843713 128.591943,23.2145291 128.591943,25.3423518 C128.591943,27.4828535 127.403853,28.8797732 125.288709,28.8797732" id="Fill-11" fill="#FEFEFE" mask="url(#mask-2)"></path>
        <path d="M134.80268,28.7234495 C134.751218,28.7234495 134.699011,28.6839211 134.685586,28.6324595 L133.431864,23.3446 L132.335509,28.6324595 C132.335509,28.6839211 132.283302,28.7234495 132.23184,28.7234495 L130.573138,28.7234495 C130.52093,28.7234495 130.468723,28.6839211 130.456044,28.6324595 L128.862974,22.0908776 C128.850295,22.0394161 128.875653,21.9998876 128.928606,21.9998876 L130.32478,21.9998876 C130.377733,21.9998876 130.429195,22.0394161 130.429195,22.0908776 L131.474088,27.3921619 L132.596546,22.0908776 C132.596546,22.0394161 132.649499,21.9998876 132.700961,21.9998876 L134.41187,21.9998876 C134.463332,21.9998876 134.516285,22.0394161 134.516285,22.0908776 L135.626064,27.2870013 L136.670211,22.0908776 C136.670211,22.0394161 136.722419,21.9998876 136.774626,21.9998876 L138.053706,21.9998876 C138.105914,21.9998876 138.132017,22.0394161 138.119338,22.0908776 L136.578476,28.6324595 C136.565797,28.6839211 136.512843,28.7234495 136.461382,28.7234495 L134.80268,28.7234495 Z" id="Fill-12" fill="#FEFEFE" mask="url(#mask-2)"></path>
        <path d="M141.677494,22.9404405 C140.737761,22.9404405 140.176159,23.5147214 140.006112,24.5976512 L143.269818,24.5976512 C143.205678,23.722805 142.709708,22.9404405 141.677494,22.9404405 L141.677494,22.9404405 Z M144.733116,26.4256545 C144.784577,26.4256545 144.824106,26.4659288 144.811427,26.5173903 C144.627955,27.8225742 143.531601,28.8801462 141.716276,28.8801462 C139.548925,28.8801462 138.387684,27.4310191 138.387684,25.3807615 C138.387684,23.2536846 139.627236,21.8433401 141.664815,21.8433401 C143.753855,21.8433401 144.941199,23.2536846 144.968049,25.5642331 C144.968049,25.6164405 144.92852,25.6552231 144.877059,25.6552231 L139.953905,25.6552231 C140.019537,27.0909254 140.606497,27.7711127 141.743126,27.7711127 C142.565765,27.7711127 143.101263,27.3661328 143.296668,26.5173903 C143.296668,26.4659288 143.348129,26.4256545 143.401082,26.4256545 L144.733116,26.4256545 Z" id="Fill-13" fill="#FEFEFE" mask="url(#mask-2)"></path>
        <path d="M145.8643,28.7234495 C145.812093,28.7234495 145.77331,28.6839211 145.77331,28.6324595 L145.812093,25.3292254 L145.77331,22.0908776 C145.77331,22.0394161 145.812093,21.9998876 145.8643,21.9998876 L147.248541,21.9998876 C147.300002,21.9998876 147.339531,22.0394161 147.339531,22.0908776 L147.287323,23.175299 C147.796718,22.3660849 148.670818,21.9484261 149.638146,21.9484261 C149.75524,21.9484261 149.885758,21.961105 150.002852,21.9872087 C150.055805,21.9872087 150.094588,22.0394161 150.094588,22.0908776 L150.094588,23.1357706 C150.094588,23.1879779 150.055805,23.2267605 150.002852,23.2140816 C149.911862,23.2140816 149.794768,23.2014027 149.676929,23.2014027 C148.409782,23.2014027 147.378313,23.9449846 147.339531,25.4724227 L147.339531,28.6324595 C147.339531,28.6839211 147.300002,28.7234495 147.248541,28.7234495 L145.8643,28.7234495 Z" id="Fill-14" fill="#FEFEFE" mask="url(#mask-2)"></path>
        <path d="M153.51223,22.9404405 C152.573244,22.9404405 152.011642,23.5147214 151.841595,24.5976512 L155.105301,24.5976512 C155.040414,23.722805 154.544444,22.9404405 153.51223,22.9404405 L153.51223,22.9404405 Z M156.567853,26.4256545 C156.62006,26.4256545 156.658842,26.4659288 156.646164,26.5173903 C156.463438,27.8225742 155.366337,28.8801462 153.551759,28.8801462 C151.384408,28.8801462 150.223167,27.4310191 150.223167,25.3807615 C150.223167,23.2536846 151.462719,21.8433401 153.499552,21.8433401 C155.588592,21.8433401 156.775936,23.2536846 156.802786,25.5642331 C156.802786,25.6164405 156.763257,25.6552231 156.711796,25.6552231 L151.789388,25.6552231 C151.85502,27.0909254 152.44198,27.7711127 153.577863,27.7711127 C154.400501,27.7711127 154.936,27.3661328 155.131404,26.5173903 C155.131404,26.4659288 155.183612,26.4256545 155.236565,26.4256545 L156.567853,26.4256545 Z" id="Fill-15" fill="#FEFEFE" mask="url(#mask-2)"></path>
        <path d="M160.715503,27.7576134 C161.773075,27.7576134 162.386885,26.9737572 162.399564,25.4202154 C162.412242,23.8539946 161.812604,22.9791485 160.754286,22.9657237 C159.604978,22.9403659 159.044122,23.8405699 159.044122,25.289697 C159.044122,26.8432388 159.604978,27.7576134 160.715503,27.7576134 L160.715503,27.7576134 Z M162.412242,28.7234495 C162.360035,28.7234495 162.321253,28.6839211 162.321253,28.6324595 L162.360035,27.7971418 C161.903594,28.4616669 161.198048,28.8539679 160.297844,28.8539679 C158.431059,28.8539679 157.451798,27.3399545 157.451798,25.380687 C157.451798,23.4363358 158.522048,21.8693692 160.323202,21.8693692 C161.198048,21.8693692 161.876744,22.2087171 162.333931,22.8352054 L162.333931,19.6759144 C162.333931,19.623707 162.372714,19.5841786 162.425667,19.5841786 L163.809162,19.5841786 C163.862115,19.5841786 163.900898,19.623707 163.900898,19.6759144 L163.887473,23.9323057 L163.900898,28.6324595 C163.900898,28.6839211 163.862115,28.7234495 163.809162,28.7234495 L162.412242,28.7234495 Z" id="Fill-16" fill="#FEFEFE" mask="url(#mask-2)"></path>
        <path d="M170.761169,27.7183087 C171.897052,27.7436666 172.458654,26.8434625 172.458654,25.4204391 C172.458654,23.893001 171.897052,22.9920512 170.787272,23.0047301 C169.742379,23.0047301 169.129316,23.7759074 169.116637,25.2899207 C169.102466,26.8434625 169.690918,27.7048839 170.761169,27.7183087 M171.191506,28.8534458 C170.303981,28.8534458 169.612607,28.5014191 169.155419,27.861506 L169.180777,28.6326833 C169.180777,28.6841448 169.141995,28.7236732 169.089787,28.7236732 L167.692868,28.7236732 C167.64066,28.7236732 167.601878,28.6841448 167.601878,28.6326833 L167.627981,23.9586331 L167.601878,19.6761381 C167.601878,19.6231849 167.64066,19.5844023 167.692868,19.5844023 L169.089787,19.5844023 C169.141995,19.5844023 169.180777,19.6231849 169.180777,19.6761381 L169.180777,22.8749575 C169.651389,22.2477234 170.330831,21.869593 171.218356,21.869593 C173.072463,21.869593 174.064403,23.3836064 174.064403,25.3421281 C174.064403,27.2872251 172.994152,28.8534458 171.191506,28.8534458" id="Fill-17" fill="#FEFEFE" mask="url(#mask-2)"></path>
        <path d="M177.545589,30.8516452 C177.53291,30.9031067 177.479957,30.9426351 177.42775,30.9426351 L176.109141,30.9426351 C176.070359,30.9426351 176.03083,30.9031067 176.043509,30.8516452 L176.761733,28.762605 L174.098412,22.0912505 C174.073054,22.039789 174.098412,22.0002605 174.151365,22.0002605 L175.744435,22.0002605 C175.795897,22.0002605 175.848104,22.039789 175.861529,22.0912505 L177.558268,26.739197 L178.982037,22.0912505 C178.994716,22.039789 179.04767,22.0002605 179.099131,22.0002605 L180.522155,22.0002605 C180.575108,22.0002605 180.600466,22.039789 180.587787,22.0912505 L177.545589,30.8516452 Z" id="Fill-18" fill="#FEFEFE" mask="url(#mask-2)"></path>
        <path d="M183.885054,28.7234495 C183.832101,28.7234495 183.792573,28.6839211 183.792573,28.6324595 L183.819422,24.0889278 L183.792573,19.6759144 C183.792573,19.623707 183.832101,19.5841786 183.885054,19.5841786 L189.759128,19.5841786 C189.812081,19.5841786 189.851609,19.623707 189.851609,19.6759144 L189.851609,20.746911 C189.851609,20.7983726 189.812081,20.837901 189.759128,20.837901 L185.399813,20.837901 L185.372964,23.25361 L189.41978,23.25361 C189.472733,23.25361 189.511516,23.2923926 189.511516,23.3446 L189.511516,24.4155967 C189.511516,24.467804 189.472733,24.5065866 189.41978,24.5065866 L185.372964,24.5065866 L185.399813,27.4697271 L189.864288,27.4697271 C189.91575,27.4697271 189.955278,27.5092555 189.955278,27.5607171 L189.955278,28.6324595 C189.955278,28.6839211 189.91575,28.7234495 189.864288,28.7234495 L183.885054,28.7234495 Z" id="Fill-19" fill="#FEFEFE" mask="url(#mask-2)"></path>
        <path d="M193.67289,27.7438157 C194.730462,27.7438157 195.330846,26.9614512 195.35695,25.4079094 C195.369629,23.8536217 194.76999,22.9922003 193.712418,22.9787756 C192.562365,22.9660967 192.002254,23.8409428 192.002254,25.2766452 C192.002254,26.8436117 192.576535,27.7438157 193.67289,27.7438157 L193.67289,27.7438157 Z M195.383054,28.7230766 C195.330846,28.7230766 195.291318,28.684294 195.291318,28.6320866 L195.318167,27.7967689 C194.86098,28.4620398 194.155435,28.853595 193.255231,28.853595 C191.388445,28.853595 190.409184,27.3403274 190.409184,25.3810599 C190.409184,23.4367087 191.479435,21.8697421 193.280589,21.8697421 C194.169605,21.8697421 194.86098,22.2225147 195.318167,22.8751067 L195.278639,22.0912505 C195.278639,22.039789 195.318167,22.0002605 195.369629,22.0002605 L196.766548,22.0002605 C196.819502,22.0002605 196.858284,22.039789 196.858284,22.0912505 L196.832181,25.3422773 L196.858284,28.6320866 C196.858284,28.684294 196.819502,28.7230766 196.766548,28.7230766 L195.383054,28.7230766 Z" id="Fill-20" fill="#FEFEFE" mask="url(#mask-2)"></path>
        <path d="M200.770555,28.879997 C198.864986,28.879997 197.702254,28.0707829 197.662725,26.5299201 C197.662725,26.4777127 197.702254,26.4389301 197.755207,26.4389301 L199.099173,26.4389301 C199.152126,26.4389301 199.191655,26.4777127 199.191655,26.5299201 C199.230437,27.4308699 199.804718,27.8365957 200.863036,27.8365957 C201.749815,27.8365957 202.285314,27.4830773 202.285314,26.856589 C202.285314,25.3686793 197.820839,26.6865421 197.820839,23.9188064 C197.820839,22.5614151 198.916447,21.843191 200.613932,21.843191 C202.285314,21.843191 203.459979,22.5479903 203.551715,23.9583348 C203.551715,24.0105421 203.512187,24.0493247 203.459979,24.0493247 L202.180899,24.0493247 C202.128692,24.0493247 202.089909,24.0105421 202.076484,23.9583348 C201.984748,23.2535355 201.488779,22.8619803 200.601254,22.8619803 C199.817397,22.8619803 199.321427,23.1483749 199.321427,23.8009669 C199.321427,25.2515856 203.786648,23.8792779 203.786648,26.7253247 C203.786648,28.0961408 202.507568,28.879997 200.770555,28.879997" id="Fill-21" fill="#FEFEFE" mask="url(#mask-2)"></path>
        <path d="M207.360167,30.8516452 C207.347488,30.9031067 207.294535,30.9426351 207.243074,30.9426351 L205.923719,30.9426351 C205.884936,30.9426351 205.845408,30.9031067 205.858087,30.8516452 L206.576311,28.762605 L203.91299,22.0912505 C203.887632,22.039789 203.91299,22.0002605 203.965943,22.0002605 L205.559013,22.0002605 C205.610475,22.0002605 205.662682,22.039789 205.676107,22.0912505 L207.372846,26.739197 L208.796615,22.0912505 C208.809294,22.039789 208.861502,22.0002605 208.913709,22.0002605 L210.336732,22.0002605 C210.389686,22.0002605 210.415043,22.039789 210.402365,22.0912505 L207.360167,30.8516452 Z" id="Fill-22" fill="#FEFEFE" mask="url(#mask-2)"></path>
        <path d="M217.668734,28.9062498 C215.070299,28.9062498 213.281824,26.9999355 213.281824,24.1546344 C213.281824,21.2556344 215.083724,19.4022732 217.603847,19.4022732 C219.757774,19.4022732 221.180052,20.4986278 221.62456,22.4303 C221.637239,22.4832532 221.611135,22.5220358 221.558928,22.5220358 L220.097122,22.5220358 C220.044914,22.5220358 219.992707,22.4832532 219.979282,22.4303 C219.692142,21.2817381 218.869503,20.6813535 217.616526,20.6813535 C215.932466,20.6813535 214.940526,21.9999622 214.940526,24.1799923 C214.940526,26.2951361 215.95857,27.6264237 217.655309,27.6264237 C219.182747,27.6264237 220.097122,26.7001161 220.13665,25.1070458 L217.603847,25.1070458 C217.55164,25.1070458 217.511366,25.0682632 217.511366,25.01531 L217.511366,23.9450592 C217.511366,23.8928518 217.55164,23.8540692 217.603847,23.8540692 L221.741654,23.8540692 C221.793861,23.8540692 221.832643,23.8928518 221.832643,23.9450592 C221.872172,27.2214438 220.396941,28.9062498 217.668734,28.9062498" id="Fill-23" fill="#FEFEFE" mask="url(#mask-2)"></path>
        <path d="M222.742319,28.7234495 C222.690112,28.7234495 222.651329,28.6839211 222.651329,28.6324595 L222.690112,25.3292254 L222.651329,22.0908776 C222.651329,22.0394161 222.690112,21.9998876 222.742319,21.9998876 L224.12656,21.9998876 C224.178022,21.9998876 224.21755,22.0394161 224.21755,22.0908776 L224.166089,23.175299 C224.673992,22.3660849 225.548838,21.9484261 226.51542,21.9484261 C226.633259,21.9484261 226.763032,21.961105 226.880871,21.9872087 C226.933824,21.9872087 226.972607,22.0394161 226.972607,22.0908776 L226.972607,23.1357706 C226.972607,23.1879779 226.933824,23.2267605 226.880871,23.2140816 C226.789881,23.2140816 226.672042,23.2014027 226.554948,23.2014027 C225.288547,23.2014027 224.257079,23.9449846 224.21755,25.4724227 L224.21755,28.6324595 C224.21755,28.6839211 224.178022,28.7234495 224.12656,28.7234495 L222.742319,28.7234495 Z" id="Fill-24" fill="#FEFEFE" mask="url(#mask-2)"></path>
        <path d="M230.429629,27.7707398 C231.565512,27.7707398 232.114435,26.9868836 232.114435,25.3811344 C232.114435,23.7880642 231.552833,22.9527465 230.416204,22.9527465 C229.254964,22.9661712 228.70604,23.801489 228.70604,25.3938134 C228.70604,26.9742047 229.281067,27.7707398 230.429629,27.7707398 M230.429629,28.8797732 C228.301061,28.8797732 227.101037,27.5089572 227.101037,25.3811344 C227.101037,23.2533117 228.301061,21.843713 230.429629,21.843713 C232.544773,21.843713 233.732863,23.2145291 233.732863,25.3423518 C233.732863,27.4828535 232.544773,28.8797732 230.429629,28.8797732" id="Fill-25" fill="#FEFEFE" mask="url(#mask-2)"></path>
        <path d="M236.809144,28.879997 C235.412971,28.879997 234.512021,27.9395187 234.512021,26.2435254 L234.512021,24.8585388 L234.485171,22.090803 C234.485171,22.0393415 234.5247,21.999813 234.577653,21.999813 L235.986506,21.999813 C236.039459,21.999813 236.078241,22.0393415 236.078241,22.090803 L236.065563,24.8585388 L236.065563,26.203997 C236.065563,27.1564084 236.561532,27.6523783 237.279757,27.6523783 C238.075546,27.6523783 238.807195,26.9871074 238.937713,25.5894418 L238.937713,24.8585388 L238.911609,22.090803 C238.911609,22.0393415 238.950392,21.999813 239.002599,21.999813 L240.438302,21.999813 C240.491255,21.999813 240.529292,22.0393415 240.529292,22.090803 L240.503934,25.159104 L240.503934,28.6323849 C240.503934,28.6838465 240.465151,28.7233749 240.412198,28.7233749 L239.068231,28.7233749 C239.015278,28.7233749 238.97575,28.6838465 238.97575,28.6323849 L239.015278,27.744114 C238.58494,28.3706023 237.815255,28.879997 236.809144,28.879997" id="Fill-26" fill="#FEFEFE" mask="url(#mask-2)"></path>
        <path d="M244.665009,27.7314351 C245.800146,27.7314351 246.361748,26.8692679 246.361748,25.4328197 C246.361748,23.9061274 245.813571,23.0044318 244.691113,23.0044318 C243.64622,23.0044318 243.033157,23.788288 243.020478,25.3030472 C243.006307,26.856589 243.594013,27.7314351 244.665009,27.7314351 M245.095347,28.8538933 C244.220501,28.8538933 243.529126,28.5152913 243.071939,27.8880572 L243.098043,30.8519435 C243.098043,30.903405 243.05926,30.9429334 243.006307,30.9429334 L241.596708,30.9429334 C241.544501,30.9429334 241.505718,30.903405 241.505718,30.8519435 L241.531822,25.9041776 L241.505718,22.0915488 C241.505718,22.0393415 241.544501,21.999813 241.596708,21.999813 L242.993628,21.999813 C243.045835,21.999813 243.084618,22.0393415 243.084618,22.0915488 L243.05926,22.9268666 C243.516447,22.2608498 244.220501,21.8700405 245.121451,21.8700405 C246.976304,21.8700405 247.968243,23.383308 247.968243,25.3425756 C247.968243,27.2869268 246.897247,28.8538933 245.095347,28.8538933" id="Fill-27" fill="#FEFEFE" mask="url(#mask-2)"></path>
        <polygon id="Fill-28" fill="#3F90CD" mask="url(#mask-2)" points="115.853124 35.1685224 139.718599 35.1685224 139.718599 42.3134722 123.593238 42.3134722 123.593238 48.8625124 138.825107 48.8625124 138.825107 56.0067164 123.593238 56.0067164 123.593238 63.152412 140.611345 63.152412 140.611345 70.2966161 115.853124 70.2966161"></polygon>
        <path d="M162.094598,45.389306 L157.827019,56.3051187 L166.410655,56.3051187 L162.094598,45.389306 Z M159.117287,35.168597 L165.517909,35.168597 L180.799003,70.2966906 L172.066949,70.2966906 L169.040414,62.8541589 L155.396394,62.8541589 L152.469053,70.2966906 L143.934641,70.2966906 L159.117287,35.168597 Z" id="Fill-29" fill="#3F90CD" mask="url(#mask-2)"></path>
        <path d="M202.183136,43.7520087 C201.554411,42.9584569 200.702685,42.371497 199.627959,41.9911291 C198.553233,41.6107612 197.535936,41.4205773 196.576812,41.4205773 C196.014464,41.4205773 195.435708,41.4869552 194.840544,41.6189652 C194.244635,41.7509753 193.682287,41.958313 193.153501,42.239487 C192.623969,42.5206609 192.193631,42.8928247 191.863233,43.3552328 C191.532835,43.8191324 191.367264,44.3814803 191.367264,45.0415304 C191.367264,46.100594 191.764039,46.9112997 192.558337,47.4729017 C193.351889,48.0359953 194.352033,48.5155572 195.559514,48.9123331 C196.766996,49.309109 198.065468,49.7058849 199.454929,50.1034067 C200.843645,50.5001826 202.141371,51.0632763 203.348852,51.7897043 C204.55708,52.5176241 205.557223,53.4946475 206.351521,54.7170455 C207.145073,55.9416809 207.542595,57.5787545 207.542595,59.629012 C207.542595,61.5808214 207.177143,63.2842729 206.450715,64.7401124 C205.722049,66.1959518 204.73906,67.4026876 203.498762,68.3618114 C202.258464,69.3209351 200.819033,70.031701 199.181959,70.4948548 C197.54414,70.9580087 195.816076,71.1892127 193.996277,71.1892127 C191.714815,71.1892127 189.597434,70.8424067 187.646371,70.1480488 C185.694561,69.4529452 183.875508,68.3289953 182.188464,66.7739619 L187.695595,60.7208916 C188.489892,61.7799552 189.48929,62.5988649 190.697518,63.1768749 C191.904999,63.7556308 193.153501,64.0450087 194.443769,64.0450087 C195.071748,64.0450087 195.708678,63.9704268 196.353812,63.8212629 C196.998946,63.6728448 197.576956,63.4498448 198.09008,63.1522629 C198.602458,62.8539351 199.015641,62.474313 199.330377,62.0104134 C199.645113,61.5480054 199.802481,61.0020656 199.802481,60.3733398 C199.802481,59.3150221 199.396755,58.4804502 198.586795,57.8681324 C197.775344,57.2558147 196.758792,56.7352328 195.534902,56.304895 C194.311013,55.875303 192.987929,55.445711 191.565652,55.0153732 C190.142628,54.5850355 188.819544,54.0062796 187.596401,53.2783599 C186.372511,52.551186 185.355959,51.5913164 184.545254,50.4009886 C183.734548,49.2099151 183.329568,47.6392194 183.329568,45.68741 C183.329568,43.8012328 183.701732,42.148497 184.44606,40.7254736 C185.190387,39.3039418 186.182327,38.1128682 187.422625,37.1529987 C188.662922,36.1946207 190.093404,35.474905 191.714815,34.9953431 C193.334735,34.5157813 195.005371,34.2756274 196.725976,34.2756274 C198.710601,34.2756274 200.628103,34.5575472 202.480718,35.1191492 C204.333334,35.6822428 206.003969,36.6242127 207.491879,37.9472963 L202.183136,43.7520087 Z" id="Fill-30" fill="#3F90CD" mask="url(#mask-2)"></path>
        <polygon id="Fill-31" fill="#3F90CD" mask="url(#mask-2)" points="222.674226 55.3128806 209.476952 35.1682987 219.101751 35.1682987 226.544283 48.3163488 234.433561 35.1682987 243.611614 35.1682987 230.41434 55.3128806 230.41434 70.2963923 222.674226 70.2963923"></polygon>
        <path d="M269.907789,44.2982468 C269.146307,43.3726849 268.212541,42.6611732 267.104254,42.1644575 C265.995966,41.6684876 264.714648,41.4208756 263.259555,41.4208756 C261.803715,41.4208756 260.45602,41.7020495 259.215722,42.2636515 C257.975424,42.8259993 256.900699,43.612093 255.990799,44.6204408 C255.080899,45.6295344 254.369388,46.828812 253.85701,48.2175278 C253.343886,49.6069893 253.08807,51.1127987 253.08807,52.7327184 C253.08807,54.3869458 253.343886,55.9002134 253.85701,57.2725211 C254.369388,58.6448288 255.072695,59.8359023 255.966187,60.844996 C256.858933,61.8540896 257.908301,62.6394375 259.116528,63.2017853 C260.323264,63.7648789 261.622481,64.045307 263.011197,64.045307 C264.599046,64.045307 266.004916,63.714909 267.228806,63.0526214 C268.451949,62.3918254 269.461043,61.4655177 270.255341,60.2744441 L276.705187,65.0872167 C275.216531,67.1710361 273.331846,68.7081699 271.048893,69.7016013 C268.766685,70.6935411 266.417354,71.189511 264.003883,71.189511 C261.257776,71.189511 258.72721,70.7591732 256.412187,69.8992435 C254.097164,69.0400595 252.09613,67.8079659 250.408341,66.2029625 C248.722043,64.5994508 247.407164,62.6558455 246.464448,60.3736381 C245.522478,58.0906849 245.050374,55.5444575 245.050374,52.7327184 C245.050374,49.9217251 245.522478,47.374006 246.464448,45.0917987 C247.407164,42.8095913 248.722043,40.8667318 250.408341,39.2617284 C252.09613,37.6582167 254.097164,36.4261231 256.412187,35.5654475 C258.72721,34.7062635 261.257776,34.2759258 264.003883,34.2759258 C264.995822,34.2759258 266.029528,34.3676615 267.104254,34.5488957 C268.179725,34.7308756 269.238789,35.0202535 270.279953,35.4170294 C271.321863,35.8138054 272.322006,36.3433371 273.28113,37.0048789 C274.241,37.6664207 275.100929,38.4763806 275.861665,39.4355043 L269.907789,44.2982468 Z" id="Fill-32" fill="#FEFEFE" mask="url(#mask-2)"></path>
        <path d="M295.70777,45.389306 L291.440937,56.3051187 L300.024573,56.3051187 L295.70777,45.389306 Z M292.731205,35.168597 L299.131081,35.168597 L314.412921,70.2966906 L305.680121,70.2966906 L302.653586,62.8541589 L289.010312,62.8541589 L286.082971,70.2966906 L277.54856,70.2966906 L292.731205,35.168597 Z" id="Fill-33" fill="#FEFEFE" mask="url(#mask-2)"></path>
        <path d="M324.434869,49.7061833 L329.000029,49.7061833 C329.694387,49.7061833 330.429765,49.6815712 331.207655,49.6316013 C331.984799,49.5823773 332.687361,49.4332134 333.316086,49.1856013 C333.944066,48.9372435 334.465394,48.5486716 334.879324,48.0191398 C335.292508,47.4903538 335.4991,46.7460261 335.4991,45.7861565 C335.4991,44.8934107 335.31712,44.1826448 334.953906,43.653113 C334.5892,43.1243271 334.126046,42.7186013 333.564444,42.4374274 C333.001351,42.1569993 332.356217,41.9660696 331.629043,41.8668756 C330.901869,41.7669358 330.191103,41.7177117 329.495999,41.7177117 L324.434869,41.7177117 L324.434869,49.7061833 Z M316.694755,35.1686716 L330.290297,35.1686716 C332.075789,35.1686716 333.771036,35.3424475 335.375294,35.6899993 C336.978805,36.0368054 338.384675,36.616307 339.592902,37.4262669 C340.799638,38.2369726 341.758762,39.3288522 342.471019,40.7011599 C343.181785,42.0742134 343.536795,43.7858689 343.536795,45.8361264 C343.536795,48.3167217 342.892407,50.425899 341.60214,52.1621666 C340.311872,53.8984341 338.427187,54.9992635 335.946591,55.4616716 L344.876287,70.2960194 L335.599039,70.2960194 L328.255702,56.2552234 L324.434869,56.2552234 L324.434869,70.2960194 L316.694755,70.2960194 L316.694755,35.1686716 Z" id="Fill-34" fill="#FEFEFE" mask="url(#mask-2)"></path>
        <polygon id="Fill-35" fill="#FEFEFE" mask="url(#mask-2)" points="348.647075 35.1685224 372.51255 35.1685224 372.51255 42.3134722 356.387189 42.3134722 356.387189 48.8625124 371.619059 48.8625124 371.619059 56.0067164 356.387189 56.0067164 356.387189 63.152412 373.405296 63.152412 373.405296 70.2966161 348.647075 70.2966161"></polygon>
        <polygon id="Fill-36" fill="#FEFEFE" mask="url(#mask-2)" points="379.160113 35.1685224 403.025588 35.1685224 403.025588 42.3134722 386.900227 42.3134722 386.900227 48.8625124 402.132096 48.8625124 402.132096 56.0067164 386.900227 56.0067164 386.900227 63.152412 403.918334 63.152412 403.918334 70.2966161 379.160113 70.2966161"></polygon>
        <path d="M417.11531,49.7061833 L421.679724,49.7061833 C422.374828,49.7061833 423.110206,49.6815712 423.88735,49.6316013 C424.664494,49.5823773 425.367056,49.4332134 425.996527,49.1856013 C426.624507,48.9372435 427.145089,48.5486716 427.559019,48.0191398 C427.972948,47.4903538 428.17954,46.7460261 428.17954,45.7861565 C428.17954,44.8934107 427.997561,44.1826448 427.634346,43.653113 C427.268895,43.1243271 426.806487,42.7186013 426.244139,42.4374274 C425.681791,42.1569993 425.036658,41.9660696 424.309484,41.8668756 C423.581564,41.7669358 422.870798,41.7177117 422.175694,41.7177117 L417.11531,41.7177117 L417.11531,49.7061833 Z M409.375196,35.1686716 L422.969992,35.1686716 C424.756229,35.1686716 426.450731,35.3424475 428.055734,35.6899993 C429.659246,36.0368054 431.065116,36.616307 432.272597,37.4262669 C433.479333,38.2369726 434.439203,39.3288522 435.150714,40.7011599 C435.86148,42.0742134 436.217236,43.7858689 436.217236,45.8361264 C436.217236,48.3167217 435.572102,50.425899 434.282581,52.1621666 C432.992313,53.8984341 431.106882,54.9992635 428.626286,55.4616716 L437.556728,70.2960194 L428.278734,70.2960194 L420.935397,56.2552234 L417.11531,56.2552234 L417.11531,70.2960194 L409.375196,70.2960194 L409.375196,35.1686716 Z" id="Fill-37" fill="#FEFEFE" mask="url(#mask-2)"></path>
        <path d="M101.157424,73.8426144 L89.6002067,65.7556946 C89.2675712,65.5237448 88.814113,65.6042933 88.5732134,65.931708 C83.3979726,72.9692599 75.5027284,77.503096 66.7990161,78.4077749 C58.5636783,79.2647214 50.4894375,76.8609455 44.0619659,71.6439388 C43.326588,71.0465375 42.6247719,70.4193033 41.9535344,69.7674572 C37.3742033,72.4710525 32.9731231,75.3834773 29.0583171,78.8463167 C30.6454207,80.5915341 32.3734843,82.2300993 34.2395244,83.7441127 C42.6195512,90.5459856 52.861889,94.1647013 63.5084609,94.1647013 C65.1343472,94.1647013 66.7699291,94.0804237 68.409986,93.9096311 C81.6072602,92.5388151 93.5649826,85.6168652 101.336421,74.880795 C101.57732,74.5466679 101.494534,74.0782933 101.157424,73.8426144" id="Fill-38" fill="#3F90CD" mask="url(#mask-2)"></path>
        <path d="M56.3605278,77.7311676 C56.5768154,77.5290505 56.7908656,77.3269334 57.0108823,77.126308 C57.032511,77.1076625 57.0496649,77.0837963 57.0608522,77.0576926 C62.9386548,63.5285288 78.6172702,52.6373281 83.0317753,33.0647896 C81.6669258,32.6680137 82.2419525,32.8358231 80.877103,32.4383013 C74.3780328,50.9122478 57.107093,60.4229368 49.7376515,72.3239769 C49.7212435,72.3500806 49.710802,72.3791676 49.7063271,72.4090003 C49.5832669,73.3039836 49.4840729,74.2146291 49.4042702,75.1394452 C51.618608,76.2857696 53.9507853,77.1546492 56.3605278,77.7311676" id="Fill-39" fill="#B6D3ED" mask="url(#mask-2)"></path>
        <path d="M82.5297642,26.3330237 C83.752908,27.3257094 84.7426104,28.4727796 85.7039716,29.6407328 C85.7904866,29.7458933 85.8397107,29.8779033 85.8150987,30.0121508 C79.3130452,65.2245221 36.382189,71.2112144 23.0469381,89.4054786 C22.9850351,89.490502 22.894791,89.5486759 22.7918679,89.5695589 C16.1287174,90.9030839 8.35205853,91.6943983 0.551533445,94.1451609 C0.250222408,94.2391341 -0.045867893,93.9855555 0.00633946488,93.6745488 C1.72545318,83.2927428 4.10909197,77.7035722 6.41516555,70.3110104 C6.44052341,70.2297161 6.48900167,70.1566258 6.55612542,70.1036726 C25.4440017,54.9575722 70.0290853,60.2931642 81.8272023,26.4896458 C81.9316171,26.1913181 82.2843896,26.1331441 82.5297642,26.3330237" id="Fill-40" fill="#FEFEFE" mask="url(#mask-2)"></path>
        <path d="M83.7606645,23.9141823 C84.8167448,24.9031388 85.8109221,25.9704064 86.7312632,27.1130017 C86.9102599,27.3360017 87.231708,27.3770217 87.4569455,27.2010084 L98.9380893,18.2728043 C99.1670559,18.0945535 99.2080759,17.7619181 99.0283334,17.535189 C97.3435274,15.4192993 94.8114706,13.0923428 92.8231161,11.3277341 C92.6001161,11.1286003 92.2458518,11.1561957 92.0683468,11.3963495 C89.9121829,14.3028077 85.8213635,19.9270318 83.7054739,23.2108746 C83.5585475,23.4390953 83.5622766,23.7284732 83.7606645,23.9141823" id="Fill-41" fill="#3F90CD" mask="url(#mask-2)"></path>
        <path d="M32.7674261,50.7833702 C31.9119712,42.5487783 34.3142555,34.4737916 39.5312622,28.0463201 C44.7490147,21.6188485 52.1579846,17.6078318 60.3925766,16.7516311 C67.7172689,15.9901495 74.9785666,17.8718518 80.9466134,21.901514 C81.2643324,22.1155642 81.7043659,22.0529154 81.9161786,21.7337047 C84.1305164,18.4088418 89.5116033,11.4585508 90.1858241,10.2100492 C90.3909244,9.82968127 90.3402087,9.44409264 90.0172689,9.22183846 C80.9861418,3.00394214 69.9338441,0.0900257525 58.7816067,1.24977492 C46.4062254,2.53631338 35.2718876,8.56402575 27.4310883,18.2238786 C19.590289,27.8837314 15.9797773,40.0189589 17.2655699,52.3943401 C17.492299,54.5706411 17.8667003,56.7074137 18.3805699,58.795708 C18.483493,59.2111294 18.9339679,59.4326378 19.329998,59.2693033 C23.6020515,57.5061863 28.1396167,56.0264806 32.7495264,54.6183736 C33.0978241,54.5117214 33.3029244,54.158203 33.2305799,53.8017013 C33.0292087,52.8105074 32.8733324,51.8029054 32.7674261,50.7833702" id="Fill-42" fill="#3F90CD" mask="url(#mask-2)"></path>
    </g>
</svg>