<?xml version="1.0" encoding="UTF-8"?>
<svg width="1041px" height="818px" viewBox="0 0 1041 818" version="1.1" xmlns="http://www.w3.org/2000/svg" xmlns:xlink="http://www.w3.org/1999/xlink">
    <!-- Generator: Sketch 51.3 (57544) - http://www.bohemiancoding.com/sketch -->
    <title>app-9</title>
    <desc>Created with Sketch.</desc>
    <defs>
        <linearGradient x1="49.9973333%" y1="100%" x2="49.9973333%" y2="0%" id="linearGradient-1">
            <stop stop-color="#808080" stop-opacity="0.25" offset="0%"></stop>
            <stop stop-color="#808080" stop-opacity="0.12" offset="54%"></stop>
            <stop stop-color="#808080" stop-opacity="0.1" offset="100%"></stop>
        </linearGradient>
        <linearGradient x1="49.9970375%" y1="100.006358%" x2="49.9970375%" y2="0.00476573736%" id="linearGradient-2">
            <stop stop-color="#808080" stop-opacity="0.25" offset="0%"></stop>
            <stop stop-color="#808080" stop-opacity="0.12" offset="54%"></stop>
            <stop stop-color="#808080" stop-opacity="0.1" offset="100%"></stop>
        </linearGradient>
    </defs>
    <g id="Page-1" stroke="none" stroke-width="1" fill="none" fill-rule="evenodd">
        <g id="app-9" transform="translate(-1.000000, 0.000000)">
            <path d="M509.29,71.73 C472.02,67.26 437.16,53.53 401.98,41.92 C362.851065,29.0713677 322.935084,18.7566775 282.48,11.04 C239.38,2.8 194.95,-2.57 151.74,1.27 C108.53,5.11 66.37,18.92 38.81,44.17 C-7.88,87 -3.94,151.92 11.48,209.14 C29.78,277.03 61.42,344.14 113.21,401.96 C150.02,443.06 196.21,478.64 241.99,513.96 C267.87,533.89 293.99,553.96 324.22,569.63 C352.34,584.19 383.39,594.63 414.22,604.92 C447.14,615.92 480.14,626.98 514.13,635.39 C622.62,662.23 736.83,661.39 848.5,659 C887.8,658.17 928.88,656.8 961.85,641.45 C987.54,629.45 1005.85,610.01 1019.72,589.28 C1037.87,562.12 1049.33,529.71 1036.44,499.42 C1017.44,454.74 952.32,428.42 930.64,384.42 C902.86,327.96 956.82,268.28 941.55,209.51 C935.2,185.06 917.29,162.96 898.31,142.35 C853.04,93.21 792.87,48.45 712,54.99 C643.53,60.51 581.08,80.35 509.29,71.73 Z" id="Shape" fill="#F58A07" fill-rule="nonzero" opacity="0.1"></path>
            <path d="M342.32,44.27 L655.32,44.27 C672.401851,44.2699111 686.264897,58.0882381 686.32,75.17 L686.32,760.51 C686.264897,777.591762 672.401851,791.410089 655.32,791.41 L342.32,791.41 C325.238149,791.410089 311.375103,777.591762 311.32,760.51 L311.32,75.16 C311.380599,58.0821461 325.242039,44.2698925 342.32,44.27 Z" id="Shape" fill="url(#linearGradient-1)" fill-rule="nonzero"></path>
            <rect id="Rectangle-path" fill="#4E5A86" fill-rule="nonzero" transform="translate(498.810000, 419.270000) rotate(-180.000000) translate(-498.810000, -419.270000) " x="314.17" y="49.99" width="369.28" height="738.56" rx="26.87"></rect>
            <rect id="Rectangle-path" fill="#FFFFFF" fill-rule="nonzero" transform="translate(498.805000, 419.275000) rotate(-180.000000) translate(-498.805000, -419.275000) " x="341.36" y="118.7" width="314.89" height="601.15"></rect>
            <circle id="Oval" fill="#FFFFFF" fill-rule="nonzero" cx="536.02" cy="84.34" r="2.86"></circle>
            <rect id="Rectangle-path" fill="#FFFFFF" fill-rule="nonzero" transform="translate(490.210000, 84.335000) rotate(180.000000) translate(-490.210000, -84.335000) " x="458.72" y="81.47" width="62.98" height="5.73" rx="1"></rect>
            <circle id="Oval" fill="#FFFFFF" fill-rule="nonzero" cx="500.24" cy="748.47" r="20.04"></circle>
            <ellipse id="Oval" fill="#6C63FF" fill-rule="nonzero" opacity="0.1" cx="483.81" cy="768.84" rx="254" ry="49"></ellipse>
            <rect id="Rectangle-path" fill="#6C63FF" fill-rule="nonzero" opacity="0.1" x="377.31" y="211.84" width="243" height="325"></rect>
            <path d="M585.38,369.39 C584.78,368.71 584.17,368.05 583.54,367.39 C588.37,361.91 593.38,356.28 593.33,349.24 C593.28,340.67 585.68,334.1 582.84,326 C578.98,315 584.34,303.18 586.54,291.73 C590.01557,272.887686 584.904451,253.477166 572.6,238.79 C570.37,236.15 567.78,233.6 564.45,232.56 C559.4,230.96 554.02,233.18 548.76,233.83 C531.37,235.97 515.55,220.99 498.08,222.33 C496.922776,222.37442 495.783692,222.63207 494.72,223.09 C492.46,224.17 491.24,226.55 489.84,228.61 C484.41,236.61 475.3,240.61 466.23,244.61 C465.092679,244.950173 464.008763,245.44837 463.01,246.09 C460.29,247.36 457.61,248.68 455.08,250.18 C442.48,257.74 440.48,267.43 444.41,275.51 C444.41,275.51 444.41,275.51 444.41,275.51 C445.904835,278.489277 447.986529,281.135614 450.53,283.29 C450.434825,283.77916 450.314667,284.263127 450.17,284.74 C447.6,293.98 438.6,302.27 440.24,311.88 C440.600588,313.750647 441.276911,315.546283 442.24,317.19 C444.91,322.02 449.33,326.19 451.03,331.43 C451.204994,331.961095 451.348576,332.502031 451.46,333.05 C452.38,337.63 450.92,341.99 448.91,346.32 C429.75,350.75 408.11,358.91 406.43,373.32 C403.49,398.38 394.65,467.6 394.65,467.6 C394.65,467.6 388.73,499.6 402.99,503.5 C407.48,504.72 413.99,503.13 423.33,496.84 L422.83,498.32 C422.72,498.65 422.61,498.97 422.51,499.32 C418.426472,511.590612 415.159336,524.117975 412.73,536.82 L550.33,536.82 C549.173334,528.832344 547.377571,520.950382 544.96,513.25 C544.79,512.69 544.62,512.18 544.47,511.7 C548.379174,513.380798 552.386502,514.823436 556.47,516.02 C561.54,517.54 565.61,517.52 568.88,516.55 C580.79,513 582.05,496.87 582.05,496.87 L587.17,457.55 L593.29,398.92 C594.194215,396.377828 594.650975,393.69817 594.64,391 C594.64,385.35 592.72,377.75 585.38,369.39 Z M480.9,332.47 C480.97,331.79 481.02,331.1 481.06,330.42 L481.24,330.54 C481.24,331.19 481.17,331.84 481.1,332.48 C481.1,332.48 481.1,332.55 481.1,332.59 C480.906354,334.63451 480.469949,336.648689 479.8,338.59 C480.330564,336.582882 480.698423,334.53625 480.9,332.47 Z M550.34,474.29 C547.27,475.69 543.18,473.68 543.18,473.68 C543.53,474.32 543.86,474.94 544.18,475.56 C544.183283,475.583218 544.183283,475.606782 544.18,475.63 L543.96,475.51 L541.61,474.31 C542.568634,469.554627 544.120783,464.938496 546.23,460.57 C548.020288,456.930654 549.615872,453.198724 551.01,449.39 C551.6,447.71 552.09,446.17 552.49,444.75 C552.419145,451.049148 552.723015,457.346935 553.4,463.61 C554.28,470.42 552.59,473.28 550.34,474.29 Z" id="Shape" fill="url(#linearGradient-2)" fill-rule="nonzero"></path>
            <path d="M456.31,254.45 C453.04,256.68 449.61,259.26 448.45,263.05 C446.57,269.16 451.29,275.29 451.75,281.67 C452.6,293.26 439.49,302.84 441.42,314.31 C442.74,322.17 450.8,327.51 452.35,335.31 C454.61,346.71 442.26,356.76 443.23,368.31 C443.75,374.48 448.04,379.72 452.9,383.54 C459.732538,388.888685 467.91008,392.245526 476.53,393.24 C475.96,383.33 468.6,374.3 469.87,364.45 C470.74,357.7 475.49,352.17 478.24,345.94 C483.07,335 481.52,322.34 478.63,310.74 C475.74,299.14 471.55,287.67 471.34,275.74 C471.21,268.54 474.59,257.97 472.11,251.14 C469.1,242.86 461.92,250.63 456.31,254.45 Z" id="Shape" fill="#B0605D" fill-rule="nonzero"></path>
            <path d="M457.31,252.45 C454.04,254.68 450.61,257.26 449.45,261.05 C447.57,267.16 452.29,273.29 452.75,279.67 C453.6,291.26 440.49,300.84 442.42,312.31 C443.74,320.17 451.8,325.51 453.35,333.31 C455.61,344.71 443.26,354.76 444.23,366.31 C444.75,372.48 449.04,377.72 453.9,381.54 C460.732538,386.888685 468.91008,390.245526 477.53,391.24 C476.96,381.33 469.6,372.3 470.87,362.45 C471.74,355.7 476.49,350.17 479.24,343.94 C484.07,333 482.52,320.34 479.63,308.74 C476.74,297.14 472.55,285.67 472.34,273.74 C472.21,266.54 475.59,255.97 473.11,249.14 C470.1,240.86 462.92,248.63 457.31,252.45 Z" id="Shape" fill="#000000" fill-rule="nonzero" opacity="0.1"></path>
            <path d="M467.89,402.77 C467.89,402.77 414.89,348.77 454.89,352.77 C463.96,353.68 470.1,352.06 474.17,349.02 C478.81,345.56 480.76,340.26 481.3,334.73 C482.4,323.73 477.89,311.73 477.89,311.73 C477.89,311.73 531.89,268.73 520.89,322.73 C519.682124,328.217588 518.97919,333.804237 518.79,339.42 C518.61,350.88 522.38,355.27 527.67,357.07 C536.59,360.12 549.85,355.85 555.89,365.73 C566.89,383.77 467.89,402.77 467.89,402.77 Z" id="Shape" fill="#FFB9B9" fill-rule="nonzero"></path>
            <path d="M520.89,322.77 C519.682124,328.257588 518.97919,333.844237 518.79,339.46 C517.351126,339.95822 515.885502,340.375538 514.4,340.71 C503.009475,343.278397 491.064271,341.113103 481.3,334.71 C482.4,323.71 477.89,311.71 477.89,311.71 C477.89,311.71 531.89,268.77 520.89,322.77 Z" id="Shape" fill="#000000" fill-rule="nonzero" opacity="0.05"></path>
            <path d="M547.89,296.77 C547.89,320.518244 528.638244,339.77 504.89,339.77 C481.141756,339.77 461.89,320.518244 461.89,296.77 C461.89,295.97 461.89,295.17 461.96,294.38 C463.286172,271.159189 482.835896,253.201765 506.085556,253.848415 C529.335215,254.495066 547.856576,273.511374 547.89,296.77 Z" id="Shape" fill="#FFB9B9" fill-rule="nonzero"></path>
            <path d="M467.89,402.77 C467.89,402.77 414.89,348.77 454.89,352.77 C463.96,353.68 470.1,352.06 474.17,349.02 C466.48,361.86 457.72,384.92 496.89,382.77 C532.74,380.77 532.13,366.49 527.67,357.11 C536.59,360.16 549.85,355.89 555.89,365.77 C566.89,383.77 467.89,402.77 467.89,402.77 Z" id="Shape" fill="#000000" fill-rule="nonzero" opacity="0.05"></path>
            <path d="M590.82,400.64 C590.571301,401.375219 590.260167,402.087817 589.89,402.77 L576.3,413.14 L574.57,414.47 L551.9,431.77 C551.9,431.77 553.98,435.41 551.01,446.07 C549.435599,451.471678 547.391121,456.725084 544.9,461.77 C542.839898,466.107222 541.321805,470.681654 540.38,475.39 C540.384747,475.45992 540.384747,475.53008 540.38,475.6 C540.21,476.47 540.06,477.33 539.94,478.18 C538.676437,486.679864 538.923564,495.336069 540.67,503.75 C540.687529,503.864451 540.710893,503.977933 540.74,504.09 C541.22,506.37 541.67,507.92 541.85,508.5 L541.94,508.77 C541.94,508.77 542.42,510.05 543.14,512.29 L543.2,512.49 C545.750626,520.437884 547.643665,528.581969 548.86,536.84 L414.65,536.84 C417.074921,524.103806 420.3319,511.540218 424.4,499.23 L424.89,497.77 C424.07,498.33 423.27,498.86 422.5,499.34 C413.2,505.18 407.03,505.79 402.98,503.54 C391.71,497.27 396.89,468.77 396.89,468.77 C396.89,468.77 405.52,400.12 408.39,375.27 C410.04,360.98 431.16,352.89 449.86,348.49 C459.355958,346.289884 468.986948,344.719795 478.69,343.79 L478.89,343.79 C478.89,343.79 478.61,344.13 478.14,344.79 L478.08,344.87 C477.73,345.33 477.28,345.92 476.78,346.64 C476.78,346.64 476.78,346.64 476.78,346.64 C473.473175,351.159963 470.729611,356.06614 468.61,361.25 C465.51,369.41 464.98,378.32 474.05,382.85 C478.62,385.14 485.62,386.32 495.94,385.75 C511.89,384.87 520.63,381.54 525.02,377.3 C526.886867,375.570571 528.151799,373.289488 528.63,370.79 C529.78,364.71 526.08,358.31 523.51,354.73 C523.51,354.73 523.51,354.73 523.51,354.73 C522.799917,353.744319 522.038882,352.796363 521.23,351.89 L547.45,353.76 C560.295711,354.603416 572.374818,360.17099 581.36,369.39 C581.98,370.02 582.58,370.68 583.16,371.39 C594.62,384.68 592.48,396.08 590.82,400.64 Z" id="Shape" fill="#FFD6EF" fill-rule="nonzero"></path>
            <path d="M433.89,398.77 C433.89,398.77 435.89,414.77 431.89,419.77 C427.89,424.77 426.89,447.77 431.89,461.77 L433.89,398.77 Z" id="Shape" fill="#000000" fill-rule="nonzero" opacity="0.05"></path>
            <rect id="Rectangle-path" fill="#CDD0DB" fill-rule="nonzero" x="438.89" y="432.76" width="68" height="28" rx="3.75"></rect>
            <rect id="Rectangle-path" fill="#000000" fill-rule="nonzero" opacity="0.05" x="438.89" y="432.76" width="68" height="28" rx="3.75"></rect>
            <rect id="Rectangle-path" fill="#CDD0DB" fill-rule="nonzero" x="438.89" y="433.76" width="68" height="28" rx="3.75"></rect>
            <circle id="Oval" fill="#9DA7C0" fill-rule="nonzero" cx="492.39" cy="447.26" r="3"></circle>
            <path d="M409.95,477.11 C411.776975,471.670723 415.91243,467.315686 421.25,465.21 C424.67,463.79 428.84,461.21 430.95,456.5 C434.89,447.77 441.89,438.77 459.89,444.77 C477.89,450.77 454.89,454.77 454.89,454.77 C454.89,454.77 495.89,448.77 479.89,460.77 C463.89,472.77 443.89,479.77 443.89,479.77 L434.04,490.2 C428.04,496.57 417.62,496.54 412.04,489.76 C409.54,486.7 408.23,482.58 409.95,477.11 Z" id="Shape" fill="#000000" fill-rule="nonzero" opacity="0.05"></path>
            <path d="M408.95,475.11 C410.776975,469.670723 414.91243,465.315686 420.25,463.21 C423.67,461.79 427.84,459.21 429.95,454.5 C433.89,445.77 440.89,436.77 458.89,442.77 C476.89,448.77 453.89,452.77 453.89,452.77 C453.89,452.77 494.89,446.77 478.89,458.77 C462.89,470.77 442.89,477.77 442.89,477.77 L433.04,488.2 C427.04,494.57 416.62,494.54 411.04,487.76 C408.54,484.7 407.23,480.58 408.95,475.11 Z" id="Shape" fill="#FFB9B9" fill-rule="nonzero"></path>
            <path d="M549.89,495.77 L542.89,512.77 L533.89,506.18 L508.89,487.77 L491.89,476.77 C467.89,458.77 491.89,455.77 491.89,455.77 C482.89,451.77 491.89,447.77 491.89,447.77 C523.89,440.77 517.89,466.77 517.89,466.77 L538.16,477.28 L544.89,480.77 L549.89,495.77 Z" id="Shape" fill="#000000" fill-rule="nonzero" opacity="0.05"></path>
            <path d="M551.89,493.77 L544.89,510.77 L535.89,504.18 L510.89,485.77 L493.89,474.77 C469.89,456.77 493.89,453.77 493.89,453.77 C484.89,449.77 493.89,445.77 493.89,445.77 C525.89,438.77 519.89,464.77 519.89,464.77 L540.16,475.28 L546.89,478.77 L551.89,493.77 Z" id="Shape" fill="#FFB9B9" fill-rule="nonzero"></path>
            <path d="M551.89,493.77 L544.89,510.77 L535.89,504.18 C544,504.47 553.58,500.55 540.12,475.28 L546.85,478.77 L551.89,493.77 Z" id="Shape" fill="#000000" fill-rule="nonzero" opacity="0.05"></path>
            <path d="M588.89,392.77 L590.82,400.64 L584.89,458.77 L579.89,497.77 C579.89,497.77 577.89,523.77 554.89,516.77 C531.89,509.77 529.89,502.77 529.89,502.77 C529.89,502.77 562.89,513.77 541.89,474.77 C541.89,474.77 553.89,480.77 551.89,464.77 C549.89,448.77 551.89,420.77 551.89,420.77 L588.89,392.77 Z" id="Shape" fill="#FFD6EF" fill-rule="nonzero"></path>
            <path d="M547.89,296.77 C547.892248,316.856014 533.988622,334.267721 514.4,338.71 C512.96,334.55 511.94,330.41 512.99,326.2 C514.99,318.03 524.45,312.07 523.4,303.72 C523.296882,302.775357 522.952516,301.873117 522.4,301.1 C520.29,298.32 515.99,299.7 512.57,300.39 C503.73,302.15 494.05,296.18 491.65,287.49 C483.818694,295.19216 472.330466,297.85369 461.91,294.38 C463.236172,271.159189 482.785896,253.201765 506.035556,253.848415 C529.285215,254.495066 547.806576,273.511374 547.84,296.77 L547.89,296.77 Z" id="Shape" fill="#000000" fill-rule="nonzero" opacity="0.05"></path>
            <path d="M492.71,285.49 C495.1,294.18 504.79,300.15 513.62,298.38 C517.04,297.7 521.34,296.32 523.45,299.1 C523.988822,299.872286 524.316322,300.772049 524.4,301.71 C525.46,310.07 516.03,316.02 514,324.2 C511.91,332.62 518,340.75 519.35,349.32 C520.06,354.01 519.35,358.79 519.35,363.53 C519.35,368.27 520.47,373.37 523.99,376.53 C527.51,379.69 533.99,379.75 536.36,375.63 C547.61,381.58 543.12,400.01 551.66,409.44 C556.37,414.64 564.12,415.89 571.11,415.23 C572.746919,415.203927 574.338562,414.688472 575.68,413.75 C576.835519,412.609708 577.616776,411.14485 577.92,409.55 C579.684344,402.874053 579.380974,395.819826 577.05,389.32 C575.93,386.21 574.32,383.07 574.74,379.8 C575.06,377.24 576.59,375.01 578.21,373 C583.58,366.34 590.91,359.9 590.86,351.34 C590.81,342.78 583.39,336.34 580.62,328.34 C576.85,317.41 582.08,305.7 584.23,294.34 C587.630173,275.69023 582.652492,256.489036 570.62,241.84 C568.44,239.22 565.91,236.69 562.62,235.65 C557.69,234.07 552.44,236.27 547.29,236.91 C530.29,239.04 514.88,224.18 497.82,225.51 C496.68949,225.553477 495.577062,225.807843 494.54,226.26 C492.33,227.33 491.14,229.7 489.77,231.74 C482.24,242.99 467.44,246.2 455.84,253.18 C422.01,273.55 466.79,310.43 492.71,285.49 Z" id="Shape" fill="#B0605D" fill-rule="nonzero"></path>
            <path d="M699.06,780.23 C699.06,780.23 684.58,706.87 714.4,656.59 C727.040123,635.581877 732.524588,611.040387 730.03,586.65 C728.744411,575.080068 726.40128,563.652286 723.03,552.51" id="Shape" stroke="#535461" stroke-width="2"></path>
            <path d="M741.65,520.71 C740.85,529.46 722.65,553.39 722.65,553.39 C722.65,553.39 709.13,526.55 709.94,517.79 C710.349044,512.038919 713.835601,506.958448 719.054737,504.508373 C724.273874,502.058298 730.409832,502.621567 735.095676,505.980901 C739.78152,509.340235 742.284846,514.970565 741.64,520.7 L741.65,520.71 Z" id="Shape" fill="#F58A07" fill-rule="nonzero"></path>
            <path d="M763.4,571.6 C757.97,578.51 729.7,588.72 729.7,588.72 C729.7,588.72 732.94,558.84 738.37,551.93 C743.92544,545.462443 753.589976,544.519703 760.290569,549.791729 C766.991162,555.063756 768.348849,564.678781 763.37,571.6 L763.4,571.6 Z" id="Shape" fill="#F58A07" fill-rule="nonzero"></path>
            <path d="M754.64,654.36 C746.46,657.58 716.91,652.12 716.91,652.12 C716.91,652.12 734.79,627.96 742.97,624.74 C751.108519,621.680922 760.196091,625.717088 763.383178,633.806336 C766.570265,641.895583 762.677963,651.045697 754.64,654.36 Z" id="Shape" fill="#F58A07" fill-rule="nonzero"></path>
            <path d="M733.92,715.49 C726.4,720.05 696.35,719.66 696.35,719.66 C696.35,719.66 709.89,692.83 717.41,688.27 C722.276716,685.206955 728.417015,685.006479 733.473165,687.745552 C738.529315,690.484625 741.715377,695.737478 741.807977,701.487139 C741.900578,707.236799 738.885323,712.589528 733.92,715.49 Z" id="Shape" fill="#F58A07" fill-rule="nonzero"></path>
            <path d="M696.26,587.36 C701.98,594.04 730.65,603.04 730.65,603.04 C730.65,603.04 726.15,573.32 720.44,566.65 C716.767704,562.235631 711.002756,560.140919 705.353228,561.168175 C699.7037,562.195431 695.045142,566.185453 693.16186,571.609996 C691.278577,577.034539 692.462437,583.052921 696.26,587.36 Z" id="Shape" fill="#F58A07" fill-rule="nonzero"></path>
            <path d="M672.93,659.15 C680.38,663.81 710.44,663.82 710.44,663.82 C710.44,663.82 697.26,636.82 689.8,632.15 C684.97451,629.042631 678.849981,628.773204 673.770265,631.44483 C668.69055,634.116455 665.442108,639.315502 665.268118,645.052297 C665.094128,650.789092 668.021526,656.175445 672.93,659.15 Z" id="Shape" fill="#F58A07" fill-rule="nonzero"></path>
            <path d="M659.82,732.05 C666.38,737.9 696,743 696,743 C696,743 687.57,714.15 681,708.3 C676.770693,704.41173 670.774516,703.103757 665.310128,704.877498 C659.845741,706.651239 655.76089,711.231515 654.621521,716.862458 C653.482152,722.493401 655.465026,728.301425 659.81,732.06 L659.82,732.05 Z" id="Shape" fill="#F58A07" fill-rule="nonzero"></path>
            <path d="M446.8,157.7 C446.8,136.790499 429.849501,119.84 408.94,119.84 L202.66,119.84 C181.750499,119.84 164.8,136.790499 164.8,157.7 C164.8,178.609501 181.750499,195.56 202.66,195.56 L375.13,195.23 L414.8,229.84 L414.8,195.05 C433.208801,192.178714 446.786175,176.331373 446.8,157.7 Z" id="Shape" fill="#F58A07" fill-rule="nonzero"></path>
            <circle id="Oval" fill="#FFFFFF" fill-rule="nonzero" opacity="0.75546875" cx="209.2" cy="159" r="13.06"></circle>
            <circle id="Oval" fill="#FFFFFF" fill-rule="nonzero" opacity="0.75546875" cx="253.58" cy="159" r="13.06"></circle>
            <circle id="Oval" fill="#FFFFFF" fill-rule="nonzero" opacity="0.75546875" cx="297.97" cy="159" r="13.06"></circle>
            <rect id="Rectangle-path" fill="#F58A07" fill-rule="nonzero" x="376.81" y="588.84" width="104" height="31"></rect>
            <rect id="Rectangle-path" fill="#6C63FF" fill-rule="nonzero" opacity="0.1" x="515.81" y="588.84" width="104" height="31"></rect>
        </g>
    </g>
</svg>